STARTFONT 2.1
FONT -FontForge-Bungee Shade-Book-R-Normal--10-100-72-72-P-85-ISO10646-1
SIZE 10 72 72
FONTBOUNDINGBOX 25 28 -6 -10
COMMENT "Generated by fontforge, http://fontforge.sourceforge.net"
COMMENT "Copyright 2008 The Bungee Project Authors (david@djr.com)"
STARTPROPERTIES 39
FOUNDRY "FontForge"
FAMILY_NAME "Bungee Shade"
WEIGHT_NAME "Book"
SLANT "R"
SETWIDTH_NAME "Normal"
ADD_STYLE_NAME ""
PIXEL_SIZE 10
POINT_SIZE 100
RESOLUTION_X 72
RESOLUTION_Y 72
SPACING "P"
AVERAGE_WIDTH 85
CHARSET_REGISTRY "ISO10646"
CHARSET_ENCODING "1"
FONTNAME_REGISTRY ""
CHARSET_COLLECTIONS "ISO8859-2 ISO8859-9 ISO8859-4 ISO10646-1"
FONT_NAME "BungeeShade-Regular"
FACE_NAME "Bungee Shade"
COPYRIGHT "Copyright 2008 The Bungee Project Authors (david@djr.com)"
FONT_VERSION "1.000;PS 1.0;hotconv 1.0.72;makeotf.lib2.5.5900"
FONT_ASCENT 9
FONT_DESCENT 1
UNDERLINE_POSITION 0
UNDERLINE_THICKNESS 0
X_HEIGHT 7
CAP_HEIGHT 7
RAW_ASCENT 860
RAW_DESCENT 140
NORM_SPACE 3
RELATIVE_WEIGHT 40
RELATIVE_SETWIDTH 50
SUPERSCRIPT_X 0
SUPERSCRIPT_Y 3
SUPERSCRIPT_SIZE 6
SUBSCRIPT_X 0
SUBSCRIPT_Y 0
SUBSCRIPT_SIZE 6
AVG_LOWERCASE_WIDTH 81
AVG_UPPERCASE_WIDTH 83
ENDPROPERTIES
CHARS 1065
STARTCHAR space
ENCODING 32
SWIDTH 325 0
DWIDTH 3 0
BBX 1 1 0 0
BITMAP
00
ENDCHAR
STARTCHAR exclam
ENCODING 33
SWIDTH 524 0
DWIDTH 5 0
BBX 4 9 1 -1
BITMAP
F0
B0
B0
B0
90
E0
B0
90
E0
ENDCHAR
STARTCHAR quotedbl
ENCODING 34
SWIDTH 746 0
DWIDTH 7 0
BBX 7 5 0 3
BITMAP
7E
EE
EE
CA
FC
ENDCHAR
STARTCHAR numbersign
ENCODING 35
SWIDTH 850 0
DWIDTH 9 0
BBX 8 9 0 -1
BITMAP
3F
37
5F
FD
EB
FF
DD
DA
6C
ENDCHAR
STARTCHAR dollar
ENCODING 36
SWIDTH 750 0
DWIDTH 8 0
BBX 7 11 0 -2
BITMAP
1C
2A
5E
EC
FA
C6
7A
5E
CA
E4
38
ENDCHAR
STARTCHAR percent
ENCODING 37
SWIDTH 1131 0
DWIDTH 11 0
BBX 11 9 0 -1
BITMAP
7B80
5700
D700
F5C0
C560
7D60
0D20
1BE0
1FC0
ENDCHAR
STARTCHAR ampersand
ENCODING 38
SWIDTH 866 0
DWIDTH 9 0
BBX 9 9 0 -1
BITMAP
3E00
4E00
5C00
7700
6580
EE80
DD00
C100
7E00
ENDCHAR
STARTCHAR quotesingle
ENCODING 39
SWIDTH 456 0
DWIDTH 5 0
BBX 4 5 0 3
BITMAP
70
F0
F0
D0
E0
ENDCHAR
STARTCHAR parenleft
ENCODING 40
SWIDTH 529 0
DWIDTH 5 0
BBX 5 11 0 -1
BITMAP
38
48
78
E8
F0
F0
F0
F0
E8
D8
78
ENDCHAR
STARTCHAR parenright
ENCODING 41
SWIDTH 529 0
DWIDTH 5 0
BBX 5 11 0 -1
BITMAP
30
48
F8
F8
78
78
78
78
58
E8
F0
ENDCHAR
STARTCHAR asterisk
ENCODING 42
SWIDTH 818 0
DWIDTH 8 0
BBX 8 8 0 0
BITMAP
1C
3E
5F
69
F6
2A
7C
28
ENDCHAR
STARTCHAR plus
ENCODING 43
SWIDTH 834 0
DWIDTH 8 0
BBX 8 8 0 0
BITMAP
0C
14
3B
5F
C9
FA
34
38
ENDCHAR
STARTCHAR comma
ENCODING 44
SWIDTH 484 0
DWIDTH 5 0
BBX 5 6 0 -3
BITMAP
30
78
E8
F8
F0
40
ENDCHAR
STARTCHAR hyphen
ENCODING 45
SWIDTH 520 0
DWIDTH 5 0
BBX 5 4 0 2
BITMAP
38
78
C8
F0
ENDCHAR
STARTCHAR period
ENCODING 46
SWIDTH 484 0
DWIDTH 5 0
BBX 5 5 0 -1
BITMAP
30
48
D8
C8
F0
ENDCHAR
STARTCHAR slash
ENCODING 47
SWIDTH 487 0
DWIDTH 5 0
BBX 5 12 0 -2
BITMAP
18
28
58
58
50
50
50
68
F0
F0
90
E0
ENDCHAR
STARTCHAR zero
ENCODING 48
SWIDTH 827 0
DWIDTH 8 0
BBX 8 9 0 -1
BITMAP
3F
63
EF
EF
EF
EF
DD
E2
7C
ENDCHAR
STARTCHAR one
ENCODING 49
SWIDTH 701 0
DWIDTH 7 0
BBX 7 9 0 -1
BITMAP
7C
D4
EC
2C
2C
2E
5E
C2
FC
ENDCHAR
STARTCHAR two
ENCODING 50
SWIDTH 739 0
DWIDTH 7 0
BBX 7 9 0 -1
BITMAP
7E
5A
7E
2E
74
EE
DE
C2
FC
ENDCHAR
STARTCHAR three
ENCODING 51
SWIDTH 737 0
DWIDTH 7 0
BBX 7 9 0 -1
BITMAP
7E
DA
F6
3A
46
7E
5A
C2
FC
ENDCHAR
STARTCHAR four
ENCODING 52
SWIDTH 809 0
DWIDTH 8 0
BBX 8 9 0 -1
BITMAP
7F
EB
EB
E3
DD
C3
7B
09
0E
ENDCHAR
STARTCHAR five
ENCODING 53
SWIDTH 747 0
DWIDTH 7 0
BBX 7 9 0 -1
BITMAP
7E
DE
EC
DE
C2
FA
5E
C2
FC
ENDCHAR
STARTCHAR six
ENCODING 54
SWIDTH 793 0
DWIDTH 8 0
BBX 8 9 0 -1
BITMAP
3E
62
EE
ED
EB
E3
D9
E2
7C
ENDCHAR
STARTCHAR seven
ENCODING 55
SWIDTH 727 0
DWIDTH 7 0
BBX 7 9 0 -1
BITMAP
7E
FE
FE
26
2A
54
58
48
70
ENDCHAR
STARTCHAR eight
ENCODING 56
SWIDTH 811 0
DWIDTH 8 0
BBX 8 9 0 -1
BITMAP
3E
52
5A
7D
63
EF
D9
E2
7C
ENDCHAR
STARTCHAR nine
ENCODING 57
SWIDTH 793 0
DWIDTH 8 0
BBX 8 9 0 -1
BITMAP
3E
63
EB
E3
DF
7B
5D
42
7C
ENDCHAR
STARTCHAR colon
ENCODING 58
SWIDTH 484 0
DWIDTH 5 0
BBX 5 9 0 -1
BITMAP
30
48
D8
C8
F0
48
D8
C8
F0
ENDCHAR
STARTCHAR semicolon
ENCODING 59
SWIDTH 484 0
DWIDTH 5 0
BBX 5 10 0 -3
BITMAP
30
58
C8
C8
F8
F8
E8
F8
F0
40
ENDCHAR
STARTCHAR less
ENCODING 60
SWIDTH 814 0
DWIDTH 8 0
BBX 6 8 1 -1
BITMAP
3C
5C
E4
D8
BC
E4
7C
08
ENDCHAR
STARTCHAR equal
ENCODING 61
SWIDTH 834 0
DWIDTH 8 0
BBX 8 7 0 0
BITMAP
3F
5F
FF
7F
5F
C1
FE
ENDCHAR
STARTCHAR greater
ENCODING 62
SWIDTH 814 0
DWIDTH 8 0
BBX 7 8 1 -1
BITMAP
E0
BC
CE
F6
5A
AC
F0
80
ENDCHAR
STARTCHAR question
ENCODING 63
SWIDTH 756 0
DWIDTH 8 0
BBX 7 9 0 -1
BITMAP
7E
FE
FA
3E
62
5C
58
48
70
ENDCHAR
STARTCHAR at
ENCODING 64
SWIDTH 967 0
DWIDTH 10 0
BBX 9 12 0 -2
BITMAP
1700
2080
5F80
6980
FF80
D780
D780
DF80
D900
E700
7F00
7E00
ENDCHAR
STARTCHAR A
ENCODING 65
SWIDTH 830 0
DWIDTH 8 0
BBX 8 9 0 -1
BITMAP
3E
2D
5A
6B
5F
E3
EF
DD
EE
ENDCHAR
STARTCHAR B
ENCODING 66
SWIDTH 825 0
DWIDTH 8 0
BBX 8 9 0 -1
BITMAP
7E
DD
EA
DD
E3
EF
DD
C1
FE
ENDCHAR
STARTCHAR C
ENCODING 67
SWIDTH 728 0
DWIDTH 7 0
BBX 7 9 0 -1
BITMAP
3E
5E
EC
E8
E8
EE
DE
62
7C
ENDCHAR
STARTCHAR D
ENCODING 68
SWIDTH 846 0
DWIDTH 8 0
BBX 8 9 0 -1
BITMAP
7F
DD
EF
EF
EF
EF
DD
C3
FC
ENDCHAR
STARTCHAR E
ENCODING 69
SWIDTH 754 0
DWIDTH 8 0
BBX 7 9 0 -1
BITMAP
7E
DE
EE
DA
E2
EE
DE
C2
FC
ENDCHAR
STARTCHAR F
ENCODING 70
SWIDTH 718 0
DWIDTH 7 0
BBX 7 9 0 -1
BITMAP
7E
DE
EE
E2
DA
EC
E8
D8
E0
ENDCHAR
STARTCHAR G
ENCODING 71
SWIDTH 808 0
DWIDTH 8 0
BBX 8 9 0 -1
BITMAP
3F
5D
EE
EF
EB
EB
DF
61
7E
ENDCHAR
STARTCHAR H
ENCODING 72
SWIDTH 859 0
DWIDTH 9 0
BBX 8 9 0 -1
BITMAP
7F
EF
EF
DF
E3
EF
EF
CD
FE
ENDCHAR
STARTCHAR I
ENCODING 73
SWIDTH 705 0
DWIDTH 7 0
BBX 7 9 0 -1
BITMAP
7E
DE
EC
28
28
2E
5E
C2
FC
ENDCHAR
STARTCHAR J
ENCODING 74
SWIDTH 788 0
DWIDTH 8 0
BBX 7 9 0 -1
BITMAP
0E
0A
0A
3A
6A
EA
DE
E2
7C
ENDCHAR
STARTCHAR K
ENCODING 75
SWIDTH 846 0
DWIDTH 8 0
BBX 8 9 0 -1
BITMAP
7F
EA
EE
DD
E3
EF
EF
DD
EE
ENDCHAR
STARTCHAR L
ENCODING 76
SWIDTH 795 0
DWIDTH 8 0
BBX 8 9 0 -1
BITMAP
78
E8
E8
EF
EB
EB
DF
C1
FE
ENDCHAR
STARTCHAR M
ENCODING 77
SWIDTH 949 0
DWIDTH 9 0
BBX 9 9 0 -1
BITMAP
7B80
D580
EB80
EF80
EB80
EF80
EF80
DE80
E700
ENDCHAR
STARTCHAR N
ENCODING 78
SWIDTH 853 0
DWIDTH 9 0
BBX 8 9 0 -1
BITMAP
77
DF
EF
E7
EF
EB
EF
DD
EE
ENDCHAR
STARTCHAR O
ENCODING 79
SWIDTH 837 0
DWIDTH 8 0
BBX 8 9 0 -1
BITMAP
3F
63
EF
EF
EF
EF
DD
E2
7C
ENDCHAR
STARTCHAR P
ENCODING 80
SWIDTH 782 0
DWIDTH 8 0
BBX 8 9 0 -1
BITMAP
7E
DD
DB
DB
DD
D3
DC
C8
F0
ENDCHAR
STARTCHAR Q
ENCODING 81
SWIDTH 837 0
DWIDTH 8 0
BBX 8 10 0 -2
BITMAP
3F
5D
EF
EF
EF
EF
E3
DD
72
3C
ENDCHAR
STARTCHAR R
ENCODING 82
SWIDTH 843 0
DWIDTH 8 0
BBX 8 9 0 -1
BITMAP
7F
DD
EB
E2
DF
ED
ED
DD
EE
ENDCHAR
STARTCHAR S
ENCODING 83
SWIDTH 750 0
DWIDTH 8 0
BBX 7 9 0 -1
BITMAP
3E
5E
EC
FA
C6
7A
5E
C2
FC
ENDCHAR
STARTCHAR T
ENCODING 84
SWIDTH 756 0
DWIDTH 8 0
BBX 8 9 0 -1
BITMAP
7F
BF
EA
2C
2C
2C
2C
24
38
ENDCHAR
STARTCHAR U
ENCODING 85
SWIDTH 846 0
DWIDTH 8 0
BBX 8 9 0 -1
BITMAP
7F
EF
EF
EF
EF
EB
DD
62
7C
ENDCHAR
STARTCHAR V
ENCODING 86
SWIDTH 830 0
DWIDTH 8 0
BBX 8 9 0 -1
BITMAP
7F
EF
EF
EF
DB
D2
6E
62
3C
ENDCHAR
STARTCHAR W
ENCODING 87
SWIDTH 931 0
DWIDTH 9 0
BBX 9 9 0 -1
BITMAP
7B80
EF80
EF80
EB80
EF80
D380
D580
4C80
7700
ENDCHAR
STARTCHAR X
ENCODING 88
SWIDTH 837 0
DWIDTH 8 0
BBX 8 9 0 -1
BITMAP
7F
EF
D3
6E
53
6B
EF
DD
EE
ENDCHAR
STARTCHAR Y
ENCODING 89
SWIDTH 805 0
DWIDTH 8 0
BBX 8 9 0 -1
BITMAP
77
EF
EB
D5
EA
6A
3C
34
38
ENDCHAR
STARTCHAR Z
ENCODING 90
SWIDTH 760 0
DWIDTH 8 0
BBX 7 9 0 -1
BITMAP
7E
DE
F6
2A
34
56
DE
C2
FC
ENDCHAR
STARTCHAR bracketleft
ENCODING 91
SWIDTH 529 0
DWIDTH 5 0
BBX 5 11 0 -1
BITMAP
38
48
F8
E8
F0
F0
F0
F0
E8
D8
F8
ENDCHAR
STARTCHAR backslash
ENCODING 92
SWIDTH 487 0
DWIDTH 5 0
BBX 5 12 0 -2
BITMAP
60
90
F0
F0
E8
D0
50
58
58
58
68
70
ENDCHAR
STARTCHAR bracketright
ENCODING 93
SWIDTH 529 0
DWIDTH 5 0
BBX 5 11 0 -1
BITMAP
38
48
F8
F8
78
78
78
78
58
F8
F0
ENDCHAR
STARTCHAR asciicircum
ENCODING 94
SWIDTH 814 0
DWIDTH 8 0
BBX 8 7 0 1
BITMAP
1E
2A
56
5D
6A
5D
EE
ENDCHAR
STARTCHAR underscore
ENCODING 95
SWIDTH 834 0
DWIDTH 8 0
BBX 8 4 0 -2
BITMAP
3F
5F
C1
FE
ENDCHAR
STARTCHAR grave
ENCODING 96
SWIDTH 600 0
DWIDTH 6 0
BBX 6 3 0 7
BITMAP
7C
C4
F8
ENDCHAR
STARTCHAR a
ENCODING 97
SWIDTH 830 0
DWIDTH 8 0
BBX 8 9 0 -1
BITMAP
3E
2D
5A
6B
5F
E3
EF
DD
EE
ENDCHAR
STARTCHAR b
ENCODING 98
SWIDTH 825 0
DWIDTH 8 0
BBX 8 9 0 -1
BITMAP
7E
DD
EA
DD
E3
EF
DD
C1
FE
ENDCHAR
STARTCHAR c
ENCODING 99
SWIDTH 728 0
DWIDTH 7 0
BBX 7 9 0 -1
BITMAP
3E
5E
EC
E8
E8
EE
DE
62
7C
ENDCHAR
STARTCHAR d
ENCODING 100
SWIDTH 846 0
DWIDTH 8 0
BBX 8 9 0 -1
BITMAP
7F
DD
EF
EF
EF
EF
DD
C3
FC
ENDCHAR
STARTCHAR e
ENCODING 101
SWIDTH 754 0
DWIDTH 8 0
BBX 7 9 0 -1
BITMAP
7E
DE
EE
DA
E2
EE
DE
C2
FC
ENDCHAR
STARTCHAR f
ENCODING 102
SWIDTH 718 0
DWIDTH 7 0
BBX 7 9 0 -1
BITMAP
7E
DE
EE
E2
DA
EC
E8
D8
E0
ENDCHAR
STARTCHAR g
ENCODING 103
SWIDTH 808 0
DWIDTH 8 0
BBX 8 9 0 -1
BITMAP
3F
5D
EE
EF
EB
EB
DF
61
7E
ENDCHAR
STARTCHAR h
ENCODING 104
SWIDTH 859 0
DWIDTH 9 0
BBX 8 9 0 -1
BITMAP
7F
EF
EF
DF
E3
EF
EF
CD
FE
ENDCHAR
STARTCHAR i
ENCODING 105
SWIDTH 705 0
DWIDTH 7 0
BBX 7 9 0 -1
BITMAP
7E
DE
EC
28
28
2E
5E
C2
FC
ENDCHAR
STARTCHAR j
ENCODING 106
SWIDTH 788 0
DWIDTH 8 0
BBX 7 9 0 -1
BITMAP
0E
0A
0A
3A
6A
EA
DE
E2
7C
ENDCHAR
STARTCHAR k
ENCODING 107
SWIDTH 846 0
DWIDTH 8 0
BBX 8 9 0 -1
BITMAP
7F
EA
EE
DD
E3
EF
EF
DD
EE
ENDCHAR
STARTCHAR l
ENCODING 108
SWIDTH 795 0
DWIDTH 8 0
BBX 8 9 0 -1
BITMAP
78
E8
E8
EF
EB
EB
DF
C1
FE
ENDCHAR
STARTCHAR m
ENCODING 109
SWIDTH 949 0
DWIDTH 9 0
BBX 9 9 0 -1
BITMAP
7B80
D580
EB80
EF80
EB80
EF80
EF80
DE80
E700
ENDCHAR
STARTCHAR n
ENCODING 110
SWIDTH 853 0
DWIDTH 9 0
BBX 8 9 0 -1
BITMAP
77
DF
EF
E7
EF
EB
EF
DD
EE
ENDCHAR
STARTCHAR o
ENCODING 111
SWIDTH 837 0
DWIDTH 8 0
BBX 8 9 0 -1
BITMAP
3F
63
EF
EF
EF
EF
DD
E2
7C
ENDCHAR
STARTCHAR p
ENCODING 112
SWIDTH 782 0
DWIDTH 8 0
BBX 8 9 0 -1
BITMAP
7E
DD
DB
DB
DD
D3
DC
C8
F0
ENDCHAR
STARTCHAR q
ENCODING 113
SWIDTH 837 0
DWIDTH 8 0
BBX 8 10 0 -2
BITMAP
3F
5D
EF
EF
EF
EF
E3
DD
72
3C
ENDCHAR
STARTCHAR r
ENCODING 114
SWIDTH 843 0
DWIDTH 8 0
BBX 8 9 0 -1
BITMAP
7F
DD
EB
E2
DF
ED
ED
DD
EE
ENDCHAR
STARTCHAR s
ENCODING 115
SWIDTH 750 0
DWIDTH 8 0
BBX 7 9 0 -1
BITMAP
3E
5E
EC
FA
C6
7A
5E
C2
FC
ENDCHAR
STARTCHAR t
ENCODING 116
SWIDTH 756 0
DWIDTH 8 0
BBX 8 9 0 -1
BITMAP
7F
BF
EA
2C
2C
2C
2C
24
38
ENDCHAR
STARTCHAR u
ENCODING 117
SWIDTH 846 0
DWIDTH 8 0
BBX 8 9 0 -1
BITMAP
7F
EF
EF
EF
EF
EB
DD
62
7C
ENDCHAR
STARTCHAR v
ENCODING 118
SWIDTH 830 0
DWIDTH 8 0
BBX 8 9 0 -1
BITMAP
7F
EF
EF
EF
DB
D2
6E
62
3C
ENDCHAR
STARTCHAR w
ENCODING 119
SWIDTH 931 0
DWIDTH 9 0
BBX 9 9 0 -1
BITMAP
7B80
EF80
EF80
EB80
EF80
D380
D580
4C80
7700
ENDCHAR
STARTCHAR x
ENCODING 120
SWIDTH 837 0
DWIDTH 8 0
BBX 8 9 0 -1
BITMAP
7F
EF
D3
6E
53
6B
EF
DD
EE
ENDCHAR
STARTCHAR y
ENCODING 121
SWIDTH 805 0
DWIDTH 8 0
BBX 8 9 0 -1
BITMAP
77
EF
EB
D5
EA
6A
3C
34
38
ENDCHAR
STARTCHAR z
ENCODING 122
SWIDTH 760 0
DWIDTH 8 0
BBX 7 9 0 -1
BITMAP
7E
DE
F6
2A
34
56
DE
C2
FC
ENDCHAR
STARTCHAR braceleft
ENCODING 123
SWIDTH 555 0
DWIDTH 6 0
BBX 5 11 0 -1
BITMAP
18
28
58
58
50
B8
A8
D0
58
68
78
ENDCHAR
STARTCHAR bar
ENCODING 124
SWIDTH 447 0
DWIDTH 4 0
BBX 4 12 0 -2
BITMAP
30
50
F0
F0
F0
F0
F0
F0
F0
F0
D0
E0
ENDCHAR
STARTCHAR braceright
ENCODING 125
SWIDTH 555 0
DWIDTH 6 0
BBX 6 11 0 -1
BITMAP
30
48
F8
F8
78
6C
74
78
58
E8
F0
ENDCHAR
STARTCHAR asciitilde
ENCODING 126
SWIDTH 834 0
DWIDTH 8 0
BBX 8 4 0 2
BITMAP
30
5F
D1
FE
ENDCHAR
STARTCHAR uni00A0
ENCODING 160
SWIDTH 325 0
DWIDTH 3 0
BBX 1 1 0 0
BITMAP
00
ENDCHAR
STARTCHAR exclamdown
ENCODING 161
SWIDTH 523 0
DWIDTH 5 0
BBX 4 9 1 -1
BITMAP
F0
B0
E0
90
B0
B0
B0
90
E0
ENDCHAR
STARTCHAR cent
ENCODING 162
SWIDTH 728 0
DWIDTH 7 0
BBX 7 10 0 -2
BITMAP
0C
3A
5E
6E
E8
EE
DE
FA
72
3C
ENDCHAR
STARTCHAR sterling
ENCODING 163
SWIDTH 795 0
DWIDTH 8 0
BBX 8 9 0 -1
BITMAP
3E
5E
EC
B8
AF
EB
DF
C1
FE
ENDCHAR
STARTCHAR currency
ENCODING 164
SWIDTH 921 0
DWIDTH 9 0
BBX 9 8 0 -1
BITMAP
7F80
5D80
EF00
6F00
7300
5D80
4E80
FF00
ENDCHAR
STARTCHAR yen
ENCODING 165
SWIDTH 803 0
DWIDTH 8 0
BBX 8 9 0 -1
BITMAP
77
EF
EB
D5
6A
5D
7A
74
38
ENDCHAR
STARTCHAR brokenbar
ENCODING 166
SWIDTH 447 0
DWIDTH 4 0
BBX 4 12 0 -2
BITMAP
30
50
F0
F0
D0
D0
F0
70
F0
D0
D0
E0
ENDCHAR
STARTCHAR section
ENCODING 167
SWIDTH 750 0
DWIDTH 8 0
BBX 7 9 0 -1
BITMAP
3E
6E
DE
EA
DE
7A
5E
C2
FC
ENDCHAR
STARTCHAR dieresis
ENCODING 168
SWIDTH 600 0
DWIDTH 6 0
BBX 6 4 0 7
BITMAP
6C
BC
94
F8
ENDCHAR
STARTCHAR copyright
ENCODING 169
SWIDTH 967 0
DWIDTH 10 0
BBX 9 12 0 -2
BITMAP
1700
2080
5F80
7F80
D780
D580
D780
DF80
DF80
E080
7F80
7E00
ENDCHAR
STARTCHAR ordfeminine
ENCODING 170
SWIDTH 620 0
DWIDTH 6 0
BBX 6 9 0 -1
BITMAP
3C
7C
54
FC
D4
D4
FC
7C
F8
ENDCHAR
STARTCHAR guillemotleft
ENCODING 171
SWIDTH 912 0
DWIDTH 9 0
BBX 9 7 0 0
BITMAP
1800
2780
7680
EB00
D580
F680
7F00
ENDCHAR
STARTCHAR logicalnot
ENCODING 172
SWIDTH 834 0
DWIDTH 8 0
BBX 8 6 0 0
BITMAP
3F
5F
FF
0F
0D
0E
ENDCHAR
STARTCHAR uni00AD
ENCODING 173
SWIDTH 520 0
DWIDTH 5 0
BBX 5 4 0 2
BITMAP
38
78
C8
F0
ENDCHAR
STARTCHAR registered
ENCODING 174
SWIDTH 660 0
DWIDTH 7 0
BBX 6 7 0 1
BITMAP
3C
74
FC
F4
DC
F8
30
ENDCHAR
STARTCHAR macron
ENCODING 175
SWIDTH 600 0
DWIDTH 6 0
BBX 6 3 0 7
BITMAP
3C
FC
F8
ENDCHAR
STARTCHAR degree
ENCODING 176
SWIDTH 583 0
DWIDTH 6 0
BBX 6 6 0 2
BITMAP
7C
5C
DC
F4
F8
60
ENDCHAR
STARTCHAR plusminus
ENCODING 177
SWIDTH 834 0
DWIDTH 8 0
BBX 8 9 0 -1
BITMAP
1C
3C
3B
5F
FB
33
5F
C1
FE
ENDCHAR
STARTCHAR twosuperior
ENCODING 178
SWIDTH 585 0
DWIDTH 6 0
BBX 6 7 0 1
BITMAP
7C
F4
FC
48
F8
C4
F8
ENDCHAR
STARTCHAR threesuperior
ENCODING 179
SWIDTH 584 0
DWIDTH 6 0
BBX 6 7 0 1
BITMAP
78
F4
54
7C
74
C4
F8
ENDCHAR
STARTCHAR acute
ENCODING 180
SWIDTH 600 0
DWIDTH 6 0
BBX 6 3 0 7
BITMAP
7C
C4
F8
ENDCHAR
STARTCHAR mu
ENCODING 181
SWIDTH 813 0
DWIDTH 8 0
BBX 8 9 0 -2
BITMAP
37
49
EB
EB
EB
FD
E3
DC
E0
ENDCHAR
STARTCHAR paragraph
ENCODING 182
SWIDTH 782 0
DWIDTH 8 0
BBX 7 9 0 -1
BITMAP
3E
5E
C2
C2
DE
F2
76
26
3C
ENDCHAR
STARTCHAR periodcentered
ENCODING 183
SWIDTH 464 0
DWIDTH 5 0
BBX 4 5 0 1
BITMAP
30
50
F0
D0
E0
ENDCHAR
STARTCHAR cedilla
ENCODING 184
SWIDTH 600 0
DWIDTH 6 0
BBX 4 4 1 -2
BITMAP
70
70
90
E0
ENDCHAR
STARTCHAR onesuperior
ENCODING 185
SWIDTH 557 0
DWIDTH 6 0
BBX 5 7 0 1
BITMAP
70
D0
F0
70
78
C8
F8
ENDCHAR
STARTCHAR ordmasculine
ENCODING 186
SWIDTH 625 0
DWIDTH 6 0
BBX 6 9 0 -1
BITMAP
7C
54
D4
D4
FC
C4
FC
7C
F8
ENDCHAR
STARTCHAR guillemotright
ENCODING 187
SWIDTH 912 0
DWIDTH 9 0
BBX 9 6 0 0
BITMAP
7F00
C980
EF80
5680
D900
EE00
ENDCHAR
STARTCHAR onequarter
ENCODING 188
SWIDTH 1303 0
DWIDTH 13 0
BBX 13 9 0 -1
BITMAP
7380
D500
F558
75B8
7E98
C6F8
FF98
09E8
0E30
ENDCHAR
STARTCHAR onehalf
ENCODING 189
SWIDTH 1260 0
DWIDTH 13 0
BBX 12 9 0 -1
BITMAP
7380
D500
75E0
7590
7EF0
C750
FF70
0970
0FE0
ENDCHAR
STARTCHAR threequarters
ENCODING 190
SWIDTH 1313 0
DWIDTH 13 0
BBX 13 9 0 -1
BITMAP
7B80
F780
55F8
7DF8
76F8
C6B8
FE98
09E8
0E30
ENDCHAR
STARTCHAR questiondown
ENCODING 191
SWIDTH 756 0
DWIDTH 8 0
BBX 7 9 0 -1
BITMAP
1E
16
1C
6E
72
EE
DE
E2
7C
ENDCHAR
STARTCHAR Agrave
ENCODING 192
SWIDTH 830 0
DWIDTH 8 0
BBX 8 12 0 -1
BITMAP
20
3E
62
7E
2D
5B
6B
5F
E3
EF
DD
EE
ENDCHAR
STARTCHAR Aacute
ENCODING 193
SWIDTH 830 0
DWIDTH 8 0
BBX 8 11 0 -1
BITMAP
3E
62
7E
2D
5A
6B
5F
E3
EF
DD
EE
ENDCHAR
STARTCHAR Acircumflex
ENCODING 194
SWIDTH 830 0
DWIDTH 8 0
BBX 8 12 0 -1
BITMAP
1C
2A
7E
62
2D
5B
6B
5F
E3
EF
DD
EE
ENDCHAR
STARTCHAR Atilde
ENCODING 195
SWIDTH 830 0
DWIDTH 8 0
BBX 8 12 0 -1
BITMAP
12
2E
62
7E
2E
5A
6B
5F
E3
EF
DD
EE
ENDCHAR
STARTCHAR Adieresis
ENCODING 196
SWIDTH 830 0
DWIDTH 8 0
BBX 8 12 0 -1
BITMAP
16
3A
49
76
2E
5A
6B
5F
E3
EF
DD
EE
ENDCHAR
STARTCHAR Aring
ENCODING 197
SWIDTH 830 0
DWIDTH 8 0
BBX 8 12 0 -1
BITMAP
1C
2E
7A
6E
6D
5B
6B
5F
E3
EF
DD
EE
ENDCHAR
STARTCHAR AE
ENCODING 198
SWIDTH 1105 0
DWIDTH 11 0
BBX 11 9 0 -1
BITMAP
3FE0
2FE0
5EC0
6DC0
DEC0
E2E0
EDE0
DC20
EFC0
ENDCHAR
STARTCHAR Ccedilla
ENCODING 199
SWIDTH 728 0
DWIDTH 7 0
BBX 7 10 0 -2
BITMAP
3E
5E
EC
E8
E8
EE
DE
6A
74
38
ENDCHAR
STARTCHAR Egrave
ENCODING 200
SWIDTH 754 0
DWIDTH 8 0
BBX 7 11 0 -1
BITMAP
7E
42
7E
5E
EE
DA
E2
EE
DE
C2
FC
ENDCHAR
STARTCHAR Eacute
ENCODING 201
SWIDTH 754 0
DWIDTH 8 0
BBX 7 11 0 -1
BITMAP
3E
62
5E
DE
EE
DA
E2
EE
DE
C2
FC
ENDCHAR
STARTCHAR Ecircumflex
ENCODING 202
SWIDTH 754 0
DWIDTH 8 0
BBX 7 12 0 -1
BITMAP
1C
2A
7E
42
DE
EE
DA
E2
EE
DE
C2
FC
ENDCHAR
STARTCHAR Edieresis
ENCODING 203
SWIDTH 754 0
DWIDTH 8 0
BBX 7 12 0 -1
BITMAP
36
5E
4A
76
5E
EE
DA
E2
EE
DE
C2
FC
ENDCHAR
STARTCHAR Igrave
ENCODING 204
SWIDTH 705 0
DWIDTH 7 0
BBX 7 11 0 -1
BITMAP
7C
42
7E
DE
EC
28
28
2E
5E
C2
FC
ENDCHAR
STARTCHAR Iacute
ENCODING 205
SWIDTH 705 0
DWIDTH 7 0
BBX 7 11 0 -1
BITMAP
3E
42
7E
DE
EC
28
28
2E
5E
C2
FC
ENDCHAR
STARTCHAR Icircumflex
ENCODING 206
SWIDTH 705 0
DWIDTH 7 0
BBX 7 12 0 -1
BITMAP
1C
6A
7E
42
DE
EC
28
28
2E
5E
C2
FC
ENDCHAR
STARTCHAR Idieresis
ENCODING 207
SWIDTH 705 0
DWIDTH 7 0
BBX 7 12 0 -1
BITMAP
34
6A
CA
F6
5E
EC
28
28
2E
5E
C2
FC
ENDCHAR
STARTCHAR Eth
ENCODING 208
SWIDTH 856 0
DWIDTH 9 0
BBX 8 9 0 -1
BITMAP
7F
5D
5F
B7
97
DF
5D
43
7C
ENDCHAR
STARTCHAR Ntilde
ENCODING 209
SWIDTH 853 0
DWIDTH 9 0
BBX 8 12 0 -1
BITMAP
12
2D
72
4D
D7
EF
E7
EF
EB
EF
DD
EE
ENDCHAR
STARTCHAR Ograve
ENCODING 210
SWIDTH 837 0
DWIDTH 8 0
BBX 8 12 0 -1
BITMAP
3C
6E
6A
5D
63
EF
EF
EF
EF
DD
62
7C
ENDCHAR
STARTCHAR Oacute
ENCODING 211
SWIDTH 837 0
DWIDTH 8 0
BBX 8 12 0 -1
BITMAP
0E
3E
6A
5D
63
EF
EF
EF
EF
DD
62
7C
ENDCHAR
STARTCHAR Ocircumflex
ENCODING 212
SWIDTH 837 0
DWIDTH 8 0
BBX 8 12 0 -1
BITMAP
1C
2A
7E
5D
63
EF
EF
EF
EF
DD
62
7C
ENDCHAR
STARTCHAR Otilde
ENCODING 213
SWIDTH 837 0
DWIDTH 8 0
BBX 8 12 0 -1
BITMAP
12
2E
62
3D
63
EF
EF
EF
EF
DD
62
7C
ENDCHAR
STARTCHAR Odieresis
ENCODING 214
SWIDTH 837 0
DWIDTH 8 0
BBX 8 12 0 -1
BITMAP
36
5A
49
3E
63
EF
EF
EF
EF
DD
62
7C
ENDCHAR
STARTCHAR multiply
ENCODING 215
SWIDTH 834 0
DWIDTH 8 0
BBX 7 8 1 0
BITMAP
24
DA
EA
F4
6A
92
FC
88
ENDCHAR
STARTCHAR Oslash
ENCODING 216
SWIDTH 837 0
DWIDTH 8 0
BBX 8 11 0 -2
BITMAP
02
3D
67
EB
EF
EF
F7
CD
F2
7C
60
ENDCHAR
STARTCHAR Ugrave
ENCODING 217
SWIDTH 846 0
DWIDTH 8 0
BBX 8 11 0 -1
BITMAP
3E
62
5D
EF
EF
EF
EF
EB
DD
62
7C
ENDCHAR
STARTCHAR Uacute
ENCODING 218
SWIDTH 846 0
DWIDTH 8 0
BBX 8 11 0 -1
BITMAP
3F
62
5D
EF
EF
EF
EF
EB
DD
62
7C
ENDCHAR
STARTCHAR Ucircumflex
ENCODING 219
SWIDTH 846 0
DWIDTH 8 0
BBX 8 12 0 -1
BITMAP
1E
29
7E
4D
EF
EF
EF
EF
EF
DD
62
7C
ENDCHAR
STARTCHAR Udieresis
ENCODING 220
SWIDTH 846 0
DWIDTH 8 0
BBX 8 12 0 -1
BITMAP
1E
3A
69
5F
EF
EF
EF
EF
EB
DD
62
7C
ENDCHAR
STARTCHAR Yacute
ENCODING 221
SWIDTH 805 0
DWIDTH 8 0
BBX 8 11 0 -1
BITMAP
3E
62
5D
EF
EB
D5
EA
6A
3C
34
38
ENDCHAR
STARTCHAR Thorn
ENCODING 222
SWIDTH 792 0
DWIDTH 8 0
BBX 8 9 0 -1
BITMAP
78
E6
DD
EB
EB
DD
E3
CC
F0
ENDCHAR
STARTCHAR germandbls
ENCODING 223
SWIDTH 859 0
DWIDTH 9 0
BBX 9 9 0 -1
BITMAP
7F00
DD00
DB00
DA80
D900
DD80
DA80
C900
FE00
ENDCHAR
STARTCHAR agrave
ENCODING 224
SWIDTH 830 0
DWIDTH 8 0
BBX 8 12 0 -1
BITMAP
20
3E
62
7E
2D
5B
6B
5F
E3
EF
DD
EE
ENDCHAR
STARTCHAR aacute
ENCODING 225
SWIDTH 830 0
DWIDTH 8 0
BBX 8 11 0 -1
BITMAP
3E
62
7E
2D
5A
6B
5F
E3
EF
DD
EE
ENDCHAR
STARTCHAR acircumflex
ENCODING 226
SWIDTH 830 0
DWIDTH 8 0
BBX 8 12 0 -1
BITMAP
1C
2A
7E
62
2D
5B
6B
5F
E3
EF
DD
EE
ENDCHAR
STARTCHAR atilde
ENCODING 227
SWIDTH 830 0
DWIDTH 8 0
BBX 8 12 0 -1
BITMAP
12
2E
62
7E
2E
5A
6B
5F
E3
EF
DD
EE
ENDCHAR
STARTCHAR adieresis
ENCODING 228
SWIDTH 830 0
DWIDTH 8 0
BBX 8 12 0 -1
BITMAP
16
3A
49
76
2E
5A
6B
5F
E3
EF
DD
EE
ENDCHAR
STARTCHAR aring
ENCODING 229
SWIDTH 830 0
DWIDTH 8 0
BBX 8 12 0 -1
BITMAP
1C
2E
7A
6E
6D
5B
6B
5F
E3
EF
DD
EE
ENDCHAR
STARTCHAR ae
ENCODING 230
SWIDTH 1105 0
DWIDTH 11 0
BBX 11 9 0 -1
BITMAP
3FE0
2FE0
5EC0
6DC0
DEC0
E2E0
EDE0
DC20
EFC0
ENDCHAR
STARTCHAR ccedilla
ENCODING 231
SWIDTH 728 0
DWIDTH 7 0
BBX 7 10 0 -2
BITMAP
3E
5E
EC
E8
E8
EE
DE
6A
74
38
ENDCHAR
STARTCHAR egrave
ENCODING 232
SWIDTH 754 0
DWIDTH 8 0
BBX 7 11 0 -1
BITMAP
7E
42
7E
5E
EE
DA
E2
EE
DE
C2
FC
ENDCHAR
STARTCHAR eacute
ENCODING 233
SWIDTH 754 0
DWIDTH 8 0
BBX 7 11 0 -1
BITMAP
3E
62
5E
DE
EE
DA
E2
EE
DE
C2
FC
ENDCHAR
STARTCHAR ecircumflex
ENCODING 234
SWIDTH 754 0
DWIDTH 8 0
BBX 7 12 0 -1
BITMAP
1C
2A
7E
42
DE
EE
DA
E2
EE
DE
C2
FC
ENDCHAR
STARTCHAR edieresis
ENCODING 235
SWIDTH 754 0
DWIDTH 8 0
BBX 7 12 0 -1
BITMAP
36
5E
4A
76
5E
EE
DA
E2
EE
DE
C2
FC
ENDCHAR
STARTCHAR igrave
ENCODING 236
SWIDTH 705 0
DWIDTH 7 0
BBX 7 11 0 -1
BITMAP
7C
42
7E
DE
EC
28
28
2E
5E
C2
FC
ENDCHAR
STARTCHAR iacute
ENCODING 237
SWIDTH 705 0
DWIDTH 7 0
BBX 7 11 0 -1
BITMAP
3E
42
7E
DE
EC
28
28
2E
5E
C2
FC
ENDCHAR
STARTCHAR icircumflex
ENCODING 238
SWIDTH 705 0
DWIDTH 7 0
BBX 7 12 0 -1
BITMAP
1C
6A
7E
42
DE
EC
28
28
2E
5E
C2
FC
ENDCHAR
STARTCHAR idieresis
ENCODING 239
SWIDTH 705 0
DWIDTH 7 0
BBX 7 12 0 -1
BITMAP
34
6A
CA
F6
5E
EC
28
28
2E
5E
C2
FC
ENDCHAR
STARTCHAR eth
ENCODING 240
SWIDTH 856 0
DWIDTH 9 0
BBX 8 9 0 -1
BITMAP
7F
5D
5F
B7
97
DF
5D
43
7C
ENDCHAR
STARTCHAR ntilde
ENCODING 241
SWIDTH 853 0
DWIDTH 9 0
BBX 8 12 0 -1
BITMAP
12
2D
72
4D
D7
EF
E7
EF
EB
EF
DD
EE
ENDCHAR
STARTCHAR ograve
ENCODING 242
SWIDTH 837 0
DWIDTH 8 0
BBX 8 12 0 -1
BITMAP
3C
6E
6A
5D
63
EF
EF
EF
EF
DD
62
7C
ENDCHAR
STARTCHAR oacute
ENCODING 243
SWIDTH 837 0
DWIDTH 8 0
BBX 8 12 0 -1
BITMAP
0E
3E
6A
5D
63
EF
EF
EF
EF
DD
62
7C
ENDCHAR
STARTCHAR ocircumflex
ENCODING 244
SWIDTH 837 0
DWIDTH 8 0
BBX 8 12 0 -1
BITMAP
1C
2A
7E
5D
63
EF
EF
EF
EF
DD
62
7C
ENDCHAR
STARTCHAR otilde
ENCODING 245
SWIDTH 837 0
DWIDTH 8 0
BBX 8 12 0 -1
BITMAP
12
2E
62
3D
63
EF
EF
EF
EF
DD
62
7C
ENDCHAR
STARTCHAR odieresis
ENCODING 246
SWIDTH 837 0
DWIDTH 8 0
BBX 8 12 0 -1
BITMAP
36
5A
49
3E
63
EF
EF
EF
EF
DD
62
7C
ENDCHAR
STARTCHAR divide
ENCODING 247
SWIDTH 834 0
DWIDTH 8 0
BBX 8 8 0 -1
BITMAP
0C
3A
3F
5F
FF
7A
32
3C
ENDCHAR
STARTCHAR oslash
ENCODING 248
SWIDTH 837 0
DWIDTH 8 0
BBX 8 11 0 -2
BITMAP
02
3D
67
EB
EF
EF
F7
CD
F2
7C
60
ENDCHAR
STARTCHAR ugrave
ENCODING 249
SWIDTH 846 0
DWIDTH 8 0
BBX 8 11 0 -1
BITMAP
3E
62
5D
EF
EF
EF
EF
EB
DD
62
7C
ENDCHAR
STARTCHAR uacute
ENCODING 250
SWIDTH 846 0
DWIDTH 8 0
BBX 8 11 0 -1
BITMAP
3F
62
5D
EF
EF
EF
EF
EB
DD
62
7C
ENDCHAR
STARTCHAR ucircumflex
ENCODING 251
SWIDTH 846 0
DWIDTH 8 0
BBX 8 12 0 -1
BITMAP
1E
29
7E
4D
EF
EF
EF
EF
EF
DD
62
7C
ENDCHAR
STARTCHAR udieresis
ENCODING 252
SWIDTH 846 0
DWIDTH 8 0
BBX 8 12 0 -1
BITMAP
1E
3A
69
5F
EF
EF
EF
EF
EB
DD
62
7C
ENDCHAR
STARTCHAR yacute
ENCODING 253
SWIDTH 805 0
DWIDTH 8 0
BBX 8 11 0 -1
BITMAP
3E
62
5D
EF
EB
D5
EA
6A
3C
34
38
ENDCHAR
STARTCHAR thorn
ENCODING 254
SWIDTH 792 0
DWIDTH 8 0
BBX 8 9 0 -1
BITMAP
78
E6
DD
EB
EB
DD
E3
CC
F0
ENDCHAR
STARTCHAR ydieresis
ENCODING 255
SWIDTH 805 0
DWIDTH 8 0
BBX 8 12 0 -1
BITMAP
36
5D
4A
7D
EF
EB
D3
EE
6A
3C
34
38
ENDCHAR
STARTCHAR Amacron
ENCODING 256
SWIDTH 830 0
DWIDTH 8 0
BBX 8 12 0 -1
BITMAP
1E
2E
62
7E
2E
5A
6B
5F
E3
EF
DD
EE
ENDCHAR
STARTCHAR amacron
ENCODING 257
SWIDTH 830 0
DWIDTH 8 0
BBX 8 12 0 -1
BITMAP
1E
2E
62
7E
2E
5A
6B
5F
E3
EF
DD
EE
ENDCHAR
STARTCHAR Abreve
ENCODING 258
SWIDTH 830 0
DWIDTH 8 0
BBX 8 12 0 -1
BITMAP
16
2D
62
7E
2D
5A
6B
5F
E3
EF
DD
EE
ENDCHAR
STARTCHAR abreve
ENCODING 259
SWIDTH 830 0
DWIDTH 8 0
BBX 8 12 0 -1
BITMAP
16
2D
62
7E
2D
5A
6B
5F
E3
EF
DD
EE
ENDCHAR
STARTCHAR Aogonek
ENCODING 260
SWIDTH 830 0
DWIDTH 8 0
BBX 8 11 0 -3
BITMAP
3E
2D
5A
6B
5F
E3
EF
DD
EB
0D
0E
ENDCHAR
STARTCHAR aogonek
ENCODING 261
SWIDTH 830 0
DWIDTH 8 0
BBX 8 11 0 -3
BITMAP
3E
2D
5A
6B
5F
E3
EF
DD
EB
0D
0E
ENDCHAR
STARTCHAR Cacute
ENCODING 262
SWIDTH 728 0
DWIDTH 7 0
BBX 7 11 0 -1
BITMAP
3E
62
7E
5E
6C
E8
E8
EE
DE
E2
7C
ENDCHAR
STARTCHAR cacute
ENCODING 263
SWIDTH 728 0
DWIDTH 7 0
BBX 7 11 0 -1
BITMAP
3E
62
7E
5E
6C
E8
E8
EE
DE
E2
7C
ENDCHAR
STARTCHAR Ccircumflex
ENCODING 264
SWIDTH 728 0
DWIDTH 7 0
BBX 7 12 0 -1
BITMAP
1C
2A
7E
62
5E
6C
E8
E8
EE
DE
E2
7C
ENDCHAR
STARTCHAR ccircumflex
ENCODING 265
SWIDTH 728 0
DWIDTH 7 0
BBX 7 12 0 -1
BITMAP
1C
2A
7E
62
5E
6C
E8
E8
EE
DE
E2
7C
ENDCHAR
STARTCHAR Cdotaccent
ENCODING 266
SWIDTH 728 0
DWIDTH 7 0
BBX 7 12 0 -1
BITMAP
0C
1C
34
2A
5E
EC
E8
E8
EE
DE
62
7C
ENDCHAR
STARTCHAR cdotaccent
ENCODING 267
SWIDTH 728 0
DWIDTH 7 0
BBX 7 12 0 -1
BITMAP
0C
1C
34
2A
5E
EC
E8
E8
EE
DE
62
7C
ENDCHAR
STARTCHAR Ccaron
ENCODING 268
SWIDTH 728 0
DWIDTH 7 0
BBX 7 12 0 -1
BITMAP
3E
7E
74
6A
5E
6C
E8
E8
EE
DE
62
7C
ENDCHAR
STARTCHAR ccaron
ENCODING 269
SWIDTH 728 0
DWIDTH 7 0
BBX 7 12 0 -1
BITMAP
3E
7E
74
6A
5E
6C
E8
E8
EE
DE
62
7C
ENDCHAR
STARTCHAR Dcaron
ENCODING 270
SWIDTH 846 0
DWIDTH 8 0
BBX 8 12 0 -1
BITMAP
3F
6D
7E
41
DD
EF
EF
EF
EF
DD
C3
FC
ENDCHAR
STARTCHAR dcaron
ENCODING 271
SWIDTH 846 0
DWIDTH 8 0
BBX 8 12 0 -1
BITMAP
3F
6D
7E
41
DD
EF
EF
EF
EF
DD
C3
FC
ENDCHAR
STARTCHAR Dcroat
ENCODING 272
SWIDTH 856 0
DWIDTH 9 0
BBX 8 9 0 -1
BITMAP
7F
5D
5F
B7
97
DF
5D
43
7C
ENDCHAR
STARTCHAR dcroat
ENCODING 273
SWIDTH 856 0
DWIDTH 9 0
BBX 8 9 0 -1
BITMAP
7F
5D
5F
B7
97
DF
5D
43
7C
ENDCHAR
STARTCHAR Emacron
ENCODING 274
SWIDTH 754 0
DWIDTH 8 0
BBX 7 12 0 -1
BITMAP
1C
3E
62
5E
5E
EE
DA
E2
EE
DE
C2
FC
ENDCHAR
STARTCHAR emacron
ENCODING 275
SWIDTH 754 0
DWIDTH 8 0
BBX 7 12 0 -1
BITMAP
1C
3E
62
5E
5E
EE
DA
E2
EE
DE
C2
FC
ENDCHAR
STARTCHAR Ebreve
ENCODING 276
SWIDTH 754 0
DWIDTH 8 0
BBX 7 12 0 -1
BITMAP
36
4A
72
4E
5E
EE
DA
E2
EE
DE
C2
FC
ENDCHAR
STARTCHAR ebreve
ENCODING 277
SWIDTH 754 0
DWIDTH 8 0
BBX 7 12 0 -1
BITMAP
36
4A
72
4E
5E
EE
DA
E2
EE
DE
C2
FC
ENDCHAR
STARTCHAR Edotaccent
ENCODING 278
SWIDTH 754 0
DWIDTH 8 0
BBX 7 12 0 -1
BITMAP
18
2C
24
5A
DE
EE
DA
E2
EE
DE
C2
FC
ENDCHAR
STARTCHAR edotaccent
ENCODING 279
SWIDTH 754 0
DWIDTH 8 0
BBX 7 12 0 -1
BITMAP
18
2C
24
5A
DE
EE
DA
E2
EE
DE
C2
FC
ENDCHAR
STARTCHAR Eogonek
ENCODING 280
SWIDTH 754 0
DWIDTH 8 0
BBX 7 11 0 -3
BITMAP
7E
DE
EE
DA
E2
EE
DE
C6
FA
1A
1E
ENDCHAR
STARTCHAR eogonek
ENCODING 281
SWIDTH 754 0
DWIDTH 8 0
BBX 7 11 0 -3
BITMAP
7E
DE
EE
DA
E2
EE
DE
C6
FA
1A
1E
ENDCHAR
STARTCHAR Ecaron
ENCODING 282
SWIDTH 754 0
DWIDTH 8 0
BBX 7 12 0 -1
BITMAP
3E
5E
74
4A
DE
EE
DA
E2
EE
DE
C2
FC
ENDCHAR
STARTCHAR ecaron
ENCODING 283
SWIDTH 754 0
DWIDTH 8 0
BBX 7 12 0 -1
BITMAP
3E
5E
74
4A
DE
EE
DA
E2
EE
DE
C2
FC
ENDCHAR
STARTCHAR Gcircumflex
ENCODING 284
SWIDTH 808 0
DWIDTH 8 0
BBX 8 12 0 -1
BITMAP
1E
29
3E
41
5D
6E
EF
EB
EB
DF
E1
7E
ENDCHAR
STARTCHAR gcircumflex
ENCODING 285
SWIDTH 808 0
DWIDTH 8 0
BBX 8 12 0 -1
BITMAP
1E
29
3E
41
5D
6E
EF
EB
EB
DF
E1
7E
ENDCHAR
STARTCHAR Gbreve
ENCODING 286
SWIDTH 808 0
DWIDTH 8 0
BBX 8 12 0 -1
BITMAP
12
2D
72
2D
5D
6E
EF
EB
EB
DF
E1
7E
ENDCHAR
STARTCHAR gbreve
ENCODING 287
SWIDTH 808 0
DWIDTH 8 0
BBX 8 12 0 -1
BITMAP
12
2D
72
2D
5D
6E
EF
EB
EB
DF
E1
7E
ENDCHAR
STARTCHAR Gdotaccent
ENCODING 288
SWIDTH 808 0
DWIDTH 8 0
BBX 8 12 0 -1
BITMAP
0C
1A
32
2D
5D
6E
EF
EB
EB
DF
61
7E
ENDCHAR
STARTCHAR gdotaccent
ENCODING 289
SWIDTH 808 0
DWIDTH 8 0
BBX 8 12 0 -1
BITMAP
0C
1A
32
2D
5D
6E
EF
EB
EB
DF
61
7E
ENDCHAR
STARTCHAR Gcommaaccent
ENCODING 290
SWIDTH 808 0
DWIDTH 8 0
BBX 8 12 0 -4
BITMAP
3F
61
EE
EF
EB
EB
DF
7F
7A
34
3C
38
ENDCHAR
STARTCHAR gcommaaccent
ENCODING 291
SWIDTH 808 0
DWIDTH 8 0
BBX 8 12 0 -4
BITMAP
3F
61
EE
EF
EB
EB
DF
7F
7A
34
3C
38
ENDCHAR
STARTCHAR Hcircumflex
ENCODING 292
SWIDTH 859 0
DWIDTH 9 0
BBX 8 12 0 -1
BITMAP
1C
2B
7F
4D
EF
EF
DF
E3
EF
EF
CD
FE
ENDCHAR
STARTCHAR hcircumflex
ENCODING 293
SWIDTH 859 0
DWIDTH 9 0
BBX 8 12 0 -1
BITMAP
1C
2B
7F
4D
EF
EF
DF
E3
EF
EF
CD
FE
ENDCHAR
STARTCHAR Hbar
ENCODING 294
SWIDTH 879 0
DWIDTH 9 0
BBX 9 9 0 -1
BITMAP
7F80
5D80
BF80
DD00
D100
5E80
5D00
5C80
6700
ENDCHAR
STARTCHAR hbar
ENCODING 295
SWIDTH 879 0
DWIDTH 9 0
BBX 9 9 0 -1
BITMAP
7F80
5D80
BF80
DD00
D100
5E80
5D00
5C80
6700
ENDCHAR
STARTCHAR Itilde
ENCODING 296
SWIDTH 705 0
DWIDTH 7 0
BBX 7 12 0 -1
BITMAP
34
5A
52
6E
DE
EC
28
28
2E
5E
C2
FC
ENDCHAR
STARTCHAR itilde
ENCODING 297
SWIDTH 705 0
DWIDTH 7 0
BBX 7 12 0 -1
BITMAP
34
5A
52
6E
DE
EC
28
28
2E
5E
C2
FC
ENDCHAR
STARTCHAR Imacron
ENCODING 298
SWIDTH 705 0
DWIDTH 7 0
BBX 7 12 0 -1
BITMAP
3C
5A
42
7E
DE
EC
28
28
2E
5E
C2
FC
ENDCHAR
STARTCHAR imacron
ENCODING 299
SWIDTH 705 0
DWIDTH 7 0
BBX 7 12 0 -1
BITMAP
3C
5A
42
7E
DE
EC
28
28
2E
5E
C2
FC
ENDCHAR
STARTCHAR Ibreve
ENCODING 300
SWIDTH 705 0
DWIDTH 7 0
BBX 7 12 0 -1
BITMAP
34
5A
64
5A
DE
EC
28
28
2E
5E
C2
FC
ENDCHAR
STARTCHAR ibreve
ENCODING 301
SWIDTH 705 0
DWIDTH 7 0
BBX 7 12 0 -1
BITMAP
34
5A
64
5A
DE
EC
28
28
2E
5E
C2
FC
ENDCHAR
STARTCHAR Iogonek
ENCODING 302
SWIDTH 705 0
DWIDTH 7 0
BBX 7 11 0 -3
BITMAP
7E
DE
EC
28
28
2E
5E
C6
F6
12
1C
ENDCHAR
STARTCHAR iogonek
ENCODING 303
SWIDTH 705 0
DWIDTH 7 0
BBX 7 11 0 -3
BITMAP
7E
DE
EC
28
28
2E
5E
C6
F6
12
1C
ENDCHAR
STARTCHAR Idotaccent
ENCODING 304
SWIDTH 705 0
DWIDTH 7 0
BBX 7 12 0 -1
BITMAP
18
28
24
5A
DE
EC
28
28
2E
5E
C2
FC
ENDCHAR
STARTCHAR dotlessi
ENCODING 305
SWIDTH 705 0
DWIDTH 7 0
BBX 7 9 0 -1
BITMAP
7E
DE
EC
28
28
2E
5E
C2
FC
ENDCHAR
STARTCHAR IJ
ENCODING 306
SWIDTH 844 0
DWIDTH 8 0
BBX 8 9 0 -1
BITMAP
7F
EF
EF
CF
FF
7B
5D
C3
FC
ENDCHAR
STARTCHAR ij
ENCODING 307
SWIDTH 844 0
DWIDTH 8 0
BBX 8 9 0 -1
BITMAP
7F
EF
EF
CF
FF
7B
5D
C3
FC
ENDCHAR
STARTCHAR Jcircumflex
ENCODING 308
SWIDTH 788 0
DWIDTH 8 0
BBX 8 12 0 -1
BITMAP
0E
13
17
19
0A
0A
3A
6A
EA
DD
E2
7C
ENDCHAR
STARTCHAR jcircumflex
ENCODING 309
SWIDTH 788 0
DWIDTH 8 0
BBX 8 12 0 -1
BITMAP
0E
13
17
19
0A
0A
3A
6A
EA
DD
E2
7C
ENDCHAR
STARTCHAR Kcommaaccent
ENCODING 310
SWIDTH 846 0
DWIDTH 8 0
BBX 8 12 0 -4
BITMAP
7F
EA
EE
DD
E3
EF
EF
CD
FA
34
3C
38
ENDCHAR
STARTCHAR kcommaaccent
ENCODING 311
SWIDTH 846 0
DWIDTH 8 0
BBX 8 12 0 -4
BITMAP
7F
EA
EE
DD
E3
EF
EF
CD
FA
34
3C
38
ENDCHAR
STARTCHAR kgreenlandic
ENCODING 312
SWIDTH 846 0
DWIDTH 8 0
BBX 8 9 0 -1
BITMAP
7F
EA
EE
DD
E3
EF
EF
DD
EE
ENDCHAR
STARTCHAR Lacute
ENCODING 313
SWIDTH 795 0
DWIDTH 8 0
BBX 8 11 0 -1
BITMAP
7E
C4
F8
E8
E8
EF
EB
EB
DF
C1
FE
ENDCHAR
STARTCHAR lacute
ENCODING 314
SWIDTH 795 0
DWIDTH 8 0
BBX 8 11 0 -1
BITMAP
7E
C4
F8
E8
E8
EF
EB
EB
DF
C1
FE
ENDCHAR
STARTCHAR Lcommaaccent
ENCODING 315
SWIDTH 795 0
DWIDTH 8 0
BBX 8 12 0 -4
BITMAP
78
E8
E8
EF
EB
EB
DF
FF
FA
34
3C
38
ENDCHAR
STARTCHAR lcommaaccent
ENCODING 316
SWIDTH 795 0
DWIDTH 8 0
BBX 8 12 0 -4
BITMAP
78
E8
E8
EF
EB
EB
DF
FF
FA
34
3C
38
ENDCHAR
STARTCHAR Lcaron
ENCODING 317
SWIDTH 795 0
DWIDTH 8 0
BBX 8 9 0 -1
BITMAP
7F
EA
E9
EF
EB
EB
DF
C1
FE
ENDCHAR
STARTCHAR lcaron
ENCODING 318
SWIDTH 795 0
DWIDTH 8 0
BBX 8 9 0 -1
BITMAP
7F
EA
E9
EF
EB
EB
DF
C1
FE
ENDCHAR
STARTCHAR Ldot
ENCODING 319
SWIDTH 795 0
DWIDTH 8 0
BBX 8 9 0 -1
BITMAP
78
EE
EB
E9
EF
EB
DF
C1
FE
ENDCHAR
STARTCHAR ldot
ENCODING 320
SWIDTH 795 0
DWIDTH 8 0
BBX 8 9 0 -1
BITMAP
78
EE
EB
E9
EF
EB
DF
C1
FE
ENDCHAR
STARTCHAR Lslash
ENCODING 321
SWIDTH 805 0
DWIDTH 8 0
BBX 8 9 0 -1
BITMAP
78
50
5C
A7
9F
DF
5F
41
7E
ENDCHAR
STARTCHAR lslash
ENCODING 322
SWIDTH 805 0
DWIDTH 8 0
BBX 8 9 0 -1
BITMAP
78
50
5C
A7
9F
DF
5F
41
7E
ENDCHAR
STARTCHAR Nacute
ENCODING 323
SWIDTH 853 0
DWIDTH 9 0
BBX 8 11 0 -1
BITMAP
1F
22
5D
D7
EF
E7
EF
EB
EF
DD
EE
ENDCHAR
STARTCHAR nacute
ENCODING 324
SWIDTH 853 0
DWIDTH 9 0
BBX 8 11 0 -1
BITMAP
1F
22
5D
D7
EF
E7
EF
EB
EF
DD
EE
ENDCHAR
STARTCHAR Ncommaaccent
ENCODING 325
SWIDTH 853 0
DWIDTH 9 0
BBX 8 12 0 -4
BITMAP
77
DF
EF
E7
EF
EB
EF
CD
FA
34
3A
3C
ENDCHAR
STARTCHAR ncommaaccent
ENCODING 326
SWIDTH 853 0
DWIDTH 9 0
BBX 8 12 0 -4
BITMAP
77
DF
EF
E7
EF
EB
EF
CD
FA
34
3A
3C
ENDCHAR
STARTCHAR Ncaron
ENCODING 327
SWIDTH 853 0
DWIDTH 9 0
BBX 8 12 0 -1
BITMAP
3E
6E
72
4D
D7
EF
E7
EF
EB
EF
DD
EE
ENDCHAR
STARTCHAR ncaron
ENCODING 328
SWIDTH 853 0
DWIDTH 9 0
BBX 8 12 0 -1
BITMAP
3E
6E
72
4D
D7
EF
E7
EF
EB
EF
DD
EE
ENDCHAR
STARTCHAR napostrophe
ENCODING 329
SWIDTH 853 0
DWIDTH 9 0
BBX 8 13 0 -1
BITMAP
30
68
E8
F0
D7
DF
EF
E7
EF
EB
EF
DD
EE
ENDCHAR
STARTCHAR Eng
ENCODING 330
SWIDTH 846 0
DWIDTH 8 0
BBX 8 10 0 -2
BITMAP
3F
63
6F
EF
EF
EF
EF
CD
FB
1C
ENDCHAR
STARTCHAR eng
ENCODING 331
SWIDTH 846 0
DWIDTH 8 0
BBX 8 10 0 -2
BITMAP
3F
63
6F
EF
EF
EF
EF
CD
FB
1C
ENDCHAR
STARTCHAR Omacron
ENCODING 332
SWIDTH 837 0
DWIDTH 8 0
BBX 8 12 0 -1
BITMAP
1E
2E
62
3E
63
EF
EF
EF
EF
DD
62
7C
ENDCHAR
STARTCHAR omacron
ENCODING 333
SWIDTH 837 0
DWIDTH 8 0
BBX 8 12 0 -1
BITMAP
1E
2E
62
3E
63
EF
EF
EF
EF
DD
62
7C
ENDCHAR
STARTCHAR Obreve
ENCODING 334
SWIDTH 837 0
DWIDTH 8 0
BBX 8 12 0 -1
BITMAP
16
6D
62
3E
63
EF
EF
EF
EF
DD
62
7C
ENDCHAR
STARTCHAR obreve
ENCODING 335
SWIDTH 837 0
DWIDTH 8 0
BBX 8 12 0 -1
BITMAP
16
6D
62
3E
63
EF
EF
EF
EF
DD
62
7C
ENDCHAR
STARTCHAR Ohungarumlaut
ENCODING 336
SWIDTH 837 0
DWIDTH 8 0
BBX 8 13 0 -1
BITMAP
1A
27
35
69
3E
63
EF
EF
EF
EF
DD
62
7C
ENDCHAR
STARTCHAR ohungarumlaut
ENCODING 337
SWIDTH 837 0
DWIDTH 8 0
BBX 8 13 0 -1
BITMAP
1A
27
35
69
3E
63
EF
EF
EF
EF
DD
62
7C
ENDCHAR
STARTCHAR OE
ENCODING 338
SWIDTH 1115 0
DWIDTH 11 0
BBX 11 9 0 -1
BITMAP
3FE0
5FE0
EEC0
EDA0
EE20
EEE0
DFE0
E020
7FC0
ENDCHAR
STARTCHAR oe
ENCODING 339
SWIDTH 1115 0
DWIDTH 11 0
BBX 11 9 0 -1
BITMAP
3FE0
5FE0
EEC0
EDA0
EE20
EEE0
DFE0
E020
7FC0
ENDCHAR
STARTCHAR Racute
ENCODING 340
SWIDTH 843 0
DWIDTH 8 0
BBX 8 12 0 -1
BITMAP
02
3E
62
5D
5D
EB
E2
DF
ED
ED
DD
EE
ENDCHAR
STARTCHAR racute
ENCODING 341
SWIDTH 843 0
DWIDTH 8 0
BBX 8 12 0 -1
BITMAP
02
3E
62
5D
5D
EB
E2
DF
ED
ED
DD
EE
ENDCHAR
STARTCHAR Rcommaaccent
ENCODING 342
SWIDTH 843 0
DWIDTH 8 0
BBX 8 12 0 -4
BITMAP
7F
E3
EB
DD
E3
ED
ED
CD
FA
34
3A
1C
ENDCHAR
STARTCHAR rcommaaccent
ENCODING 343
SWIDTH 843 0
DWIDTH 8 0
BBX 8 12 0 -4
BITMAP
7F
E3
EB
DD
E3
ED
ED
CD
FA
34
3A
1C
ENDCHAR
STARTCHAR Rcaron
ENCODING 344
SWIDTH 843 0
DWIDTH 8 0
BBX 8 12 0 -1
BITMAP
3E
6E
7E
41
DD
EB
E2
DF
ED
ED
DD
EE
ENDCHAR
STARTCHAR rcaron
ENCODING 345
SWIDTH 843 0
DWIDTH 8 0
BBX 8 12 0 -1
BITMAP
3E
6E
7E
41
DD
EB
E2
DF
ED
ED
DD
EE
ENDCHAR
STARTCHAR Sacute
ENCODING 346
SWIDTH 750 0
DWIDTH 8 0
BBX 7 11 0 -1
BITMAP
3E
42
7E
5E
EC
FA
C6
7A
5E
C2
FC
ENDCHAR
STARTCHAR sacute
ENCODING 347
SWIDTH 750 0
DWIDTH 8 0
BBX 7 11 0 -1
BITMAP
3E
42
7E
5E
EC
FA
C6
7A
5E
C2
FC
ENDCHAR
STARTCHAR Scircumflex
ENCODING 348
SWIDTH 750 0
DWIDTH 8 0
BBX 7 12 0 -1
BITMAP
1C
2A
5E
62
5E
EC
FA
C6
7A
5E
C2
FC
ENDCHAR
STARTCHAR scircumflex
ENCODING 349
SWIDTH 750 0
DWIDTH 8 0
BBX 7 12 0 -1
BITMAP
1C
2A
5E
62
5E
EC
FA
C6
7A
5E
C2
FC
ENDCHAR
STARTCHAR Scedilla
ENCODING 350
SWIDTH 750 0
DWIDTH 8 0
BBX 7 10 0 -2
BITMAP
3E
5E
EC
FA
C6
7A
5E
CA
E4
38
ENDCHAR
STARTCHAR scedilla
ENCODING 351
SWIDTH 750 0
DWIDTH 8 0
BBX 7 10 0 -2
BITMAP
3E
5E
EC
FA
C6
7A
5E
CA
E4
38
ENDCHAR
STARTCHAR Scaron
ENCODING 352
SWIDTH 750 0
DWIDTH 8 0
BBX 7 12 0 -1
BITMAP
3E
5E
74
4A
5E
EC
FA
C6
7A
5E
C2
FC
ENDCHAR
STARTCHAR scaron
ENCODING 353
SWIDTH 750 0
DWIDTH 8 0
BBX 7 12 0 -1
BITMAP
3E
5E
74
4A
5E
EC
FA
C6
7A
5E
C2
FC
ENDCHAR
STARTCHAR Tcommaaccent
ENCODING 354
SWIDTH 756 0
DWIDTH 8 0
BBX 8 12 0 -4
BITMAP
7F
89
EA
2C
2C
2C
24
38
24
2C
3C
38
ENDCHAR
STARTCHAR tcommaaccent
ENCODING 355
SWIDTH 756 0
DWIDTH 8 0
BBX 8 12 0 -4
BITMAP
7F
89
EA
2C
2C
2C
24
38
24
2C
3C
38
ENDCHAR
STARTCHAR Tcaron
ENCODING 356
SWIDTH 756 0
DWIDTH 8 0
BBX 8 12 0 -1
BITMAP
3E
5E
74
4B
BF
EA
2C
2C
2C
2C
24
38
ENDCHAR
STARTCHAR tcaron
ENCODING 357
SWIDTH 756 0
DWIDTH 8 0
BBX 8 12 0 -1
BITMAP
3E
5E
74
4B
BF
EA
2C
2C
2C
2C
24
38
ENDCHAR
STARTCHAR Tbar
ENCODING 358
SWIDTH 756 0
DWIDTH 8 0
BBX 8 9 0 -1
BITMAP
7F
BF
EA
2A
5E
6A
6C
24
38
ENDCHAR
STARTCHAR tbar
ENCODING 359
SWIDTH 756 0
DWIDTH 8 0
BBX 8 9 0 -1
BITMAP
7F
BF
EA
2A
5E
6A
6C
24
38
ENDCHAR
STARTCHAR Utilde
ENCODING 360
SWIDTH 846 0
DWIDTH 8 0
BBX 8 12 0 -1
BITMAP
12
2D
72
4D
EF
EF
EF
EF
EB
DD
62
7C
ENDCHAR
STARTCHAR utilde
ENCODING 361
SWIDTH 846 0
DWIDTH 8 0
BBX 8 12 0 -1
BITMAP
12
2D
72
4D
EF
EF
EF
EF
EB
DD
62
7C
ENDCHAR
STARTCHAR Umacron
ENCODING 362
SWIDTH 846 0
DWIDTH 8 0
BBX 8 12 0 -1
BITMAP
1E
2D
62
5D
6F
EF
EF
EF
EB
DD
62
7C
ENDCHAR
STARTCHAR umacron
ENCODING 363
SWIDTH 846 0
DWIDTH 8 0
BBX 8 12 0 -1
BITMAP
1E
2D
62
5D
6F
EF
EF
EF
EB
DD
62
7C
ENDCHAR
STARTCHAR Ubreve
ENCODING 364
SWIDTH 846 0
DWIDTH 8 0
BBX 8 12 0 -1
BITMAP
12
2D
72
4D
EF
EF
EF
EF
EB
DD
62
7C
ENDCHAR
STARTCHAR ubreve
ENCODING 365
SWIDTH 846 0
DWIDTH 8 0
BBX 8 12 0 -1
BITMAP
12
2D
72
4D
EF
EF
EF
EF
EB
DD
62
7C
ENDCHAR
STARTCHAR Uring
ENCODING 366
SWIDTH 846 0
DWIDTH 8 0
BBX 8 14 0 -1
BITMAP
1E
2D
7A
69
72
4D
EF
EF
EF
EF
EF
DD
62
7C
ENDCHAR
STARTCHAR uring
ENCODING 367
SWIDTH 846 0
DWIDTH 8 0
BBX 8 14 0 -1
BITMAP
1E
2D
7A
69
72
4D
EF
EF
EF
EF
EF
DD
62
7C
ENDCHAR
STARTCHAR Uhungarumlaut
ENCODING 368
SWIDTH 846 0
DWIDTH 8 0
BBX 8 13 0 -1
BITMAP
1B
25
37
29
5F
6F
EF
EF
EF
EB
DD
62
7C
ENDCHAR
STARTCHAR uhungarumlaut
ENCODING 369
SWIDTH 846 0
DWIDTH 8 0
BBX 8 13 0 -1
BITMAP
1B
25
37
29
5F
6F
EF
EF
EF
EB
DD
62
7C
ENDCHAR
STARTCHAR Uogonek
ENCODING 370
SWIDTH 846 0
DWIDTH 8 0
BBX 8 11 0 -3
BITMAP
7F
EF
EF
EF
EF
EB
DD
69
7A
12
3C
ENDCHAR
STARTCHAR uogonek
ENCODING 371
SWIDTH 846 0
DWIDTH 8 0
BBX 8 11 0 -3
BITMAP
7F
EF
EF
EF
EF
EB
DD
69
7A
12
3C
ENDCHAR
STARTCHAR Wcircumflex
ENCODING 372
SWIDTH 931 0
DWIDTH 9 0
BBX 9 12 0 -1
BITMAP
0600
1D00
3500
4E80
EF80
EF80
EB80
EF80
D380
D580
4C80
7700
ENDCHAR
STARTCHAR wcircumflex
ENCODING 373
SWIDTH 931 0
DWIDTH 9 0
BBX 9 12 0 -1
BITMAP
0600
1D00
3500
4E80
EF80
EF80
EB80
EF80
D380
D580
4C80
7700
ENDCHAR
STARTCHAR Ycircumflex
ENCODING 374
SWIDTH 805 0
DWIDTH 8 0
BBX 8 12 0 -1
BITMAP
1C
2A
7E
4D
EF
EB
D5
EA
6A
3C
34
38
ENDCHAR
STARTCHAR ycircumflex
ENCODING 375
SWIDTH 805 0
DWIDTH 8 0
BBX 8 12 0 -1
BITMAP
1C
2A
7E
4D
EF
EB
D5
EA
6A
3C
34
38
ENDCHAR
STARTCHAR Ydieresis
ENCODING 376
SWIDTH 805 0
DWIDTH 8 0
BBX 8 12 0 -1
BITMAP
36
5D
4A
7D
EF
EB
D3
EE
6A
3C
34
38
ENDCHAR
STARTCHAR Zacute
ENCODING 377
SWIDTH 760 0
DWIDTH 8 0
BBX 7 11 0 -1
BITMAP
3E
42
7E
DE
F6
2A
34
56
DE
C2
FC
ENDCHAR
STARTCHAR zacute
ENCODING 378
SWIDTH 760 0
DWIDTH 8 0
BBX 7 11 0 -1
BITMAP
3E
42
7E
DE
F6
2A
34
56
DE
C2
FC
ENDCHAR
STARTCHAR Zdotaccent
ENCODING 379
SWIDTH 760 0
DWIDTH 8 0
BBX 7 12 0 -1
BITMAP
18
2C
24
5A
DE
F6
2A
34
56
DE
C2
FC
ENDCHAR
STARTCHAR zdotaccent
ENCODING 380
SWIDTH 760 0
DWIDTH 8 0
BBX 7 12 0 -1
BITMAP
18
2C
24
5A
DE
F6
2A
34
56
DE
C2
FC
ENDCHAR
STARTCHAR Zcaron
ENCODING 381
SWIDTH 760 0
DWIDTH 8 0
BBX 7 12 0 -1
BITMAP
3E
5E
74
4A
DE
F6
2A
34
56
DE
C2
FC
ENDCHAR
STARTCHAR zcaron
ENCODING 382
SWIDTH 760 0
DWIDTH 8 0
BBX 7 12 0 -1
BITMAP
3E
5E
74
4A
DE
F6
2A
34
56
DE
C2
FC
ENDCHAR
STARTCHAR Schwa
ENCODING 399
SWIDTH 815 0
DWIDTH 8 0
BBX 8 9 0 -1
BITMAP
3F
43
7F
5F
E3
EF
DD
E2
7C
ENDCHAR
STARTCHAR florin
ENCODING 402
SWIDTH 674 0
DWIDTH 7 0
BBX 7 9 0 -1
BITMAP
1E
26
2C
7E
CA
F4
64
D8
E0
ENDCHAR
STARTCHAR Ohorn
ENCODING 416
SWIDTH 847 0
DWIDTH 8 0
BBX 9 11 0 -1
BITMAP
0100
0280
3F80
6300
EF00
EF00
EF00
EF00
DD00
E200
7C00
ENDCHAR
STARTCHAR ohorn
ENCODING 417
SWIDTH 847 0
DWIDTH 8 0
BBX 9 11 0 -1
BITMAP
0100
0280
3F80
6300
EF00
EF00
EF00
EF00
DD00
E200
7C00
ENDCHAR
STARTCHAR Uhorn
ENCODING 431
SWIDTH 856 0
DWIDTH 9 0
BBX 9 11 0 -1
BITMAP
0100
0280
7D80
EE80
EE80
EE80
EE80
EA80
DD00
6200
7C00
ENDCHAR
STARTCHAR uhorn
ENCODING 432
SWIDTH 856 0
DWIDTH 9 0
BBX 9 11 0 -1
BITMAP
0100
0280
7D80
EE80
EE80
EE80
EE80
EA80
DD00
6200
7C00
ENDCHAR
STARTCHAR Acaron
ENCODING 461
SWIDTH 830 0
DWIDTH 8 0
BBX 8 12 0 -1
BITMAP
3E
6E
76
2A
2D
5A
6B
5F
E3
EF
DD
EE
ENDCHAR
STARTCHAR acaron
ENCODING 462
SWIDTH 830 0
DWIDTH 8 0
BBX 8 12 0 -1
BITMAP
3E
6E
76
2A
2D
5A
6B
5F
E3
EF
DD
EE
ENDCHAR
STARTCHAR Icaron
ENCODING 463
SWIDTH 705 0
DWIDTH 7 0
BBX 7 12 0 -1
BITMAP
7E
5A
74
4A
DE
EC
28
28
2E
5E
C2
FC
ENDCHAR
STARTCHAR icaron
ENCODING 464
SWIDTH 705 0
DWIDTH 7 0
BBX 7 12 0 -1
BITMAP
7E
5A
74
4A
DE
EC
28
28
2E
5E
C2
FC
ENDCHAR
STARTCHAR Ocaron
ENCODING 465
SWIDTH 837 0
DWIDTH 8 0
BBX 8 12 0 -1
BITMAP
3E
6E
72
3D
63
EF
EF
EF
EF
DD
62
7C
ENDCHAR
STARTCHAR ocaron
ENCODING 466
SWIDTH 837 0
DWIDTH 8 0
BBX 8 12 0 -1
BITMAP
3E
6E
72
3D
63
EF
EF
EF
EF
DD
62
7C
ENDCHAR
STARTCHAR Ucaron
ENCODING 467
SWIDTH 846 0
DWIDTH 8 0
BBX 8 12 0 -1
BITMAP
3F
6D
72
4D
EF
EF
EF
EF
EB
DD
62
7C
ENDCHAR
STARTCHAR ucaron
ENCODING 468
SWIDTH 846 0
DWIDTH 8 0
BBX 8 12 0 -1
BITMAP
3F
6D
72
4D
EF
EF
EF
EF
EB
DD
62
7C
ENDCHAR
STARTCHAR Udieresismacron
ENCODING 469
SWIDTH 846 0
DWIDTH 8 0
BBX 8 14 0 -1
BITMAP
1E
2E
7E
7A
69
5F
EF
EF
EF
EF
EB
DD
62
7C
ENDCHAR
STARTCHAR udieresismacron
ENCODING 470
SWIDTH 846 0
DWIDTH 8 0
BBX 8 14 0 -1
BITMAP
1E
2E
7E
7A
69
5F
EF
EF
EF
EF
EB
DD
62
7C
ENDCHAR
STARTCHAR Udieresisacute
ENCODING 471
SWIDTH 846 0
DWIDTH 8 0
BBX 8 14 0 -1
BITMAP
0C
12
16
3A
69
5F
EF
EF
EF
EF
EB
DD
62
7C
ENDCHAR
STARTCHAR udieresisacute
ENCODING 472
SWIDTH 846 0
DWIDTH 8 0
BBX 8 14 0 -1
BITMAP
0C
12
16
3A
69
5F
EF
EF
EF
EF
EB
DD
62
7C
ENDCHAR
STARTCHAR Udieresiscaron
ENCODING 473
SWIDTH 846 0
DWIDTH 8 0
BBX 8 14 0 -1
BITMAP
3F
6E
7E
7A
69
5F
EF
EF
EF
EF
EB
DD
62
7C
ENDCHAR
STARTCHAR udieresiscaron
ENCODING 474
SWIDTH 846 0
DWIDTH 8 0
BBX 8 14 0 -1
BITMAP
3F
6E
7E
7A
69
5F
EF
EF
EF
EF
EB
DD
62
7C
ENDCHAR
STARTCHAR Udieresisgrave
ENCODING 475
SWIDTH 846 0
DWIDTH 8 0
BBX 8 14 0 -1
BITMAP
1C
34
36
3A
69
5F
EF
EF
EF
EF
EB
DD
62
7C
ENDCHAR
STARTCHAR udieresisgrave
ENCODING 476
SWIDTH 846 0
DWIDTH 8 0
BBX 8 14 0 -1
BITMAP
1C
34
36
3A
69
5F
EF
EF
EF
EF
EB
DD
62
7C
ENDCHAR
STARTCHAR Gcaron
ENCODING 486
SWIDTH 808 0
DWIDTH 8 0
BBX 8 12 0 -1
BITMAP
3E
7E
76
69
5D
6E
EF
EB
EB
DF
61
7E
ENDCHAR
STARTCHAR gcaron
ENCODING 487
SWIDTH 808 0
DWIDTH 8 0
BBX 8 12 0 -1
BITMAP
3E
7E
76
69
5D
6E
EF
EB
EB
DF
61
7E
ENDCHAR
STARTCHAR Scommaaccent
ENCODING 536
SWIDTH 750 0
DWIDTH 8 0
BBX 7 12 0 -4
BITMAP
3E
62
EC
DE
C2
7A
5E
FC
EC
24
3C
38
ENDCHAR
STARTCHAR scommaaccent
ENCODING 537
SWIDTH 750 0
DWIDTH 8 0
BBX 7 12 0 -4
BITMAP
3E
62
EC
DE
C2
7A
5E
FC
EC
24
3C
38
ENDCHAR
STARTCHAR uni021A
ENCODING 538
SWIDTH 756 0
DWIDTH 8 0
BBX 8 12 0 -4
BITMAP
7F
89
EA
2C
2C
2C
24
38
24
2C
3C
38
ENDCHAR
STARTCHAR uni021B
ENCODING 539
SWIDTH 756 0
DWIDTH 8 0
BBX 8 12 0 -4
BITMAP
7F
89
EA
2C
2C
2C
24
38
24
2C
3C
38
ENDCHAR
STARTCHAR dotlessj
ENCODING 567
SWIDTH 788 0
DWIDTH 8 0
BBX 7 9 0 -1
BITMAP
0E
0A
0A
3A
6A
EA
DE
E2
7C
ENDCHAR
STARTCHAR ascript
ENCODING 593
SWIDTH 846 0
DWIDTH 8 0
BBX 8 9 0 -1
BITMAP
3F
63
EF
EF
EF
EF
DF
E1
7E
ENDCHAR
STARTCHAR schwa
ENCODING 601
SWIDTH 815 0
DWIDTH 8 0
BBX 8 9 0 -1
BITMAP
3F
43
7F
5F
E3
EF
DD
E2
7C
ENDCHAR
STARTCHAR gscript
ENCODING 609
SWIDTH 815 0
DWIDTH 8 0
BBX 8 10 0 -2
BITMAP
3E
5D
EF
EF
DF
C3
7F
3D
41
7E
ENDCHAR
STARTCHAR commaturnedmod
ENCODING 699
SWIDTH 600 0
DWIDTH 6 0
BBX 4 5 1 3
BITMAP
70
50
B0
90
E0
ENDCHAR
STARTCHAR apostrophemod
ENCODING 700
SWIDTH 600 0
DWIDTH 6 0
BBX 4 5 1 5
BITMAP
70
B0
90
F0
E0
ENDCHAR
STARTCHAR ringhalfright
ENCODING 702
SWIDTH 412 0
DWIDTH 4 0
BBX 4 5 0 3
BITMAP
70
D0
90
B0
E0
ENDCHAR
STARTCHAR ringhalfleft
ENCODING 703
SWIDTH 412 0
DWIDTH 4 0
BBX 4 5 0 3
BITMAP
70
B0
B0
F0
E0
ENDCHAR
STARTCHAR circumflex
ENCODING 710
SWIDTH 600 0
DWIDTH 6 0
BBX 6 4 0 7
BITMAP
10
7C
D4
F8
ENDCHAR
STARTCHAR caron
ENCODING 711
SWIDTH 600 0
DWIDTH 6 0
BBX 6 4 0 7
BITMAP
40
7C
FC
F8
ENDCHAR
STARTCHAR verticallinemod
ENCODING 712
SWIDTH 456 0
DWIDTH 5 0
BBX 4 5 0 3
BITMAP
70
F0
F0
D0
F0
ENDCHAR
STARTCHAR firsttonechinese
ENCODING 713
SWIDTH 600 0
DWIDTH 6 0
BBX 6 3 0 7
BITMAP
3C
FC
F8
ENDCHAR
STARTCHAR secondtonechinese
ENCODING 714
SWIDTH 600 0
DWIDTH 6 0
BBX 6 3 0 7
BITMAP
7C
C4
F8
ENDCHAR
STARTCHAR fourthtonechinese
ENCODING 715
SWIDTH 600 0
DWIDTH 6 0
BBX 6 3 0 7
BITMAP
7C
C4
F8
ENDCHAR
STARTCHAR verticallinelowmod
ENCODING 716
SWIDTH 456 0
DWIDTH 5 0
BBX 4 5 0 -2
BITMAP
70
F0
F0
D0
F0
ENDCHAR
STARTCHAR breve
ENCODING 728
SWIDTH 600 0
DWIDTH 6 0
BBX 6 4 0 7
BITMAP
2C
54
FC
F8
ENDCHAR
STARTCHAR dotaccent
ENCODING 729
SWIDTH 600 0
DWIDTH 6 0
BBX 4 4 1 7
BITMAP
30
70
D0
E0
ENDCHAR
STARTCHAR ring
ENCODING 730
SWIDTH 600 0
DWIDTH 6 0
BBX 6 6 0 7
BITMAP
30
5C
B4
A4
DC
F8
ENDCHAR
STARTCHAR ogonek
ENCODING 731
SWIDTH 600 0
DWIDTH 6 0
BBX 4 4 1 -3
BITMAP
30
F0
D0
E0
ENDCHAR
STARTCHAR tilde
ENCODING 732
SWIDTH 600 0
DWIDTH 6 0
BBX 6 4 0 7
BITMAP
24
7C
C4
F8
ENDCHAR
STARTCHAR hungarumlaut
ENCODING 733
SWIDTH 600 0
DWIDTH 6 0
BBX 6 5 0 7
BITMAP
2C
54
BC
94
F8
ENDCHAR
STARTCHAR gravecmb
ENCODING 768
SWIDTH 100 0
DWIDTH 1 0
BBX 5 3 -2 7
BITMAP
F8
C8
F8
ENDCHAR
STARTCHAR acutecmb
ENCODING 769
SWIDTH 100 0
DWIDTH 1 0
BBX 5 3 -2 7
BITMAP
F8
88
F0
ENDCHAR
STARTCHAR circumflexcmb
ENCODING 770
SWIDTH 100 0
DWIDTH 1 0
BBX 5 4 -2 7
BITMAP
10
F8
98
F8
ENDCHAR
STARTCHAR tildecmb
ENCODING 771
SWIDTH 100 0
DWIDTH 1 0
BBX 5 4 -2 7
BITMAP
68
B8
88
F0
ENDCHAR
STARTCHAR uni0304
ENCODING 772
SWIDTH 600 0
DWIDTH 6 0
BBX 6 3 0 7
BITMAP
3C
FC
F8
ENDCHAR
STARTCHAR brevecmb
ENCODING 774
SWIDTH 100 0
DWIDTH 1 0
BBX 5 4 -2 7
BITMAP
68
D8
B8
F0
ENDCHAR
STARTCHAR dotaccentcmb
ENCODING 775
SWIDTH 100 0
DWIDTH 1 0
BBX 3 4 -1 7
BITMAP
60
A0
A0
E0
ENDCHAR
STARTCHAR dieresiscmb
ENCODING 776
SWIDTH 100 0
DWIDTH 1 0
BBX 7 4 -3 7
BITMAP
34
6E
CA
FC
ENDCHAR
STARTCHAR hookcmb
ENCODING 777
SWIDTH 100 0
DWIDTH 1 0
BBX 4 5 -1 7
BITMAP
60
F0
D0
F0
E0
ENDCHAR
STARTCHAR ringcmb
ENCODING 778
SWIDTH 100 0
DWIDTH 1 0
BBX 5 6 -2 7
BITMAP
70
B8
D8
C8
B8
F0
ENDCHAR
STARTCHAR hungarumlautcmb
ENCODING 779
SWIDTH 100 0
DWIDTH 1 0
BBX 6 5 -2 7
BITMAP
2C
54
BC
94
F8
ENDCHAR
STARTCHAR caroncmb
ENCODING 780
SWIDTH 100 0
DWIDTH 1 0
BBX 5 4 -2 7
BITMAP
40
B8
B8
F0
ENDCHAR
STARTCHAR horncmb
ENCODING 795
SWIDTH 100 0
DWIDTH 1 0
BBX 3 4 -1 5
BITMAP
60
A0
E0
80
ENDCHAR
STARTCHAR dotbelowcmb
ENCODING 803
SWIDTH 100 0
DWIDTH 1 0
BBX 3 4 -1 -4
BITMAP
60
A0
A0
E0
ENDCHAR
STARTCHAR dieresisbelowcmb
ENCODING 804
SWIDTH 100 0
DWIDTH 1 0
BBX 7 4 -3 -3
BITMAP
34
6E
CA
FC
ENDCHAR
STARTCHAR commaaccent
ENCODING 806
SWIDTH 600 0
DWIDTH 6 0
BBX 4 5 1 -4
BITMAP
70
B0
90
F0
E0
ENDCHAR
STARTCHAR cedillacmb
ENCODING 807
SWIDTH 100 0
DWIDTH 1 0
BBX 5 4 -2 -2
BITMAP
38
50
50
E0
ENDCHAR
STARTCHAR ogonekcmb
ENCODING 808
SWIDTH 100 0
DWIDTH 1 0
BBX 4 4 -1 -3
BITMAP
60
B0
90
E0
ENDCHAR
STARTCHAR brevebelowcmb
ENCODING 814
SWIDTH 100 0
DWIDTH 1 0
BBX 5 4 -2 -4
BITMAP
68
D8
B8
F0
ENDCHAR
STARTCHAR macronbelowcmb
ENCODING 817
SWIDTH 100 0
DWIDTH 1 0
BBX 5 3 -2 -4
BITMAP
78
B8
F8
ENDCHAR
STARTCHAR uni0394
ENCODING 916
SWIDTH 830 0
DWIDTH 8 0
BBX 8 9 0 -1
BITMAP
3E
3E
5A
5B
5B
6F
FF
C1
FE
ENDCHAR
STARTCHAR uni03A9
ENCODING 937
SWIDTH 877 0
DWIDTH 9 0
BBX 9 9 0 -1
BITMAP
3F00
5E80
5E80
5D00
5D00
5E80
7780
C480
FF00
ENDCHAR
STARTCHAR uni03BC
ENCODING 956
SWIDTH 813 0
DWIDTH 8 0
BBX 8 9 0 -2
BITMAP
37
49
EB
EB
EB
FD
E3
DC
E0
ENDCHAR
STARTCHAR pi
ENCODING 960
SWIDTH 821 0
DWIDTH 8 0
BBX 8 7 0 -1
BITMAP
7F
E3
EB
EB
EB
C9
FE
ENDCHAR
STARTCHAR Ddotbelow
ENCODING 7692
SWIDTH 846 0
DWIDTH 8 0
BBX 8 11 0 -3
BITMAP
7F
DD
EF
EF
EF
EF
DD
FE
F2
3A
3C
ENDCHAR
STARTCHAR ddotbelow
ENCODING 7693
SWIDTH 846 0
DWIDTH 8 0
BBX 8 11 0 -3
BITMAP
7F
DD
EF
EF
EF
EF
DD
FE
F2
3A
3C
ENDCHAR
STARTCHAR Dlinebelow
ENCODING 7694
SWIDTH 846 0
DWIDTH 8 0
BBX 8 11 0 -3
BITMAP
7F
DD
EF
EF
EF
EF
DD
C1
FE
6E
7C
ENDCHAR
STARTCHAR dlinebelow
ENCODING 7695
SWIDTH 846 0
DWIDTH 8 0
BBX 8 11 0 -3
BITMAP
7F
DD
EF
EF
EF
EF
DD
C1
FE
6E
7C
ENDCHAR
STARTCHAR Gmacron
ENCODING 7712
SWIDTH 808 0
DWIDTH 8 0
BBX 8 12 0 -1
BITMAP
1E
2D
61
7F
5D
6E
EF
EB
EB
DF
E1
7E
ENDCHAR
STARTCHAR gmacron
ENCODING 7713
SWIDTH 808 0
DWIDTH 8 0
BBX 8 12 0 -1
BITMAP
1E
2D
61
7F
5D
6E
EF
EB
EB
DF
E1
7E
ENDCHAR
STARTCHAR Hdotbelow
ENCODING 7716
SWIDTH 859 0
DWIDTH 9 0
BBX 8 11 0 -3
BITMAP
7F
EF
EF
DF
E3
EF
EF
CD
FE
3A
3C
ENDCHAR
STARTCHAR hdotbelow
ENCODING 7717
SWIDTH 859 0
DWIDTH 9 0
BBX 8 11 0 -3
BITMAP
7F
EF
EF
DF
E3
EF
EF
CD
FE
3A
3C
ENDCHAR
STARTCHAR Hbrevebelow
ENCODING 7722
SWIDTH 859 0
DWIDTH 9 0
BBX 8 11 0 -3
BITMAP
7F
EF
EF
DF
E3
EF
EF
CD
FE
6D
7E
ENDCHAR
STARTCHAR hbrevebelow
ENCODING 7723
SWIDTH 859 0
DWIDTH 9 0
BBX 8 11 0 -3
BITMAP
7F
EF
EF
DF
E3
EF
EF
CD
FE
6D
7E
ENDCHAR
STARTCHAR Ldotbelow
ENCODING 7734
SWIDTH 795 0
DWIDTH 8 0
BBX 8 11 0 -3
BITMAP
78
E8
E8
EF
EB
EB
DF
FF
F2
3C
38
ENDCHAR
STARTCHAR ldotbelow
ENCODING 7735
SWIDTH 795 0
DWIDTH 8 0
BBX 8 11 0 -3
BITMAP
78
E8
E8
EF
EB
EB
DF
FF
F2
3C
38
ENDCHAR
STARTCHAR Ldotbelowmacron
ENCODING 7736
SWIDTH 795 0
DWIDTH 8 0
BBX 8 14 0 -3
BITMAP
1E
3E
62
5C
E8
E8
EF
EB
EB
DF
FF
F2
3C
38
ENDCHAR
STARTCHAR ldotbelowmacron
ENCODING 7737
SWIDTH 795 0
DWIDTH 8 0
BBX 8 14 0 -3
BITMAP
1E
3E
62
5C
E8
E8
EF
EB
EB
DF
FF
F2
3C
38
ENDCHAR
STARTCHAR Llinebelow
ENCODING 7738
SWIDTH 795 0
DWIDTH 8 0
BBX 8 11 0 -3
BITMAP
78
E8
E8
EF
EB
EB
DF
FF
FE
62
7C
ENDCHAR
STARTCHAR llinebelow
ENCODING 7739
SWIDTH 795 0
DWIDTH 8 0
BBX 8 11 0 -3
BITMAP
78
E8
E8
EF
EB
EB
DF
FF
FE
62
7C
ENDCHAR
STARTCHAR Mdotbelow
ENCODING 7746
SWIDTH 949 0
DWIDTH 9 0
BBX 9 11 0 -3
BITMAP
7B80
D580
EB80
EF80
EB80
EF80
EF80
DE80
EF00
1600
1C00
ENDCHAR
STARTCHAR mdotbelow
ENCODING 7747
SWIDTH 949 0
DWIDTH 9 0
BBX 9 11 0 -3
BITMAP
7B80
D580
EB80
EF80
EB80
EF80
EF80
DE80
EF00
1600
1C00
ENDCHAR
STARTCHAR Ndotaccent
ENCODING 7748
SWIDTH 853 0
DWIDTH 9 0
BBX 8 12 0 -1
BITMAP
0C
1A
32
4D
F7
EF
E7
EF
EB
EF
DD
EE
ENDCHAR
STARTCHAR ndotaccent
ENCODING 7749
SWIDTH 853 0
DWIDTH 9 0
BBX 8 12 0 -1
BITMAP
0C
1A
32
4D
F7
EF
E7
EF
EB
EF
DD
EE
ENDCHAR
STARTCHAR Ndotbelow
ENCODING 7750
SWIDTH 853 0
DWIDTH 9 0
BBX 8 11 0 -3
BITMAP
77
DF
EF
E7
EF
EB
EF
DD
EE
3A
3C
ENDCHAR
STARTCHAR ndotbelow
ENCODING 7751
SWIDTH 853 0
DWIDTH 9 0
BBX 8 11 0 -3
BITMAP
77
DF
EF
E7
EF
EB
EF
DD
EE
3A
3C
ENDCHAR
STARTCHAR Nlinebelow
ENCODING 7752
SWIDTH 853 0
DWIDTH 9 0
BBX 8 11 0 -3
BITMAP
77
DF
EF
E7
EF
EB
EF
CD
FE
61
7E
ENDCHAR
STARTCHAR nlinebelow
ENCODING 7753
SWIDTH 853 0
DWIDTH 9 0
BBX 8 11 0 -3
BITMAP
77
DF
EF
E7
EF
EB
EF
CD
FE
61
7E
ENDCHAR
STARTCHAR Rdotbelow
ENCODING 7770
SWIDTH 843 0
DWIDTH 8 0
BBX 8 11 0 -3
BITMAP
7F
DD
EB
E2
DF
ED
ED
DD
EE
14
3C
ENDCHAR
STARTCHAR rdotbelow
ENCODING 7771
SWIDTH 843 0
DWIDTH 8 0
BBX 8 11 0 -3
BITMAP
7F
DD
EB
E2
DF
ED
ED
DD
EE
14
3C
ENDCHAR
STARTCHAR Rdotbelowmacron
ENCODING 7772
SWIDTH 843 0
DWIDTH 8 0
BBX 8 14 0 -3
BITMAP
3C
5E
42
7E
5D
EB
E2
DF
ED
ED
DD
EE
14
3C
ENDCHAR
STARTCHAR rdotbelowmacron
ENCODING 7773
SWIDTH 843 0
DWIDTH 8 0
BBX 8 14 0 -3
BITMAP
3C
5E
42
7E
5D
EB
E2
DF
ED
ED
DD
EE
14
3C
ENDCHAR
STARTCHAR Rlinebelow
ENCODING 7774
SWIDTH 843 0
DWIDTH 8 0
BBX 8 11 0 -3
BITMAP
7F
E3
EB
E2
DD
E3
ED
CD
FE
61
7E
ENDCHAR
STARTCHAR rlinebelow
ENCODING 7775
SWIDTH 843 0
DWIDTH 8 0
BBX 8 11 0 -3
BITMAP
7F
E3
EB
E2
DD
E3
ED
CD
FE
61
7E
ENDCHAR
STARTCHAR Sdotaccent
ENCODING 7776
SWIDTH 750 0
DWIDTH 8 0
BBX 7 12 0 -1
BITMAP
18
2C
24
3A
5E
EC
FA
C6
7A
5E
C2
FC
ENDCHAR
STARTCHAR sdotaccent
ENCODING 7777
SWIDTH 750 0
DWIDTH 8 0
BBX 7 12 0 -1
BITMAP
18
2C
24
3A
5E
EC
FA
C6
7A
5E
C2
FC
ENDCHAR
STARTCHAR Sdotbelow
ENCODING 7778
SWIDTH 750 0
DWIDTH 8 0
BBX 7 11 0 -3
BITMAP
3E
5E
EC
FA
C6
7A
5E
FC
E4
2C
38
ENDCHAR
STARTCHAR sdotbelow
ENCODING 7779
SWIDTH 750 0
DWIDTH 8 0
BBX 7 11 0 -3
BITMAP
3E
5E
EC
FA
C6
7A
5E
FC
E4
2C
38
ENDCHAR
STARTCHAR Tdotbelow
ENCODING 7788
SWIDTH 756 0
DWIDTH 8 0
BBX 8 11 0 -3
BITMAP
7F
BF
EA
2C
2C
2C
24
38
24
2C
38
ENDCHAR
STARTCHAR tdotbelow
ENCODING 7789
SWIDTH 756 0
DWIDTH 8 0
BBX 8 11 0 -3
BITMAP
7F
BF
EA
2C
2C
2C
24
38
24
2C
38
ENDCHAR
STARTCHAR Tlinebelow
ENCODING 7790
SWIDTH 756 0
DWIDTH 8 0
BBX 8 11 0 -3
BITMAP
7F
89
EA
2C
2C
2C
2C
24
3C
42
7C
ENDCHAR
STARTCHAR tlinebelow
ENCODING 7791
SWIDTH 756 0
DWIDTH 8 0
BBX 8 11 0 -3
BITMAP
7F
89
EA
2C
2C
2C
2C
24
3C
42
7C
ENDCHAR
STARTCHAR Wgrave
ENCODING 7808
SWIDTH 931 0
DWIDTH 9 0
BBX 9 11 0 -1
BITMAP
3E00
2100
5E80
EF80
EF80
EB80
EF80
D380
D580
4C80
7700
ENDCHAR
STARTCHAR wgrave
ENCODING 7809
SWIDTH 931 0
DWIDTH 9 0
BBX 9 11 0 -1
BITMAP
3E00
2100
5E80
EF80
EF80
EB80
EF80
D380
D580
4C80
7700
ENDCHAR
STARTCHAR Wacute
ENCODING 7810
SWIDTH 931 0
DWIDTH 9 0
BBX 9 11 0 -1
BITMAP
1F00
2100
5E80
EF80
EF80
EB80
EF80
D380
D580
4C80
7700
ENDCHAR
STARTCHAR wacute
ENCODING 7811
SWIDTH 931 0
DWIDTH 9 0
BBX 9 11 0 -1
BITMAP
1F00
2100
5E80
EF80
EF80
EB80
EF80
D380
D580
4C80
7700
ENDCHAR
STARTCHAR Wdieresis
ENCODING 7812
SWIDTH 931 0
DWIDTH 9 0
BBX 9 12 0 -1
BITMAP
1A00
3700
2500
5E80
6F80
EF80
EB80
EF80
D380
D580
4C80
7700
ENDCHAR
STARTCHAR wdieresis
ENCODING 7813
SWIDTH 931 0
DWIDTH 9 0
BBX 9 12 0 -1
BITMAP
1A00
3700
2500
5E80
6F80
EF80
EB80
EF80
D380
D580
4C80
7700
ENDCHAR
STARTCHAR Ydotaccent
ENCODING 7822
SWIDTH 805 0
DWIDTH 8 0
BBX 8 12 0 -1
BITMAP
0C
1C
34
4F
EF
EB
D3
EE
6A
3C
34
38
ENDCHAR
STARTCHAR ydotaccent
ENCODING 7823
SWIDTH 805 0
DWIDTH 8 0
BBX 8 12 0 -1
BITMAP
0C
1C
34
4F
EF
EB
D3
EE
6A
3C
34
38
ENDCHAR
STARTCHAR Zdotbelow
ENCODING 7826
SWIDTH 760 0
DWIDTH 8 0
BBX 7 11 0 -3
BITMAP
7E
DE
F6
2A
34
56
DE
FE
E2
2C
38
ENDCHAR
STARTCHAR zdotbelow
ENCODING 7827
SWIDTH 760 0
DWIDTH 8 0
BBX 7 11 0 -3
BITMAP
7E
DE
F6
2A
34
56
DE
FE
E2
2C
38
ENDCHAR
STARTCHAR tdieresis
ENCODING 7831
SWIDTH 756 0
DWIDTH 8 0
BBX 8 12 0 -1
BITMAP
36
5E
4A
75
BF
EA
2C
2C
2C
2C
24
38
ENDCHAR
STARTCHAR Germandbls
ENCODING 7838
SWIDTH 859 0
DWIDTH 9 0
BBX 9 9 0 -1
BITMAP
7F00
DD00
DB00
DA80
D900
DD80
DA80
C900
FE00
ENDCHAR
STARTCHAR Adotbelow
ENCODING 7840
SWIDTH 830 0
DWIDTH 8 0
BBX 8 11 0 -3
BITMAP
3E
2D
5A
6B
5F
E3
EF
DD
EE
3C
38
ENDCHAR
STARTCHAR adotbelow
ENCODING 7841
SWIDTH 830 0
DWIDTH 8 0
BBX 8 11 0 -3
BITMAP
3E
2D
5A
6B
5F
E3
EF
DD
EE
3C
38
ENDCHAR
STARTCHAR Ahookabove
ENCODING 7842
SWIDTH 830 0
DWIDTH 8 0
BBX 8 13 0 -1
BITMAP
1C
2C
34
1C
22
2D
5A
6B
5F
E3
EF
DD
EE
ENDCHAR
STARTCHAR ahookabove
ENCODING 7843
SWIDTH 830 0
DWIDTH 8 0
BBX 8 13 0 -1
BITMAP
1C
2C
34
1C
22
2D
5A
6B
5F
E3
EF
DD
EE
ENDCHAR
STARTCHAR Acircumflexacute
ENCODING 7844
SWIDTH 830 0
DWIDTH 8 0
BBX 8 14 0 -1
BITMAP
06
09
1E
2A
7E
62
2D
5B
6B
5F
E3
EF
DD
EE
ENDCHAR
STARTCHAR acircumflexacute
ENCODING 7845
SWIDTH 830 0
DWIDTH 8 0
BBX 8 14 0 -1
BITMAP
06
09
1E
2A
7E
62
2D
5B
6B
5F
E3
EF
DD
EE
ENDCHAR
STARTCHAR Acircumflexgrave
ENCODING 7846
SWIDTH 830 0
DWIDTH 8 0
BBX 8 14 0 -1
BITMAP
04
0A
1D
2A
7E
62
2D
5B
6B
5F
E3
EF
DD
EE
ENDCHAR
STARTCHAR acircumflexgrave
ENCODING 7847
SWIDTH 830 0
DWIDTH 8 0
BBX 8 14 0 -1
BITMAP
04
0A
1D
2A
7E
62
2D
5B
6B
5F
E3
EF
DD
EE
ENDCHAR
STARTCHAR Acircumflexhookabove
ENCODING 7848
SWIDTH 830 0
DWIDTH 8 0
BBX 8 15 0 -1
BITMAP
07
0F
0F
1F
2A
7E
62
2D
5B
6B
5F
E3
EF
DD
EE
ENDCHAR
STARTCHAR acircumflexhookabove
ENCODING 7849
SWIDTH 830 0
DWIDTH 8 0
BBX 8 15 0 -1
BITMAP
07
0F
0F
1F
2A
7E
62
2D
5B
6B
5F
E3
EF
DD
EE
ENDCHAR
STARTCHAR Acircumflextilde
ENCODING 7850
SWIDTH 830 0
DWIDTH 8 0
BBX 8 15 0 -1
BITMAP
12
2E
62
7C
2A
7E
62
2D
5B
6B
5F
E3
EF
DD
EE
ENDCHAR
STARTCHAR acircumflextilde
ENCODING 7851
SWIDTH 830 0
DWIDTH 8 0
BBX 8 15 0 -1
BITMAP
12
2E
62
7C
2A
7E
62
2D
5B
6B
5F
E3
EF
DD
EE
ENDCHAR
STARTCHAR Acircumflexdotbelow
ENCODING 7852
SWIDTH 830 0
DWIDTH 8 0
BBX 8 14 0 -3
BITMAP
1C
2A
7E
62
2D
5B
6B
5F
E3
EF
DD
EE
3C
38
ENDCHAR
STARTCHAR acircumflexdotbelow
ENCODING 7853
SWIDTH 830 0
DWIDTH 8 0
BBX 8 14 0 -3
BITMAP
1C
2A
7E
62
2D
5B
6B
5F
E3
EF
DD
EE
3C
38
ENDCHAR
STARTCHAR Abreveacute
ENCODING 7854
SWIDTH 830 0
DWIDTH 8 0
BBX 8 14 0 -1
BITMAP
0C
12
12
2D
62
7E
2D
5A
6B
5F
E3
EF
DD
EE
ENDCHAR
STARTCHAR abreveacute
ENCODING 7855
SWIDTH 830 0
DWIDTH 8 0
BBX 8 14 0 -1
BITMAP
0C
12
12
2D
62
7E
2D
5A
6B
5F
E3
EF
DD
EE
ENDCHAR
STARTCHAR Abrevegrave
ENCODING 7856
SWIDTH 830 0
DWIDTH 8 0
BBX 8 14 0 -1
BITMAP
18
24
26
7D
62
7E
2D
5A
6B
5F
E3
EF
DD
EE
ENDCHAR
STARTCHAR abrevegrave
ENCODING 7857
SWIDTH 830 0
DWIDTH 8 0
BBX 8 14 0 -1
BITMAP
18
24
26
7D
62
7E
2D
5A
6B
5F
E3
EF
DD
EE
ENDCHAR
STARTCHAR Abrevehookabove
ENCODING 7858
SWIDTH 830 0
DWIDTH 8 0
BBX 8 15 0 -1
BITMAP
0C
1A
36
1E
2D
62
7E
2D
5A
6B
5F
E3
EF
DD
EE
ENDCHAR
STARTCHAR abrevehookabove
ENCODING 7859
SWIDTH 830 0
DWIDTH 8 0
BBX 8 15 0 -1
BITMAP
0C
1A
36
1E
2D
62
7E
2D
5A
6B
5F
E3
EF
DD
EE
ENDCHAR
STARTCHAR Abrevetilde
ENCODING 7860
SWIDTH 830 0
DWIDTH 8 0
BBX 8 15 0 -1
BITMAP
12
2E
62
7E
6D
62
7E
2D
5A
6B
5F
E3
EF
DD
EE
ENDCHAR
STARTCHAR abrevetilde
ENCODING 7861
SWIDTH 830 0
DWIDTH 8 0
BBX 8 15 0 -1
BITMAP
12
2E
62
7E
6D
62
7E
2D
5A
6B
5F
E3
EF
DD
EE
ENDCHAR
STARTCHAR Abrevedotbelow
ENCODING 7862
SWIDTH 830 0
DWIDTH 8 0
BBX 8 14 0 -3
BITMAP
16
2D
62
7E
2D
5A
6B
5F
E3
EF
DD
EE
3C
38
ENDCHAR
STARTCHAR abrevedotbelow
ENCODING 7863
SWIDTH 830 0
DWIDTH 8 0
BBX 8 14 0 -3
BITMAP
16
2D
62
7E
2D
5A
6B
5F
E3
EF
DD
EE
3C
38
ENDCHAR
STARTCHAR Edotbelow
ENCODING 7864
SWIDTH 754 0
DWIDTH 8 0
BBX 7 11 0 -3
BITMAP
7E
DE
EE
DA
E2
EE
DE
FE
E2
2C
38
ENDCHAR
STARTCHAR edotbelow
ENCODING 7865
SWIDTH 754 0
DWIDTH 8 0
BBX 7 11 0 -3
BITMAP
7E
DE
EE
DA
E2
EE
DE
FE
E2
2C
38
ENDCHAR
STARTCHAR Ehookabove
ENCODING 7866
SWIDTH 754 0
DWIDTH 8 0
BBX 7 13 0 -1
BITMAP
1C
2A
34
3C
42
DE
EE
DA
E2
EE
DE
C2
FC
ENDCHAR
STARTCHAR ehookabove
ENCODING 7867
SWIDTH 754 0
DWIDTH 8 0
BBX 7 13 0 -1
BITMAP
1C
2A
34
3C
42
DE
EE
DA
E2
EE
DE
C2
FC
ENDCHAR
STARTCHAR Etilde
ENCODING 7868
SWIDTH 754 0
DWIDTH 8 0
BBX 7 12 0 -1
BITMAP
1A
36
5A
66
DE
EE
DA
E2
EE
DE
C2
FC
ENDCHAR
STARTCHAR etilde
ENCODING 7869
SWIDTH 754 0
DWIDTH 8 0
BBX 7 12 0 -1
BITMAP
1A
36
5A
66
DE
EE
DA
E2
EE
DE
C2
FC
ENDCHAR
STARTCHAR Ecircumflexacute
ENCODING 7870
SWIDTH 754 0
DWIDTH 8 0
BBX 7 14 0 -1
BITMAP
06
0A
1E
2A
7E
42
DE
EE
DA
E2
EE
DE
C2
FC
ENDCHAR
STARTCHAR ecircumflexacute
ENCODING 7871
SWIDTH 754 0
DWIDTH 8 0
BBX 7 14 0 -1
BITMAP
06
0A
1E
2A
7E
42
DE
EE
DA
E2
EE
DE
C2
FC
ENDCHAR
STARTCHAR Ecircumflexgrave
ENCODING 7872
SWIDTH 754 0
DWIDTH 8 0
BBX 7 14 0 -1
BITMAP
04
0A
1E
2A
7E
42
DE
EE
DA
E2
EE
DE
C2
FC
ENDCHAR
STARTCHAR ecircumflexgrave
ENCODING 7873
SWIDTH 754 0
DWIDTH 8 0
BBX 7 14 0 -1
BITMAP
04
0A
1E
2A
7E
42
DE
EE
DA
E2
EE
DE
C2
FC
ENDCHAR
STARTCHAR Ecircumflexhookabove
ENCODING 7874
SWIDTH 754 0
DWIDTH 8 0
BBX 8 15 0 -1
BITMAP
06
0F
0B
16
2A
7E
41
DD
EE
DA
E2
EE
DD
C1
FE
ENDCHAR
STARTCHAR ecircumflexhookabove
ENCODING 7875
SWIDTH 754 0
DWIDTH 8 0
BBX 8 15 0 -1
BITMAP
06
0F
0B
16
2A
7E
41
DD
EE
DA
E2
EE
DD
C1
FE
ENDCHAR
STARTCHAR Ecircumflextilde
ENCODING 7876
SWIDTH 754 0
DWIDTH 8 0
BBX 7 15 0 -1
BITMAP
12
3E
42
7C
4A
7E
42
DE
EE
DA
E2
EE
DE
C2
FC
ENDCHAR
STARTCHAR ecircumflextilde
ENCODING 7877
SWIDTH 754 0
DWIDTH 8 0
BBX 7 15 0 -1
BITMAP
12
3E
42
7C
4A
7E
42
DE
EE
DA
E2
EE
DE
C2
FC
ENDCHAR
STARTCHAR Ecircumflexdotbelow
ENCODING 7878
SWIDTH 754 0
DWIDTH 8 0
BBX 7 14 0 -3
BITMAP
1C
2A
7E
42
DE
EE
DA
E2
EE
DE
FE
E4
2C
38
ENDCHAR
STARTCHAR ecircumflexdotbelow
ENCODING 7879
SWIDTH 754 0
DWIDTH 8 0
BBX 7 14 0 -3
BITMAP
1C
2A
7E
42
DE
EE
DA
E2
EE
DE
FE
E4
2C
38
ENDCHAR
STARTCHAR Ihookabove
ENCODING 7880
SWIDTH 705 0
DWIDTH 7 0
BBX 7 13 0 -1
BITMAP
18
3C
64
3C
42
DE
EC
28
28
2E
5E
C2
FC
ENDCHAR
STARTCHAR ihookabove
ENCODING 7881
SWIDTH 705 0
DWIDTH 7 0
BBX 7 13 0 -1
BITMAP
18
3C
64
3C
42
DE
EC
28
28
2E
5E
C2
FC
ENDCHAR
STARTCHAR Idotbelow
ENCODING 7882
SWIDTH 705 0
DWIDTH 7 0
BBX 7 11 0 -3
BITMAP
7E
DE
EC
28
28
2E
5E
FE
E4
28
38
ENDCHAR
STARTCHAR idotbelow
ENCODING 7883
SWIDTH 705 0
DWIDTH 7 0
BBX 7 11 0 -3
BITMAP
7E
DE
EC
28
28
2E
5E
FE
E4
28
38
ENDCHAR
STARTCHAR Odotbelow
ENCODING 7884
SWIDTH 837 0
DWIDTH 8 0
BBX 8 12 0 -4
BITMAP
3F
5D
EF
EF
EF
EF
E3
DD
7E
1A
32
3C
ENDCHAR
STARTCHAR odotbelow
ENCODING 7885
SWIDTH 837 0
DWIDTH 8 0
BBX 8 12 0 -4
BITMAP
3F
5D
EF
EF
EF
EF
E3
DD
7E
1A
32
3C
ENDCHAR
STARTCHAR Ohookabove
ENCODING 7886
SWIDTH 837 0
DWIDTH 8 0
BBX 8 13 0 -1
BITMAP
1C
2C
34
1C
3F
63
EF
EF
EF
EF
DD
62
7C
ENDCHAR
STARTCHAR ohookabove
ENCODING 7887
SWIDTH 837 0
DWIDTH 8 0
BBX 8 13 0 -1
BITMAP
1C
2C
34
1C
3F
63
EF
EF
EF
EF
DD
62
7C
ENDCHAR
STARTCHAR Ocircumflexacute
ENCODING 7888
SWIDTH 837 0
DWIDTH 8 0
BBX 8 14 0 -1
BITMAP
06
09
16
2A
7E
5D
63
EF
EF
EF
EF
DD
62
7C
ENDCHAR
STARTCHAR ocircumflexacute
ENCODING 7889
SWIDTH 837 0
DWIDTH 8 0
BBX 8 14 0 -1
BITMAP
06
09
16
2A
7E
5D
63
EF
EF
EF
EF
DD
62
7C
ENDCHAR
STARTCHAR Ocircumflexgrave
ENCODING 7890
SWIDTH 837 0
DWIDTH 8 0
BBX 8 14 0 -1
BITMAP
06
0A
15
2A
7E
5D
63
EF
EF
EF
EF
DD
62
7C
ENDCHAR
STARTCHAR ocircumflexgrave
ENCODING 7891
SWIDTH 837 0
DWIDTH 8 0
BBX 8 14 0 -1
BITMAP
06
0A
15
2A
7E
5D
63
EF
EF
EF
EF
DD
62
7C
ENDCHAR
STARTCHAR Ocircumflexhookabove
ENCODING 7892
SWIDTH 837 0
DWIDTH 8 0
BBX 8 15 0 -1
BITMAP
07
0F
0F
17
2A
7E
5D
63
EF
EF
EF
EF
DD
62
7C
ENDCHAR
STARTCHAR ocircumflexhookabove
ENCODING 7893
SWIDTH 837 0
DWIDTH 8 0
BBX 8 15 0 -1
BITMAP
07
0F
0F
17
2A
7E
5D
63
EF
EF
EF
EF
DD
62
7C
ENDCHAR
STARTCHAR Ocircumflextilde
ENCODING 7894
SWIDTH 837 0
DWIDTH 8 0
BBX 8 15 0 -1
BITMAP
12
2E
62
7C
2A
7E
5D
63
EF
EF
EF
EF
DD
62
7C
ENDCHAR
STARTCHAR ocircumflextilde
ENCODING 7895
SWIDTH 837 0
DWIDTH 8 0
BBX 8 15 0 -1
BITMAP
12
2E
62
7C
2A
7E
5D
63
EF
EF
EF
EF
DD
62
7C
ENDCHAR
STARTCHAR Ocircumflexdotbelow
ENCODING 7896
SWIDTH 837 0
DWIDTH 8 0
BBX 8 15 0 -4
BITMAP
08
3E
22
7E
5D
63
EF
EF
EF
EF
DD
7E
1A
32
3C
ENDCHAR
STARTCHAR ocircumflexdotbelow
ENCODING 7897
SWIDTH 837 0
DWIDTH 8 0
BBX 8 15 0 -4
BITMAP
08
3E
22
7E
5D
63
EF
EF
EF
EF
DD
7E
1A
32
3C
ENDCHAR
STARTCHAR Ohornacute
ENCODING 7898
SWIDTH 847 0
DWIDTH 8 0
BBX 9 11 0 -1
BITMAP
3F00
4280
3F80
6300
EF00
EF00
EF00
EF00
DD00
E200
7C00
ENDCHAR
STARTCHAR ohornacute
ENCODING 7899
SWIDTH 847 0
DWIDTH 8 0
BBX 9 11 0 -1
BITMAP
3F00
4280
3F80
6300
EF00
EF00
EF00
EF00
DD00
E200
7C00
ENDCHAR
STARTCHAR Ohorngrave
ENCODING 7900
SWIDTH 847 0
DWIDTH 8 0
BBX 9 12 0 -1
BITMAP
3C00
4F00
4280
3F80
6300
EF00
EF00
EF00
EF00
DD00
E200
7C00
ENDCHAR
STARTCHAR ohorngrave
ENCODING 7901
SWIDTH 847 0
DWIDTH 8 0
BBX 9 12 0 -1
BITMAP
3C00
4F00
4280
3F80
6300
EF00
EF00
EF00
EF00
DD00
E200
7C00
ENDCHAR
STARTCHAR Ohornhookabove
ENCODING 7902
SWIDTH 847 0
DWIDTH 8 0
BBX 9 13 0 -1
BITMAP
1C00
2C00
3B00
3680
3B80
6300
EF00
EF00
EF00
EF00
DD00
E200
7C00
ENDCHAR
STARTCHAR ohornhookabove
ENCODING 7903
SWIDTH 847 0
DWIDTH 8 0
BBX 9 13 0 -1
BITMAP
1C00
2C00
3B00
3680
3B80
6300
EF00
EF00
EF00
EF00
DD00
E200
7C00
ENDCHAR
STARTCHAR Ohorntilde
ENCODING 7904
SWIDTH 847 0
DWIDTH 8 0
BBX 9 12 0 -1
BITMAP
3200
4D00
4280
3F80
6300
EF00
EF00
EF00
EF00
DD00
E200
7C00
ENDCHAR
STARTCHAR ohorntilde
ENCODING 7905
SWIDTH 847 0
DWIDTH 8 0
BBX 9 12 0 -1
BITMAP
3200
4D00
4280
3F80
6300
EF00
EF00
EF00
EF00
DD00
E200
7C00
ENDCHAR
STARTCHAR Ohorndotbelow
ENCODING 7906
SWIDTH 847 0
DWIDTH 8 0
BBX 9 12 0 -3
BITMAP
0300
3D80
5E80
EF00
EF00
EF00
EF00
DD00
C100
7E00
1A00
3C00
ENDCHAR
STARTCHAR ohorndotbelow
ENCODING 7907
SWIDTH 847 0
DWIDTH 8 0
BBX 9 12 0 -3
BITMAP
0300
3D80
5E80
EF00
EF00
EF00
EF00
DD00
C100
7E00
1A00
3C00
ENDCHAR
STARTCHAR Udotbelow
ENCODING 7908
SWIDTH 846 0
DWIDTH 8 0
BBX 8 11 0 -3
BITMAP
7F
EF
EF
EF
EF
EB
DD
C1
7E
1A
3C
ENDCHAR
STARTCHAR udotbelow
ENCODING 7909
SWIDTH 846 0
DWIDTH 8 0
BBX 8 11 0 -3
BITMAP
7F
EF
EF
EF
EF
EB
DD
C1
7E
1A
3C
ENDCHAR
STARTCHAR Uhookabove
ENCODING 7910
SWIDTH 846 0
DWIDTH 8 0
BBX 8 13 0 -1
BITMAP
0C
1E
32
16
6D
EF
EF
EF
EF
EB
DD
62
7C
ENDCHAR
STARTCHAR uhookabove
ENCODING 7911
SWIDTH 846 0
DWIDTH 8 0
BBX 8 13 0 -1
BITMAP
0C
1E
32
16
6D
EF
EF
EF
EF
EB
DD
62
7C
ENDCHAR
STARTCHAR Uhornacute
ENCODING 7912
SWIDTH 856 0
DWIDTH 9 0
BBX 9 11 0 -1
BITMAP
3F00
4280
7D80
EE80
EE80
EE80
EE80
EA80
DD00
6200
7C00
ENDCHAR
STARTCHAR uhornacute
ENCODING 7913
SWIDTH 856 0
DWIDTH 9 0
BBX 9 11 0 -1
BITMAP
3F00
4280
7D80
EE80
EE80
EE80
EE80
EA80
DD00
6200
7C00
ENDCHAR
STARTCHAR Uhorngrave
ENCODING 7914
SWIDTH 856 0
DWIDTH 9 0
BBX 9 12 0 -1
BITMAP
3C00
5F00
4280
7D80
EE80
EE80
EE80
EE80
EA80
DD00
6200
7C00
ENDCHAR
STARTCHAR uhorngrave
ENCODING 7915
SWIDTH 856 0
DWIDTH 9 0
BBX 9 12 0 -1
BITMAP
3C00
5F00
4280
7D80
EE80
EE80
EE80
EE80
EA80
DD00
6200
7C00
ENDCHAR
STARTCHAR Uhornhookabove
ENCODING 7916
SWIDTH 856 0
DWIDTH 9 0
BBX 9 13 0 -1
BITMAP
0C00
3E00
3900
1E80
6D80
EE80
EE80
EE80
EE80
EA80
DD00
6200
7C00
ENDCHAR
STARTCHAR uhornhookabove
ENCODING 7917
SWIDTH 856 0
DWIDTH 9 0
BBX 9 13 0 -1
BITMAP
0C00
3E00
3900
1E80
6D80
EE80
EE80
EE80
EE80
EA80
DD00
6200
7C00
ENDCHAR
STARTCHAR Uhorntilde
ENCODING 7918
SWIDTH 856 0
DWIDTH 9 0
BBX 9 12 0 -1
BITMAP
3200
4D00
5280
6D80
EE80
EE80
EE80
EE80
EA80
DD00
6200
7C00
ENDCHAR
STARTCHAR uhorntilde
ENCODING 7919
SWIDTH 856 0
DWIDTH 9 0
BBX 9 12 0 -1
BITMAP
3200
4D00
5280
6D80
EE80
EE80
EE80
EE80
EA80
DD00
6200
7C00
ENDCHAR
STARTCHAR Uhorndotbelow
ENCODING 7920
SWIDTH 856 0
DWIDTH 9 0
BBX 9 12 0 -3
BITMAP
0380
7D80
EE80
EE80
EE80
EE80
EA80
DD00
C100
7E00
1A00
3C00
ENDCHAR
STARTCHAR uhorndotbelow
ENCODING 7921
SWIDTH 856 0
DWIDTH 9 0
BBX 9 12 0 -3
BITMAP
0380
7D80
EE80
EE80
EE80
EE80
EA80
DD00
C100
7E00
1A00
3C00
ENDCHAR
STARTCHAR Ygrave
ENCODING 7922
SWIDTH 805 0
DWIDTH 8 0
BBX 8 11 0 -1
BITMAP
3E
62
5D
EF
EB
D5
EA
6A
3C
34
38
ENDCHAR
STARTCHAR ygrave
ENCODING 7923
SWIDTH 805 0
DWIDTH 8 0
BBX 8 11 0 -1
BITMAP
3E
62
5D
EF
EB
D5
EA
6A
3C
34
38
ENDCHAR
STARTCHAR Ydotbelow
ENCODING 7924
SWIDTH 805 0
DWIDTH 8 0
BBX 8 11 0 -3
BITMAP
77
EF
EB
D5
EA
6C
34
3C
34
3C
38
ENDCHAR
STARTCHAR ydotbelow
ENCODING 7925
SWIDTH 805 0
DWIDTH 8 0
BBX 8 11 0 -3
BITMAP
77
EF
EB
D5
EA
6C
34
3C
34
3C
38
ENDCHAR
STARTCHAR Yhookabove
ENCODING 7926
SWIDTH 805 0
DWIDTH 8 0
BBX 8 13 0 -1
BITMAP
1C
2A
34
3C
4F
EF
EB
D5
EA
6A
3C
34
38
ENDCHAR
STARTCHAR yhookabove
ENCODING 7927
SWIDTH 805 0
DWIDTH 8 0
BBX 8 13 0 -1
BITMAP
1C
2A
34
3C
4F
EF
EB
D5
EA
6A
3C
34
38
ENDCHAR
STARTCHAR Ytilde
ENCODING 7928
SWIDTH 805 0
DWIDTH 8 0
BBX 8 12 0 -1
BITMAP
12
3E
72
4D
EF
EB
D5
EA
6A
3C
34
38
ENDCHAR
STARTCHAR ytilde
ENCODING 7929
SWIDTH 805 0
DWIDTH 8 0
BBX 8 12 0 -1
BITMAP
12
3E
72
4D
EF
EB
D5
EA
6A
3C
34
38
ENDCHAR
STARTCHAR enspace
ENCODING 8192
SWIDTH 500 0
DWIDTH 5 0
BBX 1 1 0 0
BITMAP
00
ENDCHAR
STARTCHAR emspace
ENCODING 8193
SWIDTH 1000 0
DWIDTH 10 0
BBX 1 1 0 0
BITMAP
00
ENDCHAR
STARTCHAR uni2002
ENCODING 8194
SWIDTH 500 0
DWIDTH 5 0
BBX 1 1 0 0
BITMAP
00
ENDCHAR
STARTCHAR uni2003
ENCODING 8195
SWIDTH 1000 0
DWIDTH 10 0
BBX 1 1 0 0
BITMAP
00
ENDCHAR
STARTCHAR space.tab_en
ENCODING 8199
SWIDTH 1100 0
DWIDTH 11 0
BBX 1 1 0 0
BITMAP
00
ENDCHAR
STARTCHAR uni2010
ENCODING 8208
SWIDTH 520 0
DWIDTH 5 0
BBX 5 4 0 2
BITMAP
38
78
C8
F0
ENDCHAR
STARTCHAR figuredash
ENCODING 8210
SWIDTH 834 0
DWIDTH 8 0
BBX 8 4 0 2
BITMAP
3F
5F
C1
FE
ENDCHAR
STARTCHAR endash
ENCODING 8211
SWIDTH 834 0
DWIDTH 8 0
BBX 8 4 0 2
BITMAP
3F
5F
C1
FE
ENDCHAR
STARTCHAR emdash
ENCODING 8212
SWIDTH 1234 0
DWIDTH 12 0
BBX 12 4 0 2
BITMAP
3FF0
5FF0
C010
FFE0
ENDCHAR
STARTCHAR horizontalbar
ENCODING 8213
SWIDTH 1234 0
DWIDTH 12 0
BBX 12 4 0 2
BITMAP
3FF0
5FF0
C010
FFE0
ENDCHAR
STARTCHAR quoteleft
ENCODING 8216
SWIDTH 484 0
DWIDTH 5 0
BBX 5 5 0 3
BITMAP
30
70
F8
C8
F0
ENDCHAR
STARTCHAR quoteright
ENCODING 8217
SWIDTH 484 0
DWIDTH 5 0
BBX 5 6 0 2
BITMAP
78
F8
E8
F8
F0
40
ENDCHAR
STARTCHAR quotesinglbase
ENCODING 8218
SWIDTH 484 0
DWIDTH 5 0
BBX 5 6 0 -3
BITMAP
30
78
E8
F8
F0
40
ENDCHAR
STARTCHAR quotedblleft
ENCODING 8220
SWIDTH 784 0
DWIDTH 8 0
BBX 8 5 0 3
BITMAP
77
5E
FF
C9
FE
ENDCHAR
STARTCHAR quotedblright
ENCODING 8221
SWIDTH 784 0
DWIDTH 8 0
BBX 8 6 0 2
BITMAP
7F
FF
EF
FD
FE
C8
ENDCHAR
STARTCHAR quotedblbase
ENCODING 8222
SWIDTH 784 0
DWIDTH 8 0
BBX 8 6 0 -3
BITMAP
36
FF
EF
FD
FE
48
ENDCHAR
STARTCHAR dagger
ENCODING 8224
SWIDTH 818 0
DWIDTH 8 0
BBX 8 9 0 -1
BITMAP
1C
3D
5F
C9
FA
3C
3C
34
38
ENDCHAR
STARTCHAR daggerdbl
ENCODING 8225
SWIDTH 818 0
DWIDTH 8 0
BBX 8 9 0 -1
BITMAP
3C
5F
C9
FA
49
DF
DD
F6
38
ENDCHAR
STARTCHAR bullet
ENCODING 8226
SWIDTH 543 0
DWIDTH 5 0
BBX 5 5 0 1
BITMAP
38
F8
F8
C8
F8
ENDCHAR
STARTCHAR ellipsis
ENCODING 8230
SWIDTH 1210 0
DWIDTH 12 0
BBX 12 5 0 -1
BITMAP
3770
4890
DAB0
C990
FEE0
ENDCHAR
STARTCHAR perthousand
ENCODING 8240
SWIDTH 1517 0
DWIDTH 15 0
BBX 15 9 0 -1
BITMAP
7B80
5700
D700
F5EC
C556
7D56
0D32
1BDE
1FFC
ENDCHAR
STARTCHAR minute
ENCODING 8242
SWIDTH 456 0
DWIDTH 5 0
BBX 4 5 0 3
BITMAP
70
F0
F0
D0
E0
ENDCHAR
STARTCHAR second
ENCODING 8243
SWIDTH 766 0
DWIDTH 8 0
BBX 7 5 0 3
BITMAP
7E
EA
EA
CA
FC
ENDCHAR
STARTCHAR guilsinglleft
ENCODING 8249
SWIDTH 663 0
DWIDTH 7 0
BBX 6 6 0 0
BITMAP
3C
74
E8
DC
F4
78
ENDCHAR
STARTCHAR guilsinglright
ENCODING 8250
SWIDTH 663 0
DWIDTH 7 0
BBX 5 7 1 0
BITMAP
40
B8
98
E8
B8
90
E0
ENDCHAR
STARTCHAR fraction
ENCODING 8260
SWIDTH 417 0
DWIDTH 4 0
BBX 4 9 0 -1
BITMAP
30
50
50
70
70
F0
A0
90
E0
ENDCHAR
STARTCHAR zero.sups
ENCODING 8304
SWIDTH 656 0
DWIDTH 7 0
BBX 6 7 0 1
BITMAP
7C
5C
BC
BC
AC
D4
78
ENDCHAR
STARTCHAR foursuperior
ENCODING 8308
SWIDTH 608 0
DWIDTH 6 0
BBX 6 7 0 1
BITMAP
7C
DC
DC
FC
FC
1C
18
ENDCHAR
STARTCHAR five.sups
ENCODING 8309
SWIDTH 593 0
DWIDTH 6 0
BBX 6 7 0 1
BITMAP
78
D8
D4
FC
74
C4
F8
ENDCHAR
STARTCHAR six.sups
ENCODING 8310
SWIDTH 628 0
DWIDTH 6 0
BBX 6 7 0 1
BITMAP
3C
78
FC
F4
E4
DC
78
ENDCHAR
STARTCHAR seven.sups
ENCODING 8311
SWIDTH 577 0
DWIDTH 6 0
BBX 6 7 0 1
BITMAP
7C
C4
FC
24
68
50
60
ENDCHAR
STARTCHAR eight.sups
ENCODING 8312
SWIDTH 638 0
DWIDTH 6 0
BBX 6 7 0 1
BITMAP
3C
5C
5C
64
F4
DC
F8
ENDCHAR
STARTCHAR nine.sups
ENCODING 8313
SWIDTH 628 0
DWIDTH 6 0
BBX 6 7 0 1
BITMAP
3C
54
E4
DC
F4
5C
78
ENDCHAR
STARTCHAR parenleft.sups
ENCODING 8317
SWIDTH 434 0
DWIDTH 4 0
BBX 4 8 0 1
BITMAP
10
70
A0
A0
A0
B0
F0
60
ENDCHAR
STARTCHAR parenright.sups
ENCODING 8318
SWIDTH 435 0
DWIDTH 4 0
BBX 4 8 0 1
BITMAP
40
B0
F0
70
70
70
B0
C0
ENDCHAR
STARTCHAR n.sups
ENCODING 8319
SWIDTH 673 0
DWIDTH 7 0
BBX 6 7 0 1
BITMAP
7C
54
B4
B4
B4
94
F8
ENDCHAR
STARTCHAR zero.sinf
ENCODING 8320
SWIDTH 656 0
DWIDTH 7 0
BBX 6 7 0 -1
BITMAP
7C
5C
BC
BC
AC
D4
78
ENDCHAR
STARTCHAR one.sinf
ENCODING 8321
SWIDTH 557 0
DWIDTH 6 0
BBX 5 7 0 -1
BITMAP
70
D0
F0
70
78
C8
F8
ENDCHAR
STARTCHAR two.sinf
ENCODING 8322
SWIDTH 585 0
DWIDTH 6 0
BBX 6 7 0 -1
BITMAP
7C
F4
FC
48
F8
C4
F8
ENDCHAR
STARTCHAR three.sinf
ENCODING 8323
SWIDTH 584 0
DWIDTH 6 0
BBX 6 7 0 -1
BITMAP
78
F4
54
7C
74
C4
F8
ENDCHAR
STARTCHAR four.sinf
ENCODING 8324
SWIDTH 620 0
DWIDTH 6 0
BBX 6 7 0 -1
BITMAP
7C
DC
DC
FC
FC
1C
18
ENDCHAR
STARTCHAR five.sinf
ENCODING 8325
SWIDTH 593 0
DWIDTH 6 0
BBX 6 7 0 -1
BITMAP
78
D8
D4
FC
74
C4
F8
ENDCHAR
STARTCHAR six.sinf
ENCODING 8326
SWIDTH 628 0
DWIDTH 6 0
BBX 6 7 0 -1
BITMAP
3C
78
FC
F4
E4
DC
78
ENDCHAR
STARTCHAR seven.sinf
ENCODING 8327
SWIDTH 577 0
DWIDTH 6 0
BBX 6 7 0 -1
BITMAP
7C
C4
FC
24
68
50
60
ENDCHAR
STARTCHAR eight.sinf
ENCODING 8328
SWIDTH 638 0
DWIDTH 6 0
BBX 6 7 0 -1
BITMAP
3C
5C
5C
64
F4
DC
F8
ENDCHAR
STARTCHAR nine.sinf
ENCODING 8329
SWIDTH 628 0
DWIDTH 6 0
BBX 6 7 0 -1
BITMAP
3C
54
E4
DC
F4
5C
78
ENDCHAR
STARTCHAR parenleft.sinf
ENCODING 8333
SWIDTH 434 0
DWIDTH 4 0
BBX 4 8 0 -1
BITMAP
10
70
A0
A0
A0
B0
F0
60
ENDCHAR
STARTCHAR parenright.sinf
ENCODING 8334
SWIDTH 435 0
DWIDTH 4 0
BBX 4 8 0 -1
BITMAP
40
B0
F0
70
70
70
B0
C0
ENDCHAR
STARTCHAR colonsign
ENCODING 8353
SWIDTH 728 0
DWIDTH 7 0
BBX 7 10 0 -2
BITMAP
1C
22
5E
6E
E8
EE
DE
E2
7A
3C
ENDCHAR
STARTCHAR lira
ENCODING 8356
SWIDTH 795 0
DWIDTH 8 0
BBX 8 9 0 -1
BITMAP
3E
5E
6C
F8
B7
EB
DF
C1
FE
ENDCHAR
STARTCHAR naira
ENCODING 8358
SWIDTH 853 0
DWIDTH 9 0
BBX 9 9 0 -1
BITMAP
7F80
D680
EE80
EB80
AD80
EA80
EE80
DD80
EE00
ENDCHAR
STARTCHAR peseta
ENCODING 8359
SWIDTH 812 0
DWIDTH 8 0
BBX 8 9 0 -1
BITMAP
7E
DD
AB
DB
DD
D3
DC
C8
F0
ENDCHAR
STARTCHAR dong
ENCODING 8363
SWIDTH 782 0
DWIDTH 8 0
BBX 8 11 0 -3
BITMAP
0F
1F
3D
5E
6E
FE
CA
C2
7C
42
7C
ENDCHAR
STARTCHAR Euro
ENCODING 8364
SWIDTH 748 0
DWIDTH 7 0
BBX 7 9 0 -1
BITMAP
3E
4E
5E
FC
FA
DE
4E
62
7C
ENDCHAR
STARTCHAR peso
ENCODING 8369
SWIDTH 812 0
DWIDTH 8 0
BBX 8 9 0 -1
BITMAP
7F
DD
FB
A3
DD
D2
DC
C8
F0
ENDCHAR
STARTCHAR guarani
ENCODING 8370
SWIDTH 788 0
DWIDTH 8 0
BBX 8 11 0 -2
BITMAP
0C
32
5D
6E
EE
E9
E3
DD
72
3C
38
ENDCHAR
STARTCHAR cedi
ENCODING 8373
SWIDTH 728 0
DWIDTH 7 0
BBX 7 10 0 -2
BITMAP
0C
3A
5E
6E
E8
EE
DE
FA
72
3C
ENDCHAR
STARTCHAR indianrupee
ENCODING 8377
SWIDTH 713 0
DWIDTH 7 0
BBX 7 9 0 -1
BITMAP
7E
CA
FE
FE
7A
C6
FE
1A
1C
ENDCHAR
STARTCHAR turkishlira
ENCODING 8378
SWIDTH 795 0
DWIDTH 8 0
BBX 8 9 0 -1
BITMAP
78
E8
B8
FB
AD
EB
DD
C2
FC
ENDCHAR
STARTCHAR ruble
ENCODING 8381
SWIDTH 782 0
DWIDTH 8 0
BBX 8 9 0 -1
BITMAP
7E
DD
EB
E3
DD
EE
B4
C8
F0
ENDCHAR
STARTCHAR liter
ENCODING 8467
SWIDTH 749 0
DWIDTH 7 0
BBX 7 9 0 -1
BITMAP
3E
5E
EE
EE
DA
EC
DA
C2
7C
ENDCHAR
STARTCHAR uni2117
ENCODING 8471
SWIDTH 967 0
DWIDTH 10 0
BBX 9 11 0 -2
BITMAP
1F00
6E80
5180
DF80
D780
DB80
D780
D580
F980
6E80
7F00
ENDCHAR
STARTCHAR uni2120
ENCODING 8480
SWIDTH 1003 0
DWIDTH 10 0
BBX 10 6 0 2
BITMAP
7EC0
4BC0
F5C0
EBC0
5540
FF80
ENDCHAR
STARTCHAR trademark
ENCODING 8482
SWIDTH 1003 0
DWIDTH 10 0
BBX 10 6 0 2
BITMAP
7EC0
95C0
DBC0
5BC0
4940
7F80
ENDCHAR
STARTCHAR Omega
ENCODING 8486
SWIDTH 877 0
DWIDTH 9 0
BBX 9 9 0 -1
BITMAP
3F00
5E80
5E80
5D00
5D00
5E80
7780
C480
FF00
ENDCHAR
STARTCHAR estimated
ENCODING 8494
SWIDTH 815 0
DWIDTH 8 0
BBX 8 9 0 -1
BITMAP
3E
5F
EF
E3
FD
EE
FD
C1
7E
ENDCHAR
STARTCHAR onethird
ENCODING 8531
SWIDTH 1269 0
DWIDTH 13 0
BBX 13 9 0 -1
BITMAP
7380
F500
75E0
76D0
7EB8
C6E8
FF08
0970
0FE0
ENDCHAR
STARTCHAR twothirds
ENCODING 8532
SWIDTH 1269 0
DWIDTH 13 0
BBX 13 9 0 -1
BITMAP
7F80
C500
7DE0
5ED0
E6B8
C6E8
FF08
0970
0FE0
ENDCHAR
STARTCHAR oneeighth
ENCODING 8539
SWIDTH 1283 0
DWIDTH 13 0
BBX 13 9 0 -1
BITMAP
7380
F530
75E8
7EA8
7EE8
C7B8
FF98
09F0
0FE0
ENDCHAR
STARTCHAR threeeighths
ENCODING 8540
SWIDTH 1293 0
DWIDTH 13 0
BBX 13 9 0 -1
BITMAP
7F80
EEB0
55E8
7DB0
76E8
C7B8
FF98
09F8
0FE0
ENDCHAR
STARTCHAR fiveeighths
ENCODING 8541
SWIDTH 1303 0
DWIDTH 13 0
BBX 13 9 0 -1
BITMAP
7B80
DFB0
D2E8
FDB0
75E8
C6B8
FF58
0DB8
0FE0
ENDCHAR
STARTCHAR seveneighths
ENCODING 8542
SWIDTH 1241 0
DWIDTH 12 0
BBX 12 9 0 -1
BITMAP
7F80
F7E0
3F70
6F50
6B70
5BF0
6B90
0970
0FE0
ENDCHAR
STARTCHAR arrowleft
ENCODING 8592
SWIDTH 1100 0
DWIDTH 11 0
BBX 8 7 1 0
BITMAP
0C
12
29
57
EF
3A
1C
ENDCHAR
STARTCHAR arrowup
ENCODING 8593
SWIDTH 1100 0
DWIDTH 11 0
BBX 7 8 2 -1
BITMAP
1C
2C
54
4A
EE
EC
2C
30
ENDCHAR
STARTCHAR arrowright
ENCODING 8594
SWIDTH 1100 0
DWIDTH 11 0
BBX 8 8 2 -1
BITMAP
38
24
CA
BD
EE
28
30
20
ENDCHAR
STARTCHAR arrowdown
ENCODING 8595
SWIDTH 1100 0
DWIDTH 11 0
BBX 7 8 2 -1
BITMAP
3C
2C
4A
D6
EC
64
38
20
ENDCHAR
STARTCHAR arrowupleft
ENCODING 8598
SWIDTH 1100 0
DWIDTH 11 0
BBX 7 7 2 0
BITMAP
7C
F2
EC
DC
4E
7A
5C
ENDCHAR
STARTCHAR arrowupright
ENCODING 8599
SWIDTH 1100 0
DWIDTH 11 0
BBX 7 7 2 0
BITMAP
16
6E
D6
7A
6A
DE
68
ENDCHAR
STARTCHAR arrowdownright
ENCODING 8600
SWIDTH 1100 0
DWIDTH 11 0
BBX 7 7 2 0
BITMAP
34
4A
D4
6A
5E
F2
7C
ENDCHAR
STARTCHAR arrowdownleft
ENCODING 8601
SWIDTH 1100 0
DWIDTH 11 0
BBX 7 7 2 0
BITMAP
24
5E
5A
6C
F2
CC
F0
ENDCHAR
STARTCHAR uni21AA
ENCODING 8618
SWIDTH 1100 0
DWIDTH 11 0
BBX 8 10 2 -2
BITMAP
7E
C2
DC
D4
D2
AD
F6
74
18
20
ENDCHAR
STARTCHAR uni21AB
ENCODING 8619
SWIDTH 1100 0
DWIDTH 11 0
BBX 9 10 1 -2
BITMAP
3F80
6180
7F80
1B80
2780
5280
EF00
7200
3C00
0800
ENDCHAR
STARTCHAR uni21B0
ENCODING 8624
SWIDTH 1100 0
DWIDTH 11 0
BBX 8 9 1 -1
BITMAP
0C
14
2A
57
E7
73
1F
07
07
ENDCHAR
STARTCHAR uni21B1
ENCODING 8625
SWIDTH 1100 0
DWIDTH 11 0
BBX 8 9 2 -1
BITMAP
18
14
6A
BF
D2
D4
D8
A0
C0
ENDCHAR
STARTCHAR uni21B2
ENCODING 8626
SWIDTH 1100 0
DWIDTH 11 0
BBX 8 9 1 -1
BITMAP
03
07
0B
17
31
5F
E6
3C
18
ENDCHAR
STARTCHAR uni21B3
ENCODING 8627
SWIDTH 1100 0
DWIDTH 11 0
BBX 9 9 1 -1
BITMAP
7000
5000
DC00
DA00
E580
DA80
7900
1600
1800
ENDCHAR
STARTCHAR partialdiff
ENCODING 8706
SWIDTH 792 0
DWIDTH 8 0
BBX 8 9 0 -1
BITMAP
3E
5D
7B
4B
77
EB
E3
DF
7C
ENDCHAR
STARTCHAR Delta
ENCODING 8710
SWIDTH 830 0
DWIDTH 8 0
BBX 8 9 0 -1
BITMAP
3E
3E
5A
5B
5B
6F
FF
C1
FE
ENDCHAR
STARTCHAR product
ENCODING 8719
SWIDTH 859 0
DWIDTH 9 0
BBX 8 9 0 -1
BITMAP
7F
7F
EF
EF
EF
EF
EF
CD
FE
ENDCHAR
STARTCHAR summation
ENCODING 8721
SWIDTH 750 0
DWIDTH 8 0
BBX 7 10 0 -2
BITMAP
7E
FE
D6
EC
7A
2C
58
7E
C2
FE
ENDCHAR
STARTCHAR minus
ENCODING 8722
SWIDTH 834 0
DWIDTH 8 0
BBX 8 3 0 2
BITMAP
7F
DF
FE
ENDCHAR
STARTCHAR uni2215
ENCODING 8725
SWIDTH 417 0
DWIDTH 4 0
BBX 4 9 0 -1
BITMAP
30
50
50
70
70
F0
A0
90
E0
ENDCHAR
STARTCHAR uni2219
ENCODING 8729
SWIDTH 464 0
DWIDTH 5 0
BBX 4 5 0 1
BITMAP
30
50
F0
D0
E0
ENDCHAR
STARTCHAR radical
ENCODING 8730
SWIDTH 841 0
DWIDTH 8 0
BBX 9 10 0 -1
BITMAP
0380
0500
0680
5700
AF00
9A00
F200
6E00
2200
3C00
ENDCHAR
STARTCHAR infinity
ENCODING 8734
SWIDTH 978 0
DWIDTH 10 0
BBX 10 7 0 0
BITMAP
3F80
7FC0
FFC0
FDC0
EEC0
D5C0
7F00
ENDCHAR
STARTCHAR integral
ENCODING 8747
SWIDTH 574 0
DWIDTH 6 0
BBX 6 11 0 -2
BITMAP
1C
2C
54
58
58
58
58
58
B8
98
E0
ENDCHAR
STARTCHAR approxequal
ENCODING 8776
SWIDTH 834 0
DWIDTH 8 0
BBX 8 7 0 0
BITMAP
3F
7F
D9
EF
5F
D1
FE
ENDCHAR
STARTCHAR notequal
ENCODING 8800
SWIDTH 834 0
DWIDTH 8 0
BBX 8 9 0 -1
BITMAP
0C
37
5F
C9
FA
5F
C9
E6
38
ENDCHAR
STARTCHAR lessequal
ENCODING 8804
SWIDTH 814 0
DWIDTH 8 0
BBX 6 9 1 -1
BITMAP
1C
6C
B4
D8
B4
CC
BC
84
FC
ENDCHAR
STARTCHAR greaterequal
ENCODING 8805
SWIDTH 814 0
DWIDTH 8 0
BBX 7 9 1 -1
BITMAP
E0
BC
CE
F6
5A
A4
BE
82
FC
ENDCHAR
STARTCHAR block
ENCODING 9608
SWIDTH 1000 0
DWIDTH 10 0
BBX 10 12 0 -2
BITMAP
FFC0
FFC0
FFC0
FFC0
FFC0
FFC0
FFC0
FFC0
FFC0
FFC0
FFC0
FFC0
ENDCHAR
STARTCHAR blacksquare
ENCODING 9632
SWIDTH 1100 0
DWIDTH 11 0
BBX 5 6 3 0
BITMAP
F8
B8
B8
88
F8
F0
ENDCHAR
STARTCHAR blackuppointingtriangle
ENCODING 9650
SWIDTH 1100 0
DWIDTH 11 0
BBX 7 6 2 0
BITMAP
1C
24
5A
42
FE
FC
ENDCHAR
STARTCHAR whiteuppointingtriangle
ENCODING 9651
SWIDTH 1100 0
DWIDTH 11 0
BBX 6 5 3 1
BITMAP
30
48
44
84
FC
ENDCHAR
STARTCHAR blackrightpointingtriangle
ENCODING 9654
SWIDTH 1100 0
DWIDTH 11 0
BBX 6 7 3 0
BITMAP
E0
90
AC
B4
98
A0
C0
ENDCHAR
STARTCHAR whiterightpointingtriangle
ENCODING 9655
SWIDTH 1100 0
DWIDTH 11 0
BBX 4 6 4 1
BITMAP
C0
A0
90
90
A0
C0
ENDCHAR
STARTCHAR blackdownpointingtriangle
ENCODING 9660
SWIDTH 1100 0
DWIDTH 11 0
BBX 7 6 2 0
BITMAP
FE
DA
64
64
38
20
ENDCHAR
STARTCHAR whitedownpointingtriangle
ENCODING 9661
SWIDTH 1100 0
DWIDTH 11 0
BBX 6 5 3 1
BITMAP
FC
44
48
30
10
ENDCHAR
STARTCHAR blackleftpointingtriangle
ENCODING 9664
SWIDTH 1100 0
DWIDTH 11 0
BBX 6 7 3 0
BITMAP
0C
34
54
94
E4
74
38
ENDCHAR
STARTCHAR whiteleftpointingtriangle
ENCODING 9665
SWIDTH 1100 0
DWIDTH 11 0
BBX 5 6 4 1
BITMAP
18
68
88
88
48
38
ENDCHAR
STARTCHAR blackdiamond
ENCODING 9670
SWIDTH 1100 0
DWIDTH 11 0
BBX 7 8 2 -1
BITMAP
18
24
5A
9A
C2
64
38
20
ENDCHAR
STARTCHAR lozenge
ENCODING 9674
SWIDTH 831 0
DWIDTH 8 0
BBX 8 9 0 -1
BITMAP
1E
3E
5A
5B
6F
DA
7E
62
3C
ENDCHAR
STARTCHAR uni25D6
ENCODING 9686
SWIDTH 546 0
DWIDTH 5 0
BBX 6 12 0 -2
BITMAP
0C
3C
7C
7C
FC
FC
FC
FC
FC
7C
3C
1C
ENDCHAR
STARTCHAR uni25D7
ENCODING 9687
SWIDTH 546 0
DWIDTH 5 0
BBX 5 12 0 -2
BITMAP
80
E0
F0
F8
F8
F8
F8
F8
F8
F8
F0
C0
ENDCHAR
STARTCHAR uni25DC
ENCODING 9692
SWIDTH 1280 0
DWIDTH 13 0
BBX 11 12 1 -2
BITMAP
01E0
0FE0
1FE0
3FE0
7FE0
7FE0
FFE0
FFE0
FFE0
FFE0
FFE0
FFE0
ENDCHAR
STARTCHAR uni25DD
ENCODING 9693
SWIDTH 1280 0
DWIDTH 13 0
BBX 11 12 1 -2
BITMAP
F000
FE00
FF00
FF80
FFC0
FFC0
FFC0
FFE0
FFE0
FFE0
FFE0
FFE0
ENDCHAR
STARTCHAR uni25DE
ENCODING 9694
SWIDTH 1280 0
DWIDTH 13 0
BBX 11 12 1 -2
BITMAP
FFE0
FFE0
FFE0
FFE0
FFE0
FFC0
FFC0
FFC0
FF80
FF00
FE00
F800
ENDCHAR
STARTCHAR uni25DF
ENCODING 9695
SWIDTH 1280 0
DWIDTH 13 0
BBX 11 12 1 -2
BITMAP
FFE0
FFE0
FFE0
FFE0
FFE0
FFE0
7FE0
7FE0
3FE0
3FE0
1FE0
03E0
ENDCHAR
STARTCHAR uni261A
ENCODING 9754
SWIDTH 1100 0
DWIDTH 11 0
BBX 9 7 1 0
BITMAP
3D80
4380
F180
3980
3980
3E80
0300
ENDCHAR
STARTCHAR uni261B
ENCODING 9755
SWIDTH 1100 0
DWIDTH 11 0
BBX 9 7 1 0
BITMAP
7F00
D080
D300
D200
D600
DC00
E000
ENDCHAR
STARTCHAR uni261C
ENCODING 9756
SWIDTH 1100 0
DWIDTH 11 0
BBX 8 6 2 1
BITMAP
7B
87
63
33
33
1F
ENDCHAR
STARTCHAR uni261D
ENCODING 9757
SWIDTH 1100 0
DWIDTH 11 0
BBX 6 8 3 0
BITMAP
40
40
70
A8
44
44
7C
FC
ENDCHAR
STARTCHAR uni261E
ENCODING 9758
SWIDTH 1100 0
DWIDTH 11 0
BBX 7 6 3 1
BITMAP
BC
C2
8C
88
98
F0
ENDCHAR
STARTCHAR uni261F
ENCODING 9759
SWIDTH 1100 0
DWIDTH 11 0
BBX 6 8 3 0
BITMAP
FC
BC
44
44
44
74
08
08
ENDCHAR
STARTCHAR uni27A1
ENCODING 10145
SWIDTH 650 0
DWIDTH 7 0
BBX 6 16 0 -4
BITMAP
80
C0
E0
F0
F0
F8
FC
FC
FC
FC
F8
F0
F0
E0
C0
C0
ENDCHAR
STARTCHAR uni2B1B
ENCODING 11035
SWIDTH 1280 0
DWIDTH 13 0
BBX 11 12 1 -2
BITMAP
FFE0
FFE0
FFE0
FFE0
FFE0
FFE0
FFE0
FFE0
FFE0
FFE0
FFE0
FFE0
ENDCHAR
STARTCHAR uni2B24
ENCODING 11044
SWIDTH 1280 0
DWIDTH 13 0
BBX 11 12 1 -2
BITMAP
1F00
3F80
7FC0
FFE0
FFE0
FFE0
FFE0
FFE0
FFE0
FFC0
7FC0
3F00
ENDCHAR
STARTCHAR A.salt
ENCODING 57600
SWIDTH 836 0
DWIDTH 8 0
BBX 8 9 0 -1
BITMAP
3F
5F
6F
EF
E3
FF
EF
CD
FE
ENDCHAR
STARTCHAR Agrave.salt
ENCODING 57601
SWIDTH 836 0
DWIDTH 8 0
BBX 8 11 0 -1
BITMAP
3E
7E
61
5F
6F
EF
E3
FF
EF
CD
FE
ENDCHAR
STARTCHAR Aacute.salt
ENCODING 57602
SWIDTH 836 0
DWIDTH 8 0
BBX 8 11 0 -1
BITMAP
3F
6E
71
5F
6F
EF
E3
FF
EF
CD
FE
ENDCHAR
STARTCHAR Acircumflex.salt
ENCODING 57603
SWIDTH 836 0
DWIDTH 8 0
BBX 8 12 0 -1
BITMAP
1C
2A
6E
71
5F
6F
EF
E3
FF
EF
CD
FE
ENDCHAR
STARTCHAR Atilde.salt
ENCODING 57604
SWIDTH 836 0
DWIDTH 8 0
BBX 8 11 0 -1
BITMAP
3E
7E
65
5F
6F
EF
E3
FF
EF
CD
FE
ENDCHAR
STARTCHAR Adieresis.salt
ENCODING 57605
SWIDTH 836 0
DWIDTH 8 0
BBX 8 11 0 -1
BITMAP
3F
49
77
5F
6F
EF
E3
FF
EF
CD
FE
ENDCHAR
STARTCHAR Aring.salt
ENCODING 57606
SWIDTH 836 0
DWIDTH 8 0
BBX 8 12 0 -1
BITMAP
08
36
7A
75
5B
6F
EF
E3
FF
EF
CD
FE
ENDCHAR
STARTCHAR Amacron.salt
ENCODING 57607
SWIDTH 836 0
DWIDTH 8 0
BBX 8 11 0 -1
BITMAP
3E
62
7D
5F
6F
EF
E3
FF
EF
CD
FE
ENDCHAR
STARTCHAR Abreve.salt
ENCODING 57608
SWIDTH 836 0
DWIDTH 8 0
BBX 8 12 0 -1
BITMAP
16
3A
7E
6D
5F
6F
EF
E3
FF
EF
CD
FE
ENDCHAR
STARTCHAR Aogonek.salt
ENCODING 57609
SWIDTH 836 0
DWIDTH 8 0
BBX 8 11 0 -3
BITMAP
3F
5F
6F
EF
E3
FF
EF
CD
FB
09
0E
ENDCHAR
STARTCHAR E.salt
ENCODING 57610
SWIDTH 743 0
DWIDTH 7 0
BBX 7 9 0 -1
BITMAP
3E
5E
6E
E2
FA
EC
FE
C2
7C
ENDCHAR
STARTCHAR Egrave.salt
ENCODING 57611
SWIDTH 743 0
DWIDTH 7 0
BBX 7 11 0 -1
BITMAP
7E
7A
66
5E
6E
E2
FA
EC
FE
C2
7C
ENDCHAR
STARTCHAR Eacute.salt
ENCODING 57612
SWIDTH 743 0
DWIDTH 7 0
BBX 7 11 0 -1
BITMAP
3E
66
7A
5E
6E
E2
FA
EC
FE
C2
7C
ENDCHAR
STARTCHAR Ecircumflex.salt
ENCODING 57613
SWIDTH 743 0
DWIDTH 7 0
BBX 7 12 0 -1
BITMAP
0C
3A
6E
72
5E
6E
E2
FA
EC
FE
C2
7C
ENDCHAR
STARTCHAR Edieresis.salt
ENCODING 57614
SWIDTH 743 0
DWIDTH 7 0
BBX 7 11 0 -1
BITMAP
3E
4A
76
5E
6E
E2
FA
EC
FE
C2
7C
ENDCHAR
STARTCHAR Emacron.salt
ENCODING 57615
SWIDTH 743 0
DWIDTH 7 0
BBX 7 11 0 -1
BITMAP
3E
62
7E
5E
6E
E2
FA
EC
FE
C2
7C
ENDCHAR
STARTCHAR Ebreve.salt
ENCODING 57616
SWIDTH 743 0
DWIDTH 7 0
BBX 7 12 0 -1
BITMAP
16
7A
6E
7E
5E
6E
E2
FA
EC
FE
C2
7C
ENDCHAR
STARTCHAR Edotaccent.salt
ENCODING 57617
SWIDTH 743 0
DWIDTH 7 0
BBX 7 11 0 -1
BITMAP
1C
34
2A
5E
6E
E2
FA
EC
FE
C2
7C
ENDCHAR
STARTCHAR Eogonek.salt
ENCODING 57618
SWIDTH 743 0
DWIDTH 7 0
BBX 7 11 0 -3
BITMAP
3E
5E
6E
E2
FA
EC
FA
C6
7E
1A
1E
ENDCHAR
STARTCHAR Ecaron.salt
ENCODING 57619
SWIDTH 743 0
DWIDTH 7 0
BBX 7 12 0 -1
BITMAP
36
6A
76
6A
5E
6E
E2
FA
EC
FE
C2
7C
ENDCHAR
STARTCHAR I.salt
ENCODING 57620
SWIDTH 471 0
DWIDTH 5 0
BBX 4 9 0 -1
BITMAP
70
50
D0
D0
D0
D0
D0
D0
F0
ENDCHAR
STARTCHAR Igrave.salt
ENCODING 57621
SWIDTH 471 0
DWIDTH 5 0
BBX 5 11 0 -1
BITMAP
78
E8
D8
50
D0
D0
D0
D0
D0
C8
F0
ENDCHAR
STARTCHAR Iacute.salt
ENCODING 57622
SWIDTH 471 0
DWIDTH 5 0
BBX 5 11 0 -1
BITMAP
78
D8
E8
50
D0
D0
D0
D0
D0
C8
F0
ENDCHAR
STARTCHAR Icircumflex.salt
ENCODING 57623
SWIDTH 471 0
DWIDTH 5 0
BBX 5 12 0 -1
BITMAP
10
E8
B8
C8
50
D0
D0
D0
D0
D0
C8
F0
ENDCHAR
STARTCHAR Idieresis.salt
ENCODING 57624
SWIDTH 471 0
DWIDTH 5 0
BBX 5 11 0 -1
BITMAP
F8
98
E8
50
D0
D0
D0
D0
D0
C8
F0
ENDCHAR
STARTCHAR Itilde.salt
ENCODING 57625
SWIDTH 471 0
DWIDTH 5 0
BBX 5 11 0 -1
BITMAP
F8
98
F8
50
D0
D0
D0
D0
D0
C8
F0
ENDCHAR
STARTCHAR Imacron.salt
ENCODING 57626
SWIDTH 471 0
DWIDTH 5 0
BBX 5 11 0 -1
BITMAP
78
88
F8
50
D0
D0
D0
D0
D0
C8
F0
ENDCHAR
STARTCHAR Ibreve.salt
ENCODING 57627
SWIDTH 471 0
DWIDTH 5 0
BBX 5 12 0 -1
BITMAP
78
C8
F8
F8
50
D0
D0
D0
D0
D0
C8
F0
ENDCHAR
STARTCHAR Iogonek.salt
ENCODING 57628
SWIDTH 471 0
DWIDTH 5 0
BBX 4 11 0 -3
BITMAP
70
50
50
50
50
50
50
70
70
D0
F0
ENDCHAR
STARTCHAR Idotaccent.salt
ENCODING 57629
SWIDTH 471 0
DWIDTH 5 0
BBX 4 11 0 -1
BITMAP
70
D0
F0
50
D0
D0
D0
D0
D0
D0
F0
ENDCHAR
STARTCHAR L.salt
ENCODING 57630
SWIDTH 715 0
DWIDTH 7 0
BBX 7 9 0 -1
BITMAP
78
68
E8
E8
E8
E8
FE
C2
FC
ENDCHAR
STARTCHAR Lacute.salt
ENCODING 57631
SWIDTH 715 0
DWIDTH 7 0
BBX 7 11 0 -1
BITMAP
7E
C4
F8
68
E8
E8
E8
E8
FE
C2
FC
ENDCHAR
STARTCHAR Lcommaaccent.salt
ENCODING 57632
SWIDTH 715 0
DWIDTH 7 0
BBX 7 13 0 -5
BITMAP
78
68
E8
E8
E8
E8
FE
C2
FC
2C
3C
24
38
ENDCHAR
STARTCHAR Lcaron.salt
ENCODING 57633
SWIDTH 715 0
DWIDTH 7 0
BBX 7 9 0 -1
BITMAP
7E
6A
EA
EC
E8
E8
FE
C2
FC
ENDCHAR
STARTCHAR Ldot.salt
ENCODING 57634
SWIDTH 715 0
DWIDTH 7 0
BBX 7 9 0 -1
BITMAP
78
68
EE
EA
EE
EC
FE
C2
FC
ENDCHAR
STARTCHAR Lslash.salt
ENCODING 57635
SWIDTH 725 0
DWIDTH 7 0
BBX 7 9 0 -1
BITMAP
78
50
58
B4
98
D0
5E
42
7E
ENDCHAR
STARTCHAR M.salt
ENCODING 57636
SWIDTH 1170 0
DWIDTH 12 0
BBX 11 9 0 -1
BITMAP
3FE0
5FE0
6AA0
EAA0
EAA0
EAA0
EAA0
C8A0
FFE0
ENDCHAR
STARTCHAR N.salt
ENCODING 57637
SWIDTH 846 0
DWIDTH 8 0
BBX 8 9 0 -1
BITMAP
3F
5F
6F
EF
EF
EF
EF
CD
FE
ENDCHAR
STARTCHAR Ntilde.salt
ENCODING 57638
SWIDTH 846 0
DWIDTH 8 0
BBX 8 11 0 -1
BITMAP
3F
6E
75
5F
6F
EF
EF
EF
EF
CD
FE
ENDCHAR
STARTCHAR Nacute.salt
ENCODING 57639
SWIDTH 846 0
DWIDTH 8 0
BBX 8 11 0 -1
BITMAP
3F
2E
71
5F
6F
EF
EF
EF
EF
CD
FE
ENDCHAR
STARTCHAR Ncommaaccent.salt
ENCODING 57640
SWIDTH 846 0
DWIDTH 8 0
BBX 8 13 0 -5
BITMAP
3F
5F
6F
EF
EF
EF
EF
CD
F2
1A
3A
34
38
ENDCHAR
STARTCHAR Ncaron.salt
ENCODING 57641
SWIDTH 846 0
DWIDTH 8 0
BBX 8 12 0 -1
BITMAP
16
29
76
29
5F
6F
EF
EF
EF
EF
CD
FE
ENDCHAR
STARTCHAR W.salt
ENCODING 57642
SWIDTH 1170 0
DWIDTH 12 0
BBX 11 9 0 -1
BITMAP
7FE0
EAA0
EAA0
EAA0
EAA0
EAA0
D260
CDA0
7FC0
ENDCHAR
STARTCHAR Wcircumflex.salt
ENCODING 57643
SWIDTH 1170 0
DWIDTH 12 0
BBX 11 12 0 -1
BITMAP
0200
0F80
1280
6DE0
EAA0
EAA0
EAA0
EAA0
EAA0
D260
CDA0
7FC0
ENDCHAR
STARTCHAR Wgrave.salt
ENCODING 57644
SWIDTH 1170 0
DWIDTH 12 0
BBX 11 11 0 -1
BITMAP
1F80
1E80
69E0
EAA0
EAA0
EAA0
EAA0
EAA0
D260
CDA0
7FC0
ENDCHAR
STARTCHAR Wacute.salt
ENCODING 57645
SWIDTH 1170 0
DWIDTH 12 0
BBX 11 11 0 -1
BITMAP
0F80
1A80
6DE0
EAA0
EAA0
EAA0
EAA0
EAA0
D260
CDA0
7FC0
ENDCHAR
STARTCHAR Wdieresis.salt
ENCODING 57646
SWIDTH 1170 0
DWIDTH 12 0
BBX 11 11 0 -1
BITMAP
1F80
1280
6DE0
EAA0
EAA0
EAA0
EAA0
EAA0
D260
CDA0
7FC0
ENDCHAR
STARTCHAR X.salt
ENCODING 57647
SWIDTH 837 0
DWIDTH 8 0
BBX 8 9 0 -1
BITMAP
7F
5B
7A
55
5B
EF
EF
CD
FE
ENDCHAR
STARTCHAR Y.salt
ENCODING 57648
SWIDTH 806 0
DWIDTH 8 0
BBX 8 9 0 -1
BITMAP
77
EB
EB
EB
D7
EA
7C
34
38
ENDCHAR
STARTCHAR Yacute.salt
ENCODING 57649
SWIDTH 806 0
DWIDTH 8 0
BBX 8 11 0 -1
BITMAP
3E
62
5D
EB
EB
EB
D7
EA
7C
34
38
ENDCHAR
STARTCHAR Ycircumflex.salt
ENCODING 57650
SWIDTH 806 0
DWIDTH 8 0
BBX 8 12 0 -1
BITMAP
08
3E
6A
5D
EB
EB
EB
D7
EA
7C
34
38
ENDCHAR
STARTCHAR Ydieresis.salt
ENCODING 57651
SWIDTH 806 0
DWIDTH 8 0
BBX 8 11 0 -1
BITMAP
7F
49
7F
EB
EB
EB
D7
EA
7C
34
38
ENDCHAR
STARTCHAR Ygrave.salt
ENCODING 57652
SWIDTH 806 0
DWIDTH 8 0
BBX 8 11 0 -1
BITMAP
3E
72
4D
EB
EB
EB
D7
EA
7C
34
38
ENDCHAR
STARTCHAR AE.salt
ENCODING 57653
SWIDTH 1113 0
DWIDTH 11 0
BBX 11 9 0 -1
BITMAP
3FE0
5FE0
6EE0
EE20
E3A0
FEC0
EFE0
CC20
FFC0
ENDCHAR
STARTCHAR IJ.salt
ENCODING 57654
SWIDTH 1133 0
DWIDTH 11 0
BBX 11 9 0 -1
BITMAP
78E0
51E0
D1E0
D7E0
D9E0
DBE0
DA60
CDA0
FFC0
ENDCHAR
STARTCHAR IJ.stack
ENCODING 57655
SWIDTH 1363 0
DWIDTH 14 0
BBX 13 9 0 -1
BITMAP
7E38
DE38
EC78
E9F8
2A78
2AF8
5E98
C168
FFF0
ENDCHAR
STARTCHAR quoteleft.salt
ENCODING 57656
SWIDTH 407 0
DWIDTH 4 0
BBX 4 4 0 4
BITMAP
70
50
F0
E0
ENDCHAR
STARTCHAR quoteright.salt
ENCODING 57657
SWIDTH 407 0
DWIDTH 4 0
BBX 4 4 0 4
BITMAP
70
F0
F0
E0
ENDCHAR
STARTCHAR ampersand.salt
ENCODING 57658
SWIDTH 732 0
DWIDTH 7 0
BBX 7 11 0 -2
BITMAP
1C
2A
56
5E
62
7A
EC
F6
CA
F2
3C
ENDCHAR
STARTCHAR caron.2
ENCODING 57659
SWIDTH 600 0
DWIDTH 6 0
BBX 4 4 1 4
BITMAP
70
F0
90
E0
ENDCHAR
STARTCHAR indexup
ENCODING 57660
SWIDTH 1100 0
DWIDTH 11 0
BBX 7 9 2 -1
BITMAP
20
50
58
54
42
42
7E
42
FC
ENDCHAR
STARTCHAR indexdown
ENCODING 57661
SWIDTH 1100 0
DWIDTH 11 0
BBX 7 9 2 -1
BITMAP
7E
FE
C2
42
44
54
58
50
60
ENDCHAR
STARTCHAR indexupleft
ENCODING 57662
SWIDTH 1100 0
DWIDTH 11 0
BBX 7 10 2 -2
BITMAP
60
F0
58
64
A6
CA
F4
68
30
20
ENDCHAR
STARTCHAR indexupright
ENCODING 57663
SWIDTH 1100 0
DWIDTH 11 0
BBX 7 10 2 -2
BITMAP
06
0A
14
66
A2
D2
EC
74
38
10
ENDCHAR
STARTCHAR indexdownleft
ENCODING 57664
SWIDTH 1100 0
DWIDTH 11 0
BBX 9 8 1 -1
BITMAP
0E00
0D00
1280
2180
5980
B600
FC00
0800
ENDCHAR
STARTCHAR indexdownright
ENCODING 57665
SWIDTH 1100 0
DWIDTH 11 0
BBX 9 8 1 -1
BITMAP
1C00
2C00
5200
A100
E280
F780
3F00
1000
ENDCHAR
STARTCHAR indexdownleft.outline
ENCODING 57666
SWIDTH 1100 0
DWIDTH 11 0
BBX 8 7 2 0
BITMAP
1C
1A
25
43
B2
FC
08
ENDCHAR
STARTCHAR indexdownright.outline
ENCODING 57667
SWIDTH 1100 0
DWIDTH 11 0
BBX 8 7 2 0
BITMAP
18
38
64
C2
CD
2F
10
ENDCHAR
STARTCHAR indexupleft.outline
ENCODING 57668
SWIDTH 1100 0
DWIDTH 11 0
BBX 6 9 3 -1
BITMAP
C0
60
50
C8
8C
94
68
50
20
ENDCHAR
STARTCHAR indexupright.outline
ENCODING 57669
SWIDTH 1100 0
DWIDTH 11 0
BBX 6 9 3 -1
BITMAP
0C
14
28
4C
C4
A4
58
28
10
ENDCHAR
STARTCHAR uni261A.salt
ENCODING 57670
SWIDTH 1100 0
DWIDTH 11 0
BBX 9 7 1 0
BITMAP
3D80
4380
F980
1580
1A80
1F00
1800
ENDCHAR
STARTCHAR uni261B.salt
ENCODING 57671
SWIDTH 1100 0
DWIDTH 11 0
BBX 9 7 1 0
BITMAP
2F00
5080
D700
DA00
D400
FC00
1800
ENDCHAR
STARTCHAR indexdown.salt
ENCODING 57672
SWIDTH 1100 0
DWIDTH 11 0
BBX 7 9 2 -1
BITMAP
3E
5E
62
52
6E
BA
1A
0A
0C
ENDCHAR
STARTCHAR indexdownleft.salt
ENCODING 57673
SWIDTH 1100 0
DWIDTH 11 0
BBX 9 8 1 -1
BITMAP
0600
0D00
1280
2980
5500
7D00
DE00
8400
ENDCHAR
STARTCHAR indexdownright.salt
ENCODING 57674
SWIDTH 1100 0
DWIDTH 11 0
BBX 9 8 1 -1
BITMAP
1800
2C00
5200
6100
EE80
2F80
3B00
2100
ENDCHAR
STARTCHAR indexup.salt
ENCODING 57675
SWIDTH 1100 0
DWIDTH 11 0
BBX 7 9 2 -1
BITMAP
70
50
50
58
CE
C4
7C
44
F8
ENDCHAR
STARTCHAR indexupleft.salt
ENCODING 57676
SWIDTH 1100 0
DWIDTH 11 0
BBX 7 9 2 -1
BITMAP
60
D0
E8
54
76
8A
F4
B4
38
ENDCHAR
STARTCHAR indexupright.salt
ENCODING 57677
SWIDTH 1100 0
DWIDTH 11 0
BBX 7 9 2 -1
BITMAP
06
0A
14
2A
64
92
CE
6C
30
ENDCHAR
STARTCHAR uni261C.salt
ENCODING 57678
SWIDTH 1100 0
DWIDTH 11 0
BBX 8 6 2 1
BITMAP
7B
87
7B
2B
1D
1A
ENDCHAR
STARTCHAR uni261D.salt
ENCODING 57679
SWIDTH 1100 0
DWIDTH 11 0
BBX 6 8 3 0
BITMAP
40
A0
A0
B0
9C
48
78
F8
ENDCHAR
STARTCHAR uni261E.salt
ENCODING 57680
SWIDTH 1100 0
DWIDTH 11 0
BBX 7 6 3 1
BITMAP
BC
C2
9C
A8
D0
30
ENDCHAR
STARTCHAR uni261F.salt
ENCODING 57681
SWIDTH 1100 0
DWIDTH 11 0
BBX 6 8 3 0
BITMAP
7C
5C
24
D4
6C
1C
08
08
ENDCHAR
STARTCHAR indexdownleft.salt_outline
ENCODING 57682
SWIDTH 1100 0
DWIDTH 11 0
BBX 8 7 2 0
BITMAP
0C
1A
25
53
6A
DA
04
ENDCHAR
STARTCHAR indexdownright.salt_outline
ENCODING 57683
SWIDTH 1100 0
DWIDTH 11 0
BBX 8 6 2 1
BITMAP
30
38
64
CA
35
2B
ENDCHAR
STARTCHAR indexupleft.salt_outline
ENCODING 57684
SWIDTH 1100 0
DWIDTH 11 0
BBX 6 8 3 0
BITMAP
C0
A0
50
68
AC
D4
F8
30
ENDCHAR
STARTCHAR indexupright.salt_outline
ENCODING 57685
SWIDTH 1100 0
DWIDTH 11 0
BBX 6 8 3 0
BITMAP
0C
14
28
34
C8
A4
5C
30
ENDCHAR
STARTCHAR block.v
ENCODING 57687
SWIDTH 1000 0
DWIDTH 10 0
BBX 10 12 0 -2
BITMAP
FFC0
FFC0
FFC0
FFC0
FFC0
FFC0
FFC0
FFC0
FFC0
FFC0
FFC0
FFC0
ENDCHAR
STARTCHAR uni25D6.v
ENCODING 57688
SWIDTH 1335 0
DWIDTH 13 0
BBX 11 6 1 1
BITMAP
1F00
3F80
7FC0
7FE0
FFE0
FFE0
ENDCHAR
STARTCHAR uni25D7.v
ENCODING 57689
SWIDTH 1335 0
DWIDTH 13 0
BBX 11 6 1 1
BITMAP
FFE0
FFE0
7FE0
7FC0
3FC0
1F80
ENDCHAR
STARTCHAR uni27A1.w
ENCODING 57690
SWIDTH 650 0
DWIDTH 7 0
BBX 7 16 0 -4
BITMAP
04
0C
0E
1E
3E
7E
7E
FE
FE
7E
7E
3E
1E
1E
0C
04
ENDCHAR
STARTCHAR uni27A1.n
ENCODING 57691
SWIDTH 1000 0
DWIDTH 10 0
BBX 14 8 -2 0
BITMAP
3FF0
FFFC
FFFC
7FF8
3FF0
0FC0
0780
0300
ENDCHAR
STARTCHAR uni27A1.s
ENCODING 57692
SWIDTH 1000 0
DWIDTH 10 0
BBX 14 8 -2 0
BITMAP
0200
0780
0FC0
1FE0
7FF8
FFFC
FFFC
3FF0
ENDCHAR
STARTCHAR uni2B24.salt
ENCODING 57693
SWIDTH 1280 0
DWIDTH 13 0
BBX 11 12 1 -2
BITMAP
1F00
7FC0
FFE0
FFE0
FFE0
FFE0
FFE0
FFE0
FFE0
FFE0
7FC0
3F80
ENDCHAR
STARTCHAR uni25DD.curve
ENCODING 57694
SWIDTH 1280 0
DWIDTH 13 0
BBX 11 12 1 -2
BITMAP
FE00
FF80
FFC0
FFE0
FFE0
FFE0
FFE0
FFE0
FFE0
FFE0
FFE0
FFE0
ENDCHAR
STARTCHAR uni2B1B.trapezoid_e
ENCODING 57695
SWIDTH 1280 0
DWIDTH 13 0
BBX 12 12 1 -2
BITMAP
FFF0
FFF0
FFE0
FFE0
FFE0
FFE0
FFE0
FFE0
FFC0
FFC0
FFC0
FFC0
ENDCHAR
STARTCHAR uni2B1B.trapezoid_w
ENCODING 57696
SWIDTH 1280 0
DWIDTH 13 0
BBX 12 12 0 -2
BITMAP
FFF0
FFF0
FFF0
7FF0
7FF0
7FF0
7FF0
7FF0
7FF0
3FF0
3FF0
3FF0
ENDCHAR
STARTCHAR arrowleft.chevron
ENCODING 57697
SWIDTH 1330 0
DWIDTH 13 0
BBX 13 16 0 -4
BITMAP
0400
0400
0FF8
1FF8
1FF8
3FF0
7FF0
FFF0
FFE0
7FF0
3FF0
3FF8
1FF8
0FF8
0400
0400
ENDCHAR
STARTCHAR arrowup.chevron
ENCODING 57698
SWIDTH 1280 0
DWIDTH 13 0
BBX 15 15 -1 -4
BITMAP
0380
07C0
0FE0
1FF0
3FF8
FFFE
3FF8
3FF8
3FF8
3FF8
3FF8
3FF8
3FF8
3838
2008
ENDCHAR
STARTCHAR arrowright.chevron
ENCODING 57699
SWIDTH 1330 0
DWIDTH 13 0
BBX 13 16 0 -4
BITMAP
0100
0100
FF80
FFC0
7FE0
7FE0
7FF0
3FF8
3FF8
3FF0
7FF0
7FE0
FFC0
FF80
0180
0100
ENDCHAR
STARTCHAR arrowdown.chevron
ENCODING 57700
SWIDTH 1280 0
DWIDTH 13 0
BBX 15 15 -1 -4
BITMAP
3838
3EF8
3FF8
3FF8
3FF8
3FF8
3FF8
3FF8
FFFE
7FFC
3FF8
1FE0
07C0
0380
0100
ENDCHAR
STARTCHAR uni25D6.deco
ENCODING 57701
SWIDTH 560 0
DWIDTH 6 0
BBX 6 14 0 -3
BITMAP
08
1C
3C
7C
7C
7C
7C
FC
7C
7C
7C
3C
1C
08
ENDCHAR
STARTCHAR uni25D7.deco
ENCODING 57702
SWIDTH 560 0
DWIDTH 6 0
BBX 5 14 0 -3
BITMAP
C0
E0
E0
F0
F8
F8
F8
F8
F8
F8
F8
F0
E0
C0
ENDCHAR
STARTCHAR uni25D6.v_deco
ENCODING 57703
SWIDTH 1280 0
DWIDTH 13 0
BBX 13 5 0 1
BITMAP
1FC0
3FE0
7FF0
FFF8
FFF8
ENDCHAR
STARTCHAR uni25D7.v_deco
ENCODING 57704
SWIDTH 1280 0
DWIDTH 13 0
BBX 13 6 0 1
BITMAP
7FF0
FFF8
7FF0
7FE0
3FC0
0F80
ENDCHAR
STARTCHAR uni25D6.bevel
ENCODING 57705
SWIDTH 350 0
DWIDTH 4 0
BBX 3 12 1 -2
BITMAP
20
60
E0
E0
E0
E0
E0
E0
E0
E0
E0
20
ENDCHAR
STARTCHAR uni25D7.bevel
ENCODING 57706
SWIDTH 350 0
DWIDTH 4 0
BBX 3 12 0 -2
BITMAP
80
C0
E0
E0
E0
E0
E0
E0
E0
E0
C0
80
ENDCHAR
STARTCHAR uni25D6.v_bevel
ENCODING 57707
SWIDTH 1280 0
DWIDTH 13 0
BBX 11 4 1 2
BITMAP
3F80
7FC0
7FC0
FFE0
ENDCHAR
STARTCHAR uni25D7.v_bevel
ENCODING 57708
SWIDTH 1280 0
DWIDTH 13 0
BBX 11 4 1 2
BITMAP
FFE0
FFE0
7FC0
3F80
ENDCHAR
STARTCHAR uni25D6.spike
ENCODING 57709
SWIDTH 350 0
DWIDTH 4 0
BBX 4 12 0 -2
BITMAP
70
70
30
30
70
70
F0
70
30
30
70
70
ENDCHAR
STARTCHAR uni25D7.spike
ENCODING 57710
SWIDTH 350 0
DWIDTH 4 0
BBX 3 12 0 -2
BITMAP
E0
C0
C0
80
C0
E0
E0
C0
80
C0
C0
E0
ENDCHAR
STARTCHAR uni25D6.v_spike
ENCODING 57711
SWIDTH 1280 0
DWIDTH 13 0
BBX 11 4 1 2
BITMAP
0400
CE60
FFE0
FFE0
ENDCHAR
STARTCHAR uni25D7.v_spike
ENCODING 57712
SWIDTH 1280 0
DWIDTH 13 0
BBX 11 4 1 2
BITMAP
FFE0
FFE0
EE60
0400
ENDCHAR
STARTCHAR uni25D6.square
ENCODING 57713
SWIDTH 350 0
DWIDTH 4 0
BBX 3 12 1 -2
BITMAP
E0
E0
E0
E0
E0
E0
E0
E0
E0
E0
E0
E0
ENDCHAR
STARTCHAR uni25D7.square
ENCODING 57714
SWIDTH 350 0
DWIDTH 4 0
BBX 3 12 0 -2
BITMAP
C0
E0
E0
E0
E0
E0
E0
E0
E0
E0
E0
C0
ENDCHAR
STARTCHAR uni25D6.v_square
ENCODING 57715
SWIDTH 1280 0
DWIDTH 13 0
BBX 11 3 1 2
BITMAP
FFE0
FFE0
FFE0
ENDCHAR
STARTCHAR uni25D7.v_square
ENCODING 57716
SWIDTH 1280 0
DWIDTH 13 0
BBX 11 3 1 2
BITMAP
FFE0
FFE0
FFE0
ENDCHAR
STARTCHAR uni25D6.rounded
ENCODING 57717
SWIDTH 350 0
DWIDTH 4 0
BBX 3 12 1 -2
BITMAP
60
E0
E0
E0
E0
E0
E0
E0
E0
E0
E0
60
ENDCHAR
STARTCHAR uni25D7.rounded
ENCODING 57718
SWIDTH 350 0
DWIDTH 4 0
BBX 3 12 0 -2
BITMAP
80
C0
C0
E0
E0
E0
E0
E0
E0
E0
C0
C0
ENDCHAR
STARTCHAR uni25D6.v_rounded
ENCODING 57719
SWIDTH 1280 0
DWIDTH 13 0
BBX 11 4 1 2
BITMAP
0E00
7FC0
FFE0
FFE0
ENDCHAR
STARTCHAR uni25D7.v_rounded
ENCODING 57720
SWIDTH 1280 0
DWIDTH 13 0
BBX 11 4 1 2
BITMAP
FFE0
FFE0
FFC0
3F80
ENDCHAR
STARTCHAR uni21AB.arrow
ENCODING 57721
SWIDTH 1000 0
DWIDTH 10 0
BBX 13 20 -1 -10
BITMAP
7800
7F00
7F80
7FC0
7FC0
7FE0
7FE0
7FE0
7FE0
7FE0
7FE0
7FE0
3FE0
FFF8
7FF0
3FE0
1FC0
0F80
0700
0200
ENDCHAR
STARTCHAR uni21AC.arrow
ENCODING 57722
SWIDTH 1000 0
DWIDTH 10 0
BBX 13 20 -1 -2
BITMAP
0200
0700
0F80
1FC0
3FE0
7FF0
FFF8
3FE0
7FE0
7FE0
7FE0
7FE0
7FE0
7FE0
7FE0
7FC0
7FC0
7F80
7F00
7C00
ENDCHAR
STARTCHAR uni21AB.v_arrow
ENCODING 57723
SWIDTH 1335 0
DWIDTH 13 0
BBX 18 13 -6 -3
BITMAP
05FFC0
0DFFC0
1FFFC0
3FFFC0
3FFFC0
7FFFC0
FFFFC0
FFFF80
7FFF80
3FFF00
1FFC00
0C0000
040000
ENDCHAR
STARTCHAR uni21AC.v_arrow
ENCODING 57724
SWIDTH 1335 0
DWIDTH 13 0
BBX 18 13 1 -3
BITMAP
FFE800
FFEC00
FFFE00
FFFF00
FFFF80
FFFFC0
7FFFC0
7FFFC0
3FFF80
3FFF00
0FFE00
000C00
000C00
ENDCHAR
STARTCHAR uni25D6.wings
ENCODING 57725
SWIDTH 900 0
DWIDTH 9 0
BBX 9 16 0 -4
BITMAP
3E00
3F00
FF80
FF80
FF80
FF80
FF80
FF80
FF80
FF80
FF80
FF80
FF80
FF80
3F00
3E00
ENDCHAR
STARTCHAR uni25D7.wings
ENCODING 57726
SWIDTH 900 0
DWIDTH 9 0
BBX 9 16 0 -4
BITMAP
3E00
7E00
FF80
FF80
FF80
FF80
FF80
FF80
FF80
FF80
FF80
FF80
FF80
FF80
7E00
3E00
ENDCHAR
STARTCHAR uni25D6.v_wings
ENCODING 57727
SWIDTH 1280 0
DWIDTH 13 0
BBX 15 10 -1 -1
BITMAP
3FF8
3FF8
FFFE
FFFE
FFFE
FFFE
FFFE
FFFE
3FF8
3FF8
ENDCHAR
STARTCHAR uni25D7.v_wings
ENCODING 57728
SWIDTH 1280 0
DWIDTH 13 0
BBX 15 10 -1 -1
BITMAP
3FF8
3FF8
FFFE
FFFE
FFFE
FFFE
FFFE
FFFE
3FF8
3FF8
ENDCHAR
STARTCHAR uni2B1B.chevron_e
ENCODING 57729
SWIDTH 1280 0
DWIDTH 13 0
BBX 13 12 0 -2
BITMAP
FFE0
FFE0
7FE0
7FF0
7FF0
3FF8
3FF8
3FF0
7FF0
7FF0
FFE0
FFE0
ENDCHAR
STARTCHAR uni2B1B.chevron_n
ENCODING 57730
SWIDTH 1280 0
DWIDTH 13 0
BBX 11 14 1 -3
BITMAP
0400
3F00
FFE0
FFE0
FFE0
FFE0
FFE0
FFE0
FFE0
FFE0
FFE0
FFE0
F1E0
8060
ENDCHAR
STARTCHAR uni2B1B.chevron_s
ENCODING 57731
SWIDTH 1280 0
DWIDTH 13 0
BBX 11 14 1 -3
BITMAP
8020
E1E0
FFE0
FFE0
FFE0
FFE0
FFE0
FFE0
FFE0
FFE0
FFE0
FFE0
3F80
0C00
ENDCHAR
STARTCHAR uni2B1B.chevron_w
ENCODING 57732
SWIDTH 1280 0
DWIDTH 13 0
BBX 13 12 0 -2
BITMAP
3FF8
3FF0
7FF0
7FF0
7FE0
FFE0
FFE0
FFE0
7FF0
7FF0
3FF0
3FF8
ENDCHAR
STARTCHAR uni2B1B.semichevron_e
ENCODING 57733
SWIDTH 650 0
DWIDTH 7 0
BBX 7 12 0 -2
BITMAP
FE
FE
7E
7E
7E
3E
3E
3E
7E
7E
FE
FE
ENDCHAR
STARTCHAR uni2B1B.semichevron_w
ENCODING 57734
SWIDTH 650 0
DWIDTH 7 0
BBX 6 12 0 -2
BITMAP
FC
FC
FC
F8
F8
F8
F8
F8
F8
FC
FC
FC
ENDCHAR
STARTCHAR uni2B1B.semichevron_n
ENCODING 57735
SWIDTH 1000 0
DWIDTH 10 0
BBX 10 8 0 0
BITMAP
8040
C0C0
FFC0
FFC0
FFC0
FFC0
FFC0
FFC0
ENDCHAR
STARTCHAR uni2B1B.semichevron_s
ENCODING 57736
SWIDTH 1000 0
DWIDTH 10 0
BBX 10 8 0 0
BITMAP
FFC0
FFC0
FFC0
FFC0
FFC0
FFC0
E1C0
8040
ENDCHAR
STARTCHAR space.v
ENCODING 57737
SWIDTH 1000 0
DWIDTH 10 0
BBX 1 1 0 0
BITMAP
00
ENDCHAR
STARTCHAR Agrave.v
ENCODING 57738
SWIDTH 1000 0
DWIDTH 10 0
BBX 8 11 1 -1
BITMAP
3E
7E
7E
2A
55
5A
63
FF
EB
C9
FE
ENDCHAR
STARTCHAR Aacute.v
ENCODING 57739
SWIDTH 1000 0
DWIDTH 10 0
BBX 8 11 1 -1
BITMAP
1E
2E
7C
6A
55
5A
63
FF
EB
C9
FE
ENDCHAR
STARTCHAR Acircumflex.v
ENCODING 57740
SWIDTH 1000 0
DWIDTH 10 0
BBX 8 11 1 -1
BITMAP
3E
36
7E
6A
55
5A
63
FF
EB
C9
FE
ENDCHAR
STARTCHAR Atilde.v
ENCODING 57741
SWIDTH 1000 0
DWIDTH 10 0
BBX 8 11 1 -1
BITMAP
3E
3E
7C
6A
55
5A
63
FF
EB
C9
FE
ENDCHAR
STARTCHAR Adieresis.v
ENCODING 57742
SWIDTH 1000 0
DWIDTH 10 0
BBX 8 11 1 -1
BITMAP
3E
5E
7E
6A
55
5A
63
FF
EB
C9
FE
ENDCHAR
STARTCHAR Aring.v
ENCODING 57743
SWIDTH 1000 0
DWIDTH 10 0
BBX 8 11 1 -1
BITMAP
3E
3E
7E
6A
55
6A
63
FF
EB
C9
FE
ENDCHAR
STARTCHAR Amacron.v
ENCODING 57744
SWIDTH 1000 0
DWIDTH 10 0
BBX 8 11 1 -1
BITMAP
1E
62
7C
6A
55
5A
63
FF
EB
C9
FE
ENDCHAR
STARTCHAR Abreve.v
ENCODING 57745
SWIDTH 1000 0
DWIDTH 10 0
BBX 8 11 1 -1
BITMAP
3E
76
7C
2A
55
5A
63
FF
EB
C9
FE
ENDCHAR
STARTCHAR Aogonek.v
ENCODING 57746
SWIDTH 1000 0
DWIDTH 10 0
BBX 8 11 1 -3
BITMAP
3E
3E
5D
6B
FF
E3
EB
DB
EB
0D
0E
ENDCHAR
STARTCHAR Ccedilla.v
ENCODING 57747
SWIDTH 1000 0
DWIDTH 10 0
BBX 8 10 1 -2
BITMAP
3F
5F
EE
EC
F0
EF
DF
F9
66
38
ENDCHAR
STARTCHAR Cacute.v
ENCODING 57748
SWIDTH 1000 0
DWIDTH 10 0
BBX 8 11 1 -1
BITMAP
1E
2E
7C
5F
61
EE
F0
F0
FF
C1
7E
ENDCHAR
STARTCHAR Ccircumflex.v
ENCODING 57749
SWIDTH 1000 0
DWIDTH 10 0
BBX 8 11 1 -1
BITMAP
1E
26
7E
5F
61
EE
F0
F0
FF
C1
7E
ENDCHAR
STARTCHAR Cdotaccent.v
ENCODING 57750
SWIDTH 1000 0
DWIDTH 10 0
BBX 8 11 1 -1
BITMAP
1C
3C
3C
5F
61
EE
F0
F0
FF
C1
7E
ENDCHAR
STARTCHAR Ccaron.v
ENCODING 57751
SWIDTH 1000 0
DWIDTH 10 0
BBX 8 11 1 -1
BITMAP
3E
6E
7C
5F
61
EE
F0
F0
FF
C1
7E
ENDCHAR
STARTCHAR Dcaron.v
ENCODING 57752
SWIDTH 1000 0
DWIDTH 10 0
BBX 8 11 1 -1
BITMAP
3E
7E
7E
5D
E3
EB
EB
EB
FF
C3
FC
ENDCHAR
STARTCHAR Egrave.v
ENCODING 57753
SWIDTH 1000 0
DWIDTH 10 0
BBX 8 11 1 -1
BITMAP
3E
7E
7E
5F
E1
EE
FE
EC
FF
C1
FE
ENDCHAR
STARTCHAR Eacute.v
ENCODING 57754
SWIDTH 1000 0
DWIDTH 10 0
BBX 8 11 1 -1
BITMAP
1E
2E
7C
5F
E1
EE
FE
EC
FF
C1
FE
ENDCHAR
STARTCHAR Ecircumflex.v
ENCODING 57755
SWIDTH 1000 0
DWIDTH 10 0
BBX 8 11 1 -1
BITMAP
3E
36
7E
5F
E1
EE
FE
EC
FF
C1
FE
ENDCHAR
STARTCHAR Edieresis.v
ENCODING 57756
SWIDTH 1000 0
DWIDTH 10 0
BBX 8 11 1 -1
BITMAP
3E
5E
7E
5F
E1
EE
FE
EC
FF
C1
FE
ENDCHAR
STARTCHAR Emacron.v
ENCODING 57757
SWIDTH 1000 0
DWIDTH 10 0
BBX 8 11 1 -1
BITMAP
1E
62
7C
5F
E1
EE
FE
EC
FF
C1
FE
ENDCHAR
STARTCHAR Ebreve.v
ENCODING 57758
SWIDTH 1000 0
DWIDTH 10 0
BBX 8 11 1 -1
BITMAP
3E
76
7C
5F
E1
EE
FE
EC
FF
C1
FE
ENDCHAR
STARTCHAR Edotaccent.v
ENCODING 57759
SWIDTH 1000 0
DWIDTH 10 0
BBX 8 11 1 -1
BITMAP
1C
3C
3C
5F
E1
EE
FE
EC
FF
C1
FE
ENDCHAR
STARTCHAR Eogonek.v
ENCODING 57760
SWIDTH 1000 0
DWIDTH 10 0
BBX 8 11 1 -3
BITMAP
7F
FF
EE
FE
E2
EE
DF
C3
FF
0D
0E
ENDCHAR
STARTCHAR Ecaron.v
ENCODING 57761
SWIDTH 1000 0
DWIDTH 10 0
BBX 8 11 1 -1
BITMAP
3E
7E
7C
5F
E1
EE
FE
EC
FF
C1
FE
ENDCHAR
STARTCHAR Gcircumflex.v
ENCODING 57762
SWIDTH 1000 0
DWIDTH 10 0
BBX 8 11 1 -1
BITMAP
3E
36
7E
5D
63
EC
F7
EB
FF
C1
7E
ENDCHAR
STARTCHAR Gbreve.v
ENCODING 57763
SWIDTH 1000 0
DWIDTH 10 0
BBX 8 11 1 -1
BITMAP
3E
76
7E
5D
63
EC
F7
EB
FF
C1
7E
ENDCHAR
STARTCHAR Gdotaccent.v
ENCODING 57764
SWIDTH 1000 0
DWIDTH 10 0
BBX 8 11 1 -1
BITMAP
1C
3C
3E
5D
63
EC
F7
EB
FF
C1
7E
ENDCHAR
STARTCHAR Gcommaaccent.v
ENCODING 57765
SWIDTH 1000 0
DWIDTH 10 0
BBX 8 12 1 -4
BITMAP
3F
5D
EE
EC
FB
EB
DF
E5
7A
34
3C
38
ENDCHAR
STARTCHAR Hcircumflex.v
ENCODING 57766
SWIDTH 1000 0
DWIDTH 10 0
BBX 8 11 1 -1
BITMAP
3E
36
7E
59
EB
E3
FF
EB
EB
C9
FE
ENDCHAR
STARTCHAR Igrave.v
ENCODING 57767
SWIDTH 1000 0
DWIDTH 10 0
BBX 8 11 1 -1
BITMAP
3E
7E
7E
57
C9
EA
2C
2C
5F
C1
FE
ENDCHAR
STARTCHAR Iacute.v
ENCODING 57768
SWIDTH 1000 0
DWIDTH 10 0
BBX 8 11 1 -1
BITMAP
1E
2E
7C
57
C9
EA
2C
2C
5F
C1
FE
ENDCHAR
STARTCHAR Icircumflex.v
ENCODING 57769
SWIDTH 1000 0
DWIDTH 10 0
BBX 8 11 1 -1
BITMAP
3E
36
7E
57
C9
EA
2C
2C
5F
C1
FE
ENDCHAR
STARTCHAR Idieresis.v
ENCODING 57770
SWIDTH 1000 0
DWIDTH 10 0
BBX 8 11 1 -1
BITMAP
3E
5E
7E
57
C9
EA
2C
2C
5F
C1
FE
ENDCHAR
STARTCHAR Itilde.v
ENCODING 57771
SWIDTH 1000 0
DWIDTH 10 0
BBX 8 11 1 -1
BITMAP
3E
3E
7C
57
C9
EA
2C
2C
5F
C1
FE
ENDCHAR
STARTCHAR Imacron.v
ENCODING 57772
SWIDTH 1000 0
DWIDTH 10 0
BBX 8 11 1 -1
BITMAP
1E
62
7C
57
C9
EA
2C
2C
5F
C1
FE
ENDCHAR
STARTCHAR Ibreve.v
ENCODING 57773
SWIDTH 1000 0
DWIDTH 10 0
BBX 8 11 1 -1
BITMAP
3E
76
7C
57
C9
EA
2C
2C
5F
C1
FE
ENDCHAR
STARTCHAR Iogonek.v
ENCODING 57774
SWIDTH 1000 0
DWIDTH 10 0
BBX 8 11 1 -3
BITMAP
7F
DF
EA
EA
2C
2A
5F
C3
FF
0D
0E
ENDCHAR
STARTCHAR Idotaccent.v
ENCODING 57775
SWIDTH 1000 0
DWIDTH 10 0
BBX 8 11 1 -1
BITMAP
1C
3C
3C
57
C9
EA
2C
2C
5F
C1
FE
ENDCHAR
STARTCHAR Jcircumflex.v
ENCODING 57776
SWIDTH 1000 0
DWIDTH 10 0
BBX 8 11 1 -1
BITMAP
1F
2B
3F
29
0B
3B
4B
EB
F3
CD
7E
ENDCHAR
STARTCHAR Kcommaaccent.v
ENCODING 57777
SWIDTH 1000 0
DWIDTH 10 0
BBX 8 12 1 -4
BITMAP
77
ED
EE
FD
E3
EB
EB
CD
FA
34
3C
38
ENDCHAR
STARTCHAR Lacute.v
ENCODING 57778
SWIDTH 1000 0
DWIDTH 10 0
BBX 8 11 1 -1
BITMAP
3C
5C
F8
D0
F0
F2
F5
EB
FF
C1
FE
ENDCHAR
STARTCHAR Lcommaaccent.v
ENCODING 57779
SWIDTH 1000 0
DWIDTH 10 0
BBX 8 12 1 -4
BITMAP
70
F0
F0
F7
EB
EB
FF
C5
FA
34
3C
38
ENDCHAR
STARTCHAR Lcaron.v
ENCODING 57780
SWIDTH 1000 0
DWIDTH 10 0
BBX 8 9 1 -1
BITMAP
77
EF
E9
EE
F5
EB
FF
C1
FE
ENDCHAR
STARTCHAR Ntilde.v
ENCODING 57781
SWIDTH 1000 0
DWIDTH 10 0
BBX 8 11 1 -1
BITMAP
3E
3E
7E
49
D7
EB
E7
EB
EB
C9
FE
ENDCHAR
STARTCHAR Nacute.v
ENCODING 57782
SWIDTH 1000 0
DWIDTH 10 0
BBX 8 11 1 -1
BITMAP
1E
2E
7E
49
D7
EB
E7
EB
EB
C9
FE
ENDCHAR
STARTCHAR Ncommaaccent.v
ENCODING 57783
SWIDTH 1000 0
DWIDTH 10 0
BBX 8 12 1 -4
BITMAP
77
EB
F7
EB
EF
EB
EB
CD
FA
34
3C
38
ENDCHAR
STARTCHAR Ncaron.v
ENCODING 57784
SWIDTH 1000 0
DWIDTH 10 0
BBX 8 11 1 -1
BITMAP
3E
7E
7E
49
D7
EB
E7
EB
EB
C9
FE
ENDCHAR
STARTCHAR Ograve.v
ENCODING 57785
SWIDTH 1000 0
DWIDTH 10 0
BBX 8 11 1 -1
BITMAP
3E
7E
7E
5D
63
EB
EB
EB
F3
CD
7E
ENDCHAR
STARTCHAR Oacute.v
ENCODING 57786
SWIDTH 1000 0
DWIDTH 10 0
BBX 8 11 1 -1
BITMAP
1E
2E
7E
5D
63
EB
EB
EB
F3
CD
7E
ENDCHAR
STARTCHAR Ocircumflex.v
ENCODING 57787
SWIDTH 1000 0
DWIDTH 10 0
BBX 8 11 1 -1
BITMAP
3E
36
7E
5D
63
EB
EB
EB
F3
CD
7E
ENDCHAR
STARTCHAR Otilde.v
ENCODING 57788
SWIDTH 1000 0
DWIDTH 10 0
BBX 8 11 1 -1
BITMAP
3E
3E
7E
5D
63
EB
EB
EB
F3
CD
7E
ENDCHAR
STARTCHAR Odieresis.v
ENCODING 57789
SWIDTH 1000 0
DWIDTH 10 0
BBX 8 11 1 -1
BITMAP
3E
5E
7E
5D
63
EB
EB
EB
F3
CD
7E
ENDCHAR
STARTCHAR Omacron.v
ENCODING 57790
SWIDTH 1000 0
DWIDTH 10 0
BBX 8 11 1 -1
BITMAP
1E
62
7E
5D
63
EB
EB
EB
F3
CD
7E
ENDCHAR
STARTCHAR Obreve.v
ENCODING 57791
SWIDTH 1000 0
DWIDTH 10 0
BBX 8 11 1 -1
BITMAP
3E
76
7E
5D
63
EB
EB
EB
F3
CD
7E
ENDCHAR
STARTCHAR Ohungarumlaut.v
ENCODING 57792
SWIDTH 1000 0
DWIDTH 10 0
BBX 8 12 1 -1
BITMAP
3F
3A
6A
7E
5D
63
EB
EB
EB
F3
CD
7E
ENDCHAR
STARTCHAR Racute.v
ENCODING 57793
SWIDTH 1000 0
DWIDTH 10 0
BBX 8 11 1 -1
BITMAP
3E
5E
7E
5D
E2
EA
FD
E3
EB
C9
FE
ENDCHAR
STARTCHAR Rcommaaccent.v
ENCODING 57794
SWIDTH 1000 0
DWIDTH 10 0
BBX 8 12 1 -4
BITMAP
7E
FD
EA
E2
FF
EB
EB
CD
FA
34
3C
38
ENDCHAR
STARTCHAR Rcaron.v
ENCODING 57795
SWIDTH 1000 0
DWIDTH 10 0
BBX 8 11 1 -1
BITMAP
3E
7E
7E
5D
E2
EA
FD
E3
EB
C9
FE
ENDCHAR
STARTCHAR Sacute.v
ENCODING 57796
SWIDTH 1000 0
DWIDTH 10 0
BBX 8 11 1 -1
BITMAP
1E
2E
7C
57
69
E6
DD
FB
5F
C1
FE
ENDCHAR
STARTCHAR Scircumflex.v
ENCODING 57797
SWIDTH 1000 0
DWIDTH 10 0
BBX 8 11 1 -1
BITMAP
3E
36
7E
57
69
E6
DD
FB
5F
C1
FE
ENDCHAR
STARTCHAR Scedilla.v
ENCODING 57798
SWIDTH 1000 0
DWIDTH 10 0
BBX 8 10 1 -2
BITMAP
3F
5F
EE
F9
C7
7B
5D
CA
E4
38
ENDCHAR
STARTCHAR Scaron.v
ENCODING 57799
SWIDTH 1000 0
DWIDTH 10 0
BBX 8 11 1 -1
BITMAP
3E
7E
7C
57
69
E6
DD
FB
5F
C1
FE
ENDCHAR
STARTCHAR Scommaaccent.v
ENCODING 57800
SWIDTH 1000 0
DWIDTH 10 0
BBX 8 12 1 -4
BITMAP
3F
5F
EE
F9
C7
7B
5D
C2
FC
34
3C
38
ENDCHAR
STARTCHAR Tcommaaccent.v
ENCODING 57801
SWIDTH 1000 0
DWIDTH 10 0
BBX 8 11 1 -3
BITMAP
7F
DF
EA
EA
2C
2C
34
2C
34
3C
38
ENDCHAR
STARTCHAR Tcaron.v
ENCODING 57802
SWIDTH 1000 0
DWIDTH 10 0
BBX 8 11 1 -1
BITMAP
3E
7E
7C
57
C9
EA
2C
2C
2C
24
38
ENDCHAR
STARTCHAR Ugrave.v
ENCODING 57803
SWIDTH 1000 0
DWIDTH 10 0
BBX 8 11 1 -1
BITMAP
3E
7E
7E
49
EB
EB
EB
EB
F3
CD
7E
ENDCHAR
STARTCHAR Uacute.v
ENCODING 57804
SWIDTH 1000 0
DWIDTH 10 0
BBX 8 11 1 -1
BITMAP
1E
2E
7E
59
EB
EB
EB
EB
F3
CD
7E
ENDCHAR
STARTCHAR Ucircumflex.v
ENCODING 57805
SWIDTH 1000 0
DWIDTH 10 0
BBX 8 11 1 -1
BITMAP
3E
36
7E
59
EB
EB
EB
EB
F3
CD
7E
ENDCHAR
STARTCHAR Udieresis.v
ENCODING 57806
SWIDTH 1000 0
DWIDTH 10 0
BBX 8 11 1 -1
BITMAP
3E
5E
7E
49
EB
EB
EB
EB
F3
CD
7E
ENDCHAR
STARTCHAR Utilde.v
ENCODING 57807
SWIDTH 1000 0
DWIDTH 10 0
BBX 8 11 1 -1
BITMAP
3E
3E
7E
49
EB
EB
EB
EB
F3
CD
7E
ENDCHAR
STARTCHAR Umacron.v
ENCODING 57808
SWIDTH 1000 0
DWIDTH 10 0
BBX 8 11 1 -1
BITMAP
1E
62
7E
49
EB
EB
EB
EB
F3
CD
7E
ENDCHAR
STARTCHAR Ubreve.v
ENCODING 57809
SWIDTH 1000 0
DWIDTH 10 0
BBX 8 11 1 -1
BITMAP
3E
76
7E
49
EB
EB
EB
EB
F3
CD
7E
ENDCHAR
STARTCHAR Uring.v
ENCODING 57810
SWIDTH 1000 0
DWIDTH 10 0
BBX 8 13 1 -1
BITMAP
1E
26
5A
6E
7E
49
EB
EB
EB
EB
F3
CD
7E
ENDCHAR
STARTCHAR Uhungarumlaut.v
ENCODING 57811
SWIDTH 1000 0
DWIDTH 10 0
BBX 8 12 1 -1
BITMAP
3F
35
6A
7E
49
EB
EB
EB
EB
F3
CD
7E
ENDCHAR
STARTCHAR Uogonek.v
ENCODING 57812
SWIDTH 1000 0
DWIDTH 10 0
BBX 8 11 1 -3
BITMAP
77
EB
EB
EB
EB
EB
D5
EE
7A
36
38
ENDCHAR
STARTCHAR Wcircumflex.v
ENCODING 57813
SWIDTH 1000 0
DWIDTH 10 0
BBX 8 11 1 -1
BITMAP
3E
36
7E
55
AF
B7
AB
F7
FF
C9
7E
ENDCHAR
STARTCHAR Wgrave.v
ENCODING 57814
SWIDTH 1000 0
DWIDTH 10 0
BBX 8 11 1 -1
BITMAP
3E
7E
7E
4D
AF
B7
AB
F7
FF
C9
7E
ENDCHAR
STARTCHAR Wacute.v
ENCODING 57815
SWIDTH 1000 0
DWIDTH 10 0
BBX 8 11 1 -1
BITMAP
1E
2E
7E
55
AF
B7
AB
F7
FF
C9
7E
ENDCHAR
STARTCHAR Wdieresis.v
ENCODING 57816
SWIDTH 1000 0
DWIDTH 10 0
BBX 8 11 1 -1
BITMAP
3F
5A
7E
4D
AF
B7
AB
F7
FF
C9
7E
ENDCHAR
STARTCHAR Yacute.v
ENCODING 57817
SWIDTH 1000 0
DWIDTH 10 0
BBX 8 11 1 -1
BITMAP
1E
2E
7E
55
EB
EB
D5
6A
6C
24
38
ENDCHAR
STARTCHAR Ycircumflex.v
ENCODING 57818
SWIDTH 1000 0
DWIDTH 10 0
BBX 8 11 1 -1
BITMAP
3E
36
7E
55
EB
EB
D5
6A
6C
24
38
ENDCHAR
STARTCHAR Ydieresis.v
ENCODING 57819
SWIDTH 1000 0
DWIDTH 10 0
BBX 8 11 1 -1
BITMAP
3F
5D
7E
49
EB
EB
D5
6A
6C
24
38
ENDCHAR
STARTCHAR Ygrave.v
ENCODING 57820
SWIDTH 1000 0
DWIDTH 10 0
BBX 8 11 1 -1
BITMAP
3E
7E
7E
49
EB
EB
D5
6A
6C
24
38
ENDCHAR
STARTCHAR Zacute.v
ENCODING 57821
SWIDTH 1000 0
DWIDTH 10 0
BBX 8 11 1 -1
BITMAP
1E
2E
7E
55
CB
F5
2A
54
7F
C1
FE
ENDCHAR
STARTCHAR Zdotaccent.v
ENCODING 57822
SWIDTH 1000 0
DWIDTH 10 0
BBX 8 11 1 -1
BITMAP
1C
3C
3E
55
CB
F5
2A
54
7F
C1
FE
ENDCHAR
STARTCHAR Zcaron.v
ENCODING 57823
SWIDTH 1000 0
DWIDTH 10 0
BBX 8 11 1 -1
BITMAP
3E
7E
7E
55
CB
F5
2A
54
7F
C1
FE
ENDCHAR
STARTCHAR AE.v
ENCODING 57824
SWIDTH 1000 0
DWIDTH 10 0
BBX 8 9 1 -1
BITMAP
3F
5F
57
69
B7
BE
B7
91
FE
ENDCHAR
STARTCHAR Eth.v
ENCODING 57825
SWIDTH 1000 0
DWIDTH 10 0
BBX 8 9 1 -1
BITMAP
7E
FD
EB
A7
B7
EB
FF
C3
FC
ENDCHAR
STARTCHAR Oslash.v
ENCODING 57826
SWIDTH 1000 0
DWIDTH 10 0
BBX 8 11 1 -2
BITMAP
06
3A
5D
EB
FF
EF
EF
F3
DD
4E
70
ENDCHAR
STARTCHAR Thorn.v
ENCODING 57827
SWIDTH 1000 0
DWIDTH 10 0
BBX 8 9 1 -1
BITMAP
70
EE
FD
EB
EF
FF
E3
CC
F0
ENDCHAR
STARTCHAR Dcroat.v
ENCODING 57828
SWIDTH 1000 0
DWIDTH 10 0
BBX 8 9 1 -1
BITMAP
7E
FD
EB
A7
B7
EB
FF
C3
FC
ENDCHAR
STARTCHAR Hbar.v
ENCODING 57829
SWIDTH 1000 0
DWIDTH 10 0
BBX 8 9 1 -1
BITMAP
77
EB
BF
EB
E3
FF
EB
C9
FE
ENDCHAR
STARTCHAR IJ.v
ENCODING 57830
SWIDTH 1000 0
DWIDTH 10 0
BBX 8 9 1 -1
BITMAP
77
EB
EB
EB
FB
EB
5F
C3
FC
ENDCHAR
STARTCHAR Ldot.v
ENCODING 57831
SWIDTH 1000 0
DWIDTH 10 0
BBX 8 12 1 -4
BITMAP
70
F0
F0
F7
EB
EB
FF
CD
F2
3A
3C
38
ENDCHAR
STARTCHAR Lslash.v
ENCODING 57832
SWIDTH 1000 0
DWIDTH 10 0
BBX 8 9 1 -1
BITMAP
70
F0
E8
B6
A9
EB
FF
C1
FE
ENDCHAR
STARTCHAR Eng.v
ENCODING 57833
SWIDTH 1000 0
DWIDTH 10 0
BBX 8 10 1 -2
BITMAP
3E
5F
EB
EB
EB
EB
EB
CF
F3
1C
ENDCHAR
STARTCHAR OE.v
ENCODING 57834
SWIDTH 1000 0
DWIDTH 10 0
BBX 8 9 1 -1
BITMAP
3F
7F
B7
B5
B7
B6
FF
C1
7E
ENDCHAR
STARTCHAR Tbar.v
ENCODING 57835
SWIDTH 1000 0
DWIDTH 10 0
BBX 8 9 1 -1
BITMAP
7F
DF
EA
2A
5E
6A
6C
24
38
ENDCHAR
STARTCHAR Germandbls.v
ENCODING 57836
SWIDTH 1000 0
DWIDTH 10 0
BBX 8 9 1 -1
BITMAP
7E
FD
ED
ED
EB
EF
EF
C9
FE
ENDCHAR
STARTCHAR A.salt_v
ENCODING 57837
SWIDTH 1000 0
DWIDTH 10 0
BBX 8 9 1 -1
BITMAP
3E
5F
EB
EB
E3
FF
EB
C9
FE
ENDCHAR
STARTCHAR Agrave.salt_v
ENCODING 57838
SWIDTH 1000 0
DWIDTH 10 0
BBX 8 11 1 -1
BITMAP
3E
7E
7E
5D
63
EB
E3
FF
EB
C9
FE
ENDCHAR
STARTCHAR Aacute.salt_v
ENCODING 57839
SWIDTH 1000 0
DWIDTH 10 0
BBX 8 11 1 -1
BITMAP
1E
2E
7E
5D
63
EB
E3
FF
EB
C9
FE
ENDCHAR
STARTCHAR Acircumflex.salt_v
ENCODING 57840
SWIDTH 1000 0
DWIDTH 10 0
BBX 8 11 1 -1
BITMAP
3E
36
7E
5D
63
EB
E3
FF
EB
C9
FE
ENDCHAR
STARTCHAR Atilde.salt_v
ENCODING 57841
SWIDTH 1000 0
DWIDTH 10 0
BBX 8 11 1 -1
BITMAP
3E
3E
7E
5D
63
EB
E3
FF
EB
C9
FE
ENDCHAR
STARTCHAR Adieresis.salt_v
ENCODING 57842
SWIDTH 1000 0
DWIDTH 10 0
BBX 8 11 1 -1
BITMAP
3E
5E
7E
5D
63
EB
E3
FF
EB
C9
FE
ENDCHAR
STARTCHAR Aring.salt_v
ENCODING 57843
SWIDTH 1000 0
DWIDTH 10 0
BBX 8 11 1 -1
BITMAP
3E
5E
7E
5D
63
EB
E3
FF
EB
C9
FE
ENDCHAR
STARTCHAR Amacron.salt_v
ENCODING 57844
SWIDTH 1000 0
DWIDTH 10 0
BBX 8 11 1 -1
BITMAP
1E
62
7E
5D
63
EB
E3
FF
EB
C9
FE
ENDCHAR
STARTCHAR Abreve.salt_v
ENCODING 57845
SWIDTH 1000 0
DWIDTH 10 0
BBX 8 11 1 -1
BITMAP
3E
76
7E
5D
63
EB
E3
FF
EB
C9
FE
ENDCHAR
STARTCHAR Aogonek.salt_v
ENCODING 57846
SWIDTH 1000 0
DWIDTH 10 0
BBX 8 11 1 -3
BITMAP
2E
5D
63
EB
E3
FF
EB
CB
FB
09
0E
ENDCHAR
STARTCHAR E.salt_v
ENCODING 57847
SWIDTH 1000 0
DWIDTH 10 0
BBX 8 9 1 -1
BITMAP
3F
5F
EE
E2
FE
EC
FF
C1
7E
ENDCHAR
STARTCHAR Egrave.salt_v
ENCODING 57848
SWIDTH 1000 0
DWIDTH 10 0
BBX 8 11 1 -1
BITMAP
3E
7E
7E
5F
61
EE
FE
EC
FF
C1
7E
ENDCHAR
STARTCHAR Eacute.salt_v
ENCODING 57849
SWIDTH 1000 0
DWIDTH 10 0
BBX 8 11 1 -1
BITMAP
1E
2E
7C
5F
61
EE
FE
EC
FF
C1
7E
ENDCHAR
STARTCHAR Ecircumflex.salt_v
ENCODING 57850
SWIDTH 1000 0
DWIDTH 10 0
BBX 8 11 1 -1
BITMAP
3E
36
7E
5F
61
EE
FE
EC
FF
C1
7E
ENDCHAR
STARTCHAR Edieresis.salt_v
ENCODING 57851
SWIDTH 1000 0
DWIDTH 10 0
BBX 8 11 1 -1
BITMAP
3E
5E
7E
5F
61
EE
FE
EC
FF
C1
7E
ENDCHAR
STARTCHAR Emacron.salt_v
ENCODING 57852
SWIDTH 1000 0
DWIDTH 10 0
BBX 8 11 1 -1
BITMAP
1E
62
7C
5F
61
EE
FE
EC
FF
C1
7E
ENDCHAR
STARTCHAR Ebreve.salt_v
ENCODING 57853
SWIDTH 1000 0
DWIDTH 10 0
BBX 8 11 1 -1
BITMAP
3E
76
7C
5F
61
EE
FE
EC
FF
C1
7E
ENDCHAR
STARTCHAR Edotaccent.salt_v
ENCODING 57854
SWIDTH 1000 0
DWIDTH 10 0
BBX 8 11 1 -1
BITMAP
1C
3C
3C
5F
61
EE
FE
EC
FF
C1
7E
ENDCHAR
STARTCHAR Eogonek.salt_v
ENCODING 57855
SWIDTH 1000 0
DWIDTH 10 0
BBX 8 11 1 -3
BITMAP
3F
5F
EE
FE
E2
EE
DF
E3
7F
0D
0E
ENDCHAR
STARTCHAR Ecaron.salt_v
ENCODING 57856
SWIDTH 1000 0
DWIDTH 10 0
BBX 8 11 1 -1
BITMAP
3E
7E
7C
5F
61
EE
FE
EC
FF
C1
7E
ENDCHAR
STARTCHAR I.salt_v
ENCODING 57857
SWIDTH 1000 0
DWIDTH 10 0
BBX 4 9 3 -1
BITMAP
70
B0
B0
B0
B0
B0
B0
90
E0
ENDCHAR
STARTCHAR I_I.salt_v
ENCODING 57858
SWIDTH 1000 0
DWIDTH 10 0
BBX 8 9 1 -1
BITMAP
77
EB
EB
EB
EB
EB
EB
C9
FE
ENDCHAR
STARTCHAR Igrave.salt_v
ENCODING 57859
SWIDTH 1000 0
DWIDTH 10 0
BBX 6 11 2 -1
BITMAP
7C
FC
FC
28
58
58
58
58
58
48
70
ENDCHAR
STARTCHAR Iacute.salt_v
ENCODING 57860
SWIDTH 1000 0
DWIDTH 10 0
BBX 6 11 2 -1
BITMAP
3C
5C
F8
C8
58
58
58
58
58
48
70
ENDCHAR
STARTCHAR Icircumflex.salt_v
ENCODING 57861
SWIDTH 1000 0
DWIDTH 10 0
BBX 6 11 2 -1
BITMAP
7C
6C
FC
A8
58
58
58
58
58
48
70
ENDCHAR
STARTCHAR Idieresis.salt_v
ENCODING 57862
SWIDTH 1000 0
DWIDTH 10 0
BBX 6 11 2 -1
BITMAP
7C
BC
FC
C8
58
58
58
58
58
48
70
ENDCHAR
STARTCHAR Itilde.salt_v
ENCODING 57863
SWIDTH 1000 0
DWIDTH 10 0
BBX 6 11 2 -1
BITMAP
7C
7C
F8
A8
58
58
58
58
58
48
70
ENDCHAR
STARTCHAR Imacron.salt_v
ENCODING 57864
SWIDTH 1000 0
DWIDTH 10 0
BBX 6 11 2 -1
BITMAP
3C
C4
F8
C8
58
58
58
58
58
48
70
ENDCHAR
STARTCHAR Ibreve.salt_v
ENCODING 57865
SWIDTH 1000 0
DWIDTH 10 0
BBX 6 11 2 -1
BITMAP
7C
EC
F8
48
58
58
58
58
58
48
70
ENDCHAR
STARTCHAR Iogonek.salt_v
ENCODING 57866
SWIDTH 1000 0
DWIDTH 10 0
BBX 4 10 3 -3
BITMAP
70
F0
F0
F0
F0
F0
D0
B0
90
E0
ENDCHAR
STARTCHAR Idotaccent.salt_v
ENCODING 57867
SWIDTH 1000 0
DWIDTH 10 0
BBX 4 11 3 -1
BITMAP
70
F0
F0
90
B0
B0
B0
B0
B0
90
E0
ENDCHAR
STARTCHAR L.salt_v
ENCODING 57868
SWIDTH 1000 0
DWIDTH 10 0
BBX 8 9 1 -1
BITMAP
70
F0
F0
F0
F0
F0
FF
C1
FE
ENDCHAR
STARTCHAR Lacute.salt_v
ENCODING 57869
SWIDTH 1000 0
DWIDTH 10 0
BBX 8 11 1 -1
BITMAP
3C
5C
F8
D0
F0
F0
F0
F0
FF
C1
FE
ENDCHAR
STARTCHAR Lcommaaccent.salt_v
ENCODING 57870
SWIDTH 1000 0
DWIDTH 10 0
BBX 8 12 1 -4
BITMAP
70
F0
F0
F0
F0
EF
DF
C5
FA
34
3C
38
ENDCHAR
STARTCHAR Lcaron.salt_v
ENCODING 57871
SWIDTH 1000 0
DWIDTH 10 0
BBX 9 9 1 -1
BITMAP
7380
F500
F480
F700
F000
F000
FF00
C100
FE00
ENDCHAR
STARTCHAR Ldot.salt_v
ENCODING 57872
SWIDTH 1000 0
DWIDTH 10 0
BBX 8 12 1 -4
BITMAP
70
F0
F0
F0
F0
EF
DF
D9
E6
28
38
30
ENDCHAR
STARTCHAR Lslash.salt_v
ENCODING 57873
SWIDTH 1000 0
DWIDTH 10 0
BBX 8 9 1 -1
BITMAP
70
F0
E8
B8
A8
F0
FF
C1
FE
ENDCHAR
STARTCHAR L.salt_s_v
ENCODING 57874
SWIDTH 1000 0
DWIDTH 10 0
BBX 8 8 1 -1
BITMAP
70
F0
F0
F0
F0
FF
C1
FE
ENDCHAR
STARTCHAR M.salt_v
ENCODING 57875
SWIDTH 1000 0
DWIDTH 10 0
BBX 8 9 1 -1
BITMAP
7F
BF
BD
BD
BD
BD
BD
95
FF
ENDCHAR
STARTCHAR N.salt_v
ENCODING 57876
SWIDTH 1000 0
DWIDTH 10 0
BBX 8 9 1 -1
BITMAP
3E
5F
EB
EB
EB
EB
EB
C9
FE
ENDCHAR
STARTCHAR Ntilde.salt_v
ENCODING 57877
SWIDTH 1000 0
DWIDTH 10 0
BBX 8 11 1 -1
BITMAP
3E
3E
7E
5D
63
EB
EB
EB
EB
C9
FE
ENDCHAR
STARTCHAR Nacute.salt_v
ENCODING 57878
SWIDTH 1000 0
DWIDTH 10 0
BBX 8 11 1 -1
BITMAP
1E
2E
7E
5D
63
EB
EB
EB
EB
C9
FE
ENDCHAR
STARTCHAR Ncommaaccent.salt_v
ENCODING 57879
SWIDTH 1000 0
DWIDTH 10 0
BBX 8 11 1 -3
BITMAP
3E
5F
EB
EB
EB
EB
CD
FA
34
3C
38
ENDCHAR
STARTCHAR Ncaron.salt_v
ENCODING 57880
SWIDTH 1000 0
DWIDTH 10 0
BBX 8 11 1 -1
BITMAP
3E
7E
7E
5D
63
EB
EB
EB
EB
C9
FE
ENDCHAR
STARTCHAR W.salt_v
ENCODING 57881
SWIDTH 1000 0
DWIDTH 10 0
BBX 8 9 1 -1
BITMAP
7F
BD
BD
BD
BD
BD
A9
D7
FE
ENDCHAR
STARTCHAR Wcircumflex.salt_v
ENCODING 57882
SWIDTH 1000 0
DWIDTH 10 0
BBX 8 11 1 -1
BITMAP
3E
36
7E
95
BD
BD
BD
BD
A9
D7
FE
ENDCHAR
STARTCHAR Wgrave.salt_v
ENCODING 57883
SWIDTH 1000 0
DWIDTH 10 0
BBX 8 11 1 -1
BITMAP
3E
7E
7E
95
BD
BD
BD
BD
A9
D7
FE
ENDCHAR
STARTCHAR Wacute.salt_v
ENCODING 57884
SWIDTH 1000 0
DWIDTH 10 0
BBX 8 11 1 -1
BITMAP
1E
2E
7E
95
BD
BD
BD
BD
A9
D7
FE
ENDCHAR
STARTCHAR Wdieresis.salt_v
ENCODING 57885
SWIDTH 1000 0
DWIDTH 10 0
BBX 8 11 1 -1
BITMAP
3E
5E
7E
95
BD
BD
BD
BD
A9
D7
FE
ENDCHAR
STARTCHAR X.salt_v
ENCODING 57886
SWIDTH 1100 0
DWIDTH 11 0
BBX 7 9 2 -1
BITMAP
7E
EE
EE
96
AE
BA
AA
9A
EE
ENDCHAR
STARTCHAR Y.salt_v
ENCODING 57887
SWIDTH 1000 0
DWIDTH 10 0
BBX 8 9 1 -1
BITMAP
77
EB
EB
EB
D7
EA
6C
24
38
ENDCHAR
STARTCHAR Yacute.salt_v
ENCODING 57888
SWIDTH 1000 0
DWIDTH 10 0
BBX 8 11 1 -1
BITMAP
1E
2E
7E
59
EB
EB
D7
CB
6C
24
38
ENDCHAR
STARTCHAR Ycircumflex.salt_v
ENCODING 57889
SWIDTH 1000 0
DWIDTH 10 0
BBX 8 11 1 -1
BITMAP
3E
36
7E
59
EB
EB
D7
CB
6C
24
38
ENDCHAR
STARTCHAR Ydieresis.salt_v
ENCODING 57890
SWIDTH 1000 0
DWIDTH 10 0
BBX 8 11 1 -1
BITMAP
3E
5E
7E
49
EB
EB
D7
CB
6C
24
38
ENDCHAR
STARTCHAR Ygrave.salt_v
ENCODING 57891
SWIDTH 1000 0
DWIDTH 10 0
BBX 8 11 1 -1
BITMAP
3E
7E
7E
49
EB
EB
D7
CB
6C
24
38
ENDCHAR
STARTCHAR AE.salt_v
ENCODING 57892
SWIDTH 1000 0
DWIDTH 10 0
BBX 8 9 1 -1
BITMAP
3F
5F
B7
B5
A7
BE
B7
91
FE
ENDCHAR
STARTCHAR IJ.salt_v
ENCODING 57893
SWIDTH 1000 0
DWIDTH 10 0
BBX 8 16 1 -5
BITMAP
1C
3C
3C
3C
3C
3C
34
3E
09
0B
3B
4B
EB
F3
CD
7E
ENDCHAR
STARTCHAR IJ.stack_v
ENCODING 57894
SWIDTH 1000 0
DWIDTH 10 0
BBX 8 17 1 -5
BITMAP
7F
DF
EA
EA
2C
2A
5F
C1
FE
09
0B
3B
4B
EB
F7
CB
7C
ENDCHAR
STARTCHAR commaaccent.v
ENCODING 57895
SWIDTH 1000 0
DWIDTH 10 0
BBX 4 5 3 -5
BITMAP
30
D0
F0
70
C0
ENDCHAR
STARTCHAR hyphen.v
ENCODING 57896
SWIDTH 1000 0
DWIDTH 10 0
BBX 4 5 3 1
BITMAP
70
F0
F0
D0
E0
ENDCHAR
STARTCHAR endash.v
ENCODING 57897
SWIDTH 1000 0
DWIDTH 10 0
BBX 4 8 3 -1
BITMAP
70
F0
F0
F0
F0
D0
E0
C0
ENDCHAR
STARTCHAR emdash.v
ENCODING 57898
SWIDTH 1000 0
DWIDTH 10 0
BBX 4 12 3 -3
BITMAP
70
F0
F0
F0
F0
F0
F0
F0
F0
F0
F0
E0
ENDCHAR
STARTCHAR parenleft.v
ENCODING 57899
SWIDTH 1000 0
DWIDTH 10 0
BBX 10 5 0 1
BITMAP
3FC0
5FC0
A040
9F40
E180
ENDCHAR
STARTCHAR parenright.v
ENCODING 57900
SWIDTH 1000 0
DWIDTH 10 0
BBX 10 5 0 1
BITMAP
70C0
AF40
BFC0
C040
FF80
ENDCHAR
STARTCHAR bracketleft.v
ENCODING 57901
SWIDTH 1000 0
DWIDTH 10 0
BBX 10 5 0 1
BITMAP
7FC0
9FC0
A040
9F40
E180
ENDCHAR
STARTCHAR bracketright.v
ENCODING 57902
SWIDTH 1000 0
DWIDTH 10 0
BBX 10 5 0 1
BITMAP
70C0
BF40
BFC0
8040
FF80
ENDCHAR
STARTCHAR braceleft.v
ENCODING 57903
SWIDTH 1000 0
DWIDTH 10 0
BBX 10 6 0 0
BITMAP
2E80
5F40
A4C0
9F40
E1C0
C180
ENDCHAR
STARTCHAR braceright.v
ENCODING 57904
SWIDTH 1000 0
DWIDTH 10 0
BBX 10 6 0 0
BITMAP
71C0
AE40
DBC0
E480
7F00
0800
ENDCHAR
STARTCHAR quoteleft.v
ENCODING 57905
SWIDTH 1000 0
DWIDTH 10 0
BBX 4 5 3 1
BITMAP
70
B0
B0
90
E0
ENDCHAR
STARTCHAR quoteright.v
ENCODING 57906
SWIDTH 1000 0
DWIDTH 10 0
BBX 4 6 3 0
BITMAP
70
B0
F0
B0
E0
C0
ENDCHAR
STARTCHAR quotedblleft.v
ENCODING 57907
SWIDTH 1000 0
DWIDTH 10 0
BBX 8 5 1 1
BITMAP
77
7A
FB
C9
FE
ENDCHAR
STARTCHAR quotedblright.v
ENCODING 57908
SWIDTH 1000 0
DWIDTH 10 0
BBX 8 6 1 0
BITMAP
7F
FB
EF
FD
FE
48
ENDCHAR
STARTCHAR quotesinglbase.v
ENCODING 57909
SWIDTH 1000 0
DWIDTH 10 0
BBX 4 6 3 0
BITMAP
70
B0
F0
B0
E0
C0
ENDCHAR
STARTCHAR quotedblbase.v
ENCODING 57910
SWIDTH 1000 0
DWIDTH 10 0
BBX 8 6 1 0
BITMAP
7F
FB
EF
FD
FE
48
ENDCHAR
STARTCHAR guilsinglleft.v
ENCODING 57911
SWIDTH 1000 0
DWIDTH 10 0
BBX 6 6 2 0
BITMAP
7C
6C
FC
94
FC
D8
ENDCHAR
STARTCHAR guilsinglright.v
ENCODING 57912
SWIDTH 1000 0
DWIDTH 10 0
BBX 6 6 2 0
BITMAP
FC
BC
EC
D4
E8
70
ENDCHAR
STARTCHAR guillemotleft.v
ENCODING 57913
SWIDTH 1000 0
DWIDTH 10 0
BBX 6 9 2 -1
BITMAP
3C
7C
FC
94
EC
7C
FC
94
F8
ENDCHAR
STARTCHAR guillemotright.v
ENCODING 57914
SWIDTH 1000 0
DWIDTH 10 0
BBX 6 9 2 -1
BITMAP
7C
BC
FC
C4
BC
BC
FC
C4
78
ENDCHAR
STARTCHAR period.v
ENCODING 57915
SWIDTH 1000 0
DWIDTH 10 0
BBX 4 5 3 1
BITMAP
70
90
B0
90
E0
ENDCHAR
STARTCHAR comma.v
ENCODING 57916
SWIDTH 1000 0
DWIDTH 10 0
BBX 4 6 3 0
BITMAP
70
B0
F0
B0
E0
C0
ENDCHAR
STARTCHAR ellipsis.v
ENCODING 57917
SWIDTH 1000 0
DWIDTH 10 0
BBX 12 5 -1 1
BITMAP
3770
4890
DAB0
C990
FEE0
ENDCHAR
STARTCHAR exclamdown.v
ENCODING 57918
SWIDTH 1000 0
DWIDTH 10 0
BBX 4 9 3 -1
BITMAP
70
B0
F0
D0
B0
B0
B0
90
E0
ENDCHAR
STARTCHAR questiondown.v
ENCODING 57919
SWIDTH 1000 0
DWIDTH 10 0
BBX 8 9 1 -1
BITMAP
1E
16
1E
26
5A
DE
CF
E1
7E
ENDCHAR
STARTCHAR dagger.v
ENCODING 57920
SWIDTH 1000 0
DWIDTH 10 0
BBX 8 9 1 -1
BITMAP
1C
3D
7F
C9
FA
3C
3C
34
38
ENDCHAR
STARTCHAR daggerdbl.v
ENCODING 57921
SWIDTH 1000 0
DWIDTH 10 0
BBX 8 9 1 -1
BITMAP
1C
7F
C9
FA
49
FF
DD
F6
38
ENDCHAR
STARTCHAR perthousand.v
ENCODING 57922
SWIDTH 1000 0
DWIDTH 10 0
BBX 10 9 0 -1
BITMAP
3B00
6D00
F600
D480
FB40
35C0
2BC0
5C40
FF80
ENDCHAR
STARTCHAR ampersand.salt_v
ENCODING 57923
SWIDTH 1000 0
DWIDTH 10 0
BBX 8 11 1 -2
BITMAP
1E
25
3B
5E
62
7E
EC
FB
C5
72
1C
ENDCHAR
STARTCHAR quoteleft.salt_v
ENCODING 57924
SWIDTH 1000 0
DWIDTH 10 0
BBX 4 4 1 1
BITMAP
70
F0
D0
E0
ENDCHAR
STARTCHAR quoteright.salt_v
ENCODING 57925
SWIDTH 1000 0
DWIDTH 10 0
BBX 4 4 1 1
BITMAP
70
F0
F0
C0
ENDCHAR
STARTCHAR A.s_v
ENCODING 57926
SWIDTH 1000 0
DWIDTH 10 0
BBX 8 8 1 -1
BITMAP
3E
55
5A
63
FF
EB
C9
FE
ENDCHAR
STARTCHAR C.s_v
ENCODING 57927
SWIDTH 1000 0
DWIDTH 10 0
BBX 8 8 1 -1
BITMAP
7F
61
EE
F0
F0
FF
C1
7E
ENDCHAR
STARTCHAR D.s_v
ENCODING 57928
SWIDTH 1000 0
DWIDTH 10 0
BBX 8 8 1 -1
BITMAP
7F
E3
EB
EB
EB
FF
C3
FC
ENDCHAR
STARTCHAR E.s_v
ENCODING 57929
SWIDTH 1000 0
DWIDTH 10 0
BBX 8 8 1 -1
BITMAP
7F
E1
EE
FE
EC
FF
C1
FE
ENDCHAR
STARTCHAR G.s_v
ENCODING 57930
SWIDTH 1000 0
DWIDTH 10 0
BBX 8 8 1 -1
BITMAP
7F
63
EC
F7
EB
FF
C1
7E
ENDCHAR
STARTCHAR H.s_v
ENCODING 57931
SWIDTH 1000 0
DWIDTH 10 0
BBX 8 8 1 -1
BITMAP
7F
EB
E3
FF
EB
EB
C9
FE
ENDCHAR
STARTCHAR I.s_v
ENCODING 57932
SWIDTH 1000 0
DWIDTH 10 0
BBX 8 8 1 -1
BITMAP
7F
C9
EA
2C
2C
5F
C1
FE
ENDCHAR
STARTCHAR J.s_v
ENCODING 57933
SWIDTH 1000 0
DWIDTH 10 0
BBX 8 8 1 -1
BITMAP
0F
0B
3B
4B
EB
F3
CD
7E
ENDCHAR
STARTCHAR K.s_v
ENCODING 57934
SWIDTH 1000 0
DWIDTH 10 0
BBX 8 8 1 -1
BITMAP
7F
EE
E5
FB
EB
EB
C9
FE
ENDCHAR
STARTCHAR L.s_v
ENCODING 57935
SWIDTH 1000 0
DWIDTH 10 0
BBX 8 8 1 -1
BITMAP
70
F0
F2
F5
EB
FF
C1
FE
ENDCHAR
STARTCHAR N.s_v
ENCODING 57936
SWIDTH 1000 0
DWIDTH 10 0
BBX 8 8 1 -1
BITMAP
7F
D7
EB
E7
EB
EB
C9
FE
ENDCHAR
STARTCHAR O.s_v
ENCODING 57937
SWIDTH 1000 0
DWIDTH 10 0
BBX 8 9 1 -1
BITMAP
2E
5D
63
EB
EB
EB
F3
CD
7E
ENDCHAR
STARTCHAR R.s_v
ENCODING 57938
SWIDTH 1000 0
DWIDTH 10 0
BBX 8 8 1 -1
BITMAP
7F
E2
EA
FD
E3
EB
C9
FE
ENDCHAR
STARTCHAR S.s_v
ENCODING 57939
SWIDTH 1000 0
DWIDTH 10 0
BBX 8 8 1 -1
BITMAP
7F
69
E6
DD
FB
5F
C1
FE
ENDCHAR
STARTCHAR T.s_v
ENCODING 57940
SWIDTH 1000 0
DWIDTH 10 0
BBX 8 8 1 -1
BITMAP
7F
C9
EA
2C
2C
2C
24
38
ENDCHAR
STARTCHAR U.s_v
ENCODING 57941
SWIDTH 1000 0
DWIDTH 10 0
BBX 8 8 1 -1
BITMAP
7F
EB
EB
EB
EB
F3
CD
7E
ENDCHAR
STARTCHAR W.s_v
ENCODING 57942
SWIDTH 1000 0
DWIDTH 10 0
BBX 8 8 1 -1
BITMAP
77
AF
B7
AB
F7
FF
C9
7E
ENDCHAR
STARTCHAR Y.s_v
ENCODING 57943
SWIDTH 1000 0
DWIDTH 10 0
BBX 8 8 1 -1
BITMAP
77
EB
EB
D5
6A
6C
24
38
ENDCHAR
STARTCHAR Z.s_v
ENCODING 57944
SWIDTH 1000 0
DWIDTH 10 0
BBX 8 8 1 -1
BITMAP
7F
CB
F5
2A
54
7F
C1
FE
ENDCHAR
STARTCHAR A.salt_s_v
ENCODING 57945
SWIDTH 1000 0
DWIDTH 10 0
BBX 8 9 1 -1
BITMAP
2E
5D
63
EB
E3
FF
EB
C9
FE
ENDCHAR
STARTCHAR E.salt_s_v
ENCODING 57946
SWIDTH 1000 0
DWIDTH 10 0
BBX 8 8 1 -1
BITMAP
7F
61
EE
FE
EC
FF
C1
7E
ENDCHAR
STARTCHAR I.salt_s_v
ENCODING 57947
SWIDTH 1000 0
DWIDTH 10 0
BBX 4 8 3 -1
BITMAP
70
B0
B0
B0
B0
B0
90
E0
ENDCHAR
STARTCHAR N.salt_s_v
ENCODING 57948
SWIDTH 1000 0
DWIDTH 10 0
BBX 8 9 1 -1
BITMAP
2E
5D
63
EB
EB
EB
EB
C9
FE
ENDCHAR
STARTCHAR W.salt_s_v
ENCODING 57949
SWIDTH 1000 0
DWIDTH 10 0
BBX 8 8 1 -1
BITMAP
FF
BD
BD
BD
BD
A9
D7
FE
ENDCHAR
STARTCHAR Y.salt_s_v
ENCODING 57950
SWIDTH 1000 0
DWIDTH 10 0
BBX 8 8 1 -1
BITMAP
7F
EB
EB
D7
CB
6C
24
38
ENDCHAR
STARTCHAR uniF6C3
ENCODING 63171
SWIDTH 600 0
DWIDTH 6 0
BBX 4 5 1 -4
BITMAP
70
B0
90
F0
E0
ENDCHAR
STARTCHAR fi
ENCODING 64257
SWIDTH 1423 0
DWIDTH 14 0
BBX 14 9 0 -1
BITMAP
7FFC
DDBC
EFD8
E258
DA58
EC54
E8BC
D984
E1F8
ENDCHAR
STARTCHAR fl
ENCODING 64258
SWIDTH 1513 0
DWIDTH 15 0
BBX 15 9 0 -1
BITMAP
7FF0
DDA0
EEA0
E2A6
DAAE
ECBE
E8BE
D882
E0FC
ENDCHAR
STARTCHAR exclam.v
ENCODING 65281
SWIDTH 1000 0
DWIDTH 10 0
BBX 4 9 3 -1
BITMAP
70
B0
B0
B0
D0
F0
B0
90
E0
ENDCHAR
STARTCHAR quotedbl.v
ENCODING 65282
SWIDTH 1000 0
DWIDTH 10 0
BBX 7 5 2 1
BITMAP
FE
B6
B4
92
FC
ENDCHAR
STARTCHAR percent.v
ENCODING 65285
SWIDTH 1000 0
DWIDTH 10 0
BBX 8 9 1 -1
BITMAP
7B
6D
AA
F4
FB
75
2B
5D
FE
ENDCHAR
STARTCHAR ampersand.v
ENCODING 65286
SWIDTH 1000 0
DWIDTH 10 0
BBX 8 9 1 -1
BITMAP
3E
5A
5C
76
65
AF
FF
C1
7E
ENDCHAR
STARTCHAR quotesingle.v
ENCODING 65287
SWIDTH 1000 0
DWIDTH 10 0
BBX 4 5 3 1
BITMAP
70
B0
F0
D0
E0
ENDCHAR
STARTCHAR asterisk.v
ENCODING 65290
SWIDTH 1000 0
DWIDTH 10 0
BBX 8 8 1 -1
BITMAP
1C
3E
5F
69
F6
2A
7C
28
ENDCHAR
STARTCHAR zero.v
ENCODING 65296
SWIDTH 1000 0
DWIDTH 10 0
BBX 8 9 1 -1
BITMAP
3E
5F
EB
EB
EB
EB
F3
CD
7E
ENDCHAR
STARTCHAR one.v
ENCODING 65297
SWIDTH 1000 0
DWIDTH 10 0
BBX 8 9 1 -1
BITMAP
7C
5C
FC
7C
3C
3E
5D
C1
FE
ENDCHAR
STARTCHAR two.v
ENCODING 65298
SWIDTH 1000 0
DWIDTH 10 0
BBX 8 9 1 -1
BITMAP
7E
5F
FB
67
5B
EC
FF
C1
FE
ENDCHAR
STARTCHAR three.v
ENCODING 65299
SWIDTH 1000 0
DWIDTH 10 0
BBX 8 9 1 -1
BITMAP
7E
DD
FD
C6
5B
7B
5F
C1
FE
ENDCHAR
STARTCHAR four.v
ENCODING 65300
SWIDTH 1000 0
DWIDTH 10 0
BBX 8 9 1 -1
BITMAP
77
EB
EB
EB
E3
DF
7B
09
0E
ENDCHAR
STARTCHAR five.v
ENCODING 65301
SWIDTH 1000 0
DWIDTH 10 0
BBX 8 9 1 -1
BITMAP
7F
FD
EE
E1
DF
FB
5F
C1
FE
ENDCHAR
STARTCHAR six.v
ENCODING 65302
SWIDTH 1000 0
DWIDTH 10 0
BBX 8 9 1 -1
BITMAP
3E
5E
EE
E9
F7
EB
E3
DD
7E
ENDCHAR
STARTCHAR seven.v
ENCODING 65303
SWIDTH 1000 0
DWIDTH 10 0
BBX 8 9 1 -1
BITMAP
7F
DF
FB
F3
2D
72
74
64
78
ENDCHAR
STARTCHAR eight.v
ENCODING 65304
SWIDTH 1000 0
DWIDTH 10 0
BBX 8 9 1 -1
BITMAP
3E
5E
5A
52
6F
EF
E3
DD
7E
ENDCHAR
STARTCHAR nine.v
ENCODING 65305
SWIDTH 1000 0
DWIDTH 10 0
BBX 8 9 1 -1
BITMAP
3E
5F
EB
E3
DF
FB
3F
43
7C
ENDCHAR
STARTCHAR colon.v
ENCODING 65306
SWIDTH 1000 0
DWIDTH 10 0
BBX 4 9 3 -1
BITMAP
70
90
B0
90
F0
90
B0
90
E0
ENDCHAR
STARTCHAR semicolon.v
ENCODING 65307
SWIDTH 1000 0
DWIDTH 10 0
BBX 4 9 3 -1
BITMAP
70
B0
90
F0
90
B0
F0
90
E0
ENDCHAR
STARTCHAR question.v
ENCODING 65311
SWIDTH 1000 0
DWIDTH 10 0
BBX 8 9 1 -1
BITMAP
7E
DD
FB
2F
62
7C
74
64
78
ENDCHAR
STARTCHAR A.v
ENCODING 65313
SWIDTH 1000 0
DWIDTH 10 0
BBX 8 9 1 -1
BITMAP
3E
3E
5D
6B
63
FF
EB
C9
FE
ENDCHAR
STARTCHAR B.v
ENCODING 65314
SWIDTH 1000 0
DWIDTH 10 0
BBX 8 9 1 -1
BITMAP
7E
FD
ED
E6
FB
EF
FF
C1
FE
ENDCHAR
STARTCHAR C.v
ENCODING 65315
SWIDTH 1000 0
DWIDTH 10 0
BBX 8 9 1 -1
BITMAP
3F
5F
EE
EC
F0
F0
FF
C1
7E
ENDCHAR
STARTCHAR D.v
ENCODING 65316
SWIDTH 1000 0
DWIDTH 10 0
BBX 8 9 1 -1
BITMAP
7E
FD
EB
EB
EB
EB
FF
C3
FC
ENDCHAR
STARTCHAR E.v
ENCODING 65317
SWIDTH 1000 0
DWIDTH 10 0
BBX 8 9 1 -1
BITMAP
7F
FF
EE
E2
FE
EC
FF
C1
FE
ENDCHAR
STARTCHAR F.v
ENCODING 65318
SWIDTH 1000 0
DWIDTH 10 0
BBX 8 9 1 -1
BITMAP
7F
FF
EE
E2
DE
EE
EC
D0
E0
ENDCHAR
STARTCHAR G.v
ENCODING 65319
SWIDTH 1000 0
DWIDTH 10 0
BBX 8 9 1 -1
BITMAP
3F
5D
EE
EE
F5
EB
FF
C1
7E
ENDCHAR
STARTCHAR H.v
ENCODING 65320
SWIDTH 1000 0
DWIDTH 10 0
BBX 8 9 1 -1
BITMAP
77
EB
EB
E3
FF
EB
EB
C9
FE
ENDCHAR
STARTCHAR I.v
ENCODING 65321
SWIDTH 1000 0
DWIDTH 10 0
BBX 8 9 1 -1
BITMAP
7F
DF
EA
EA
2C
2C
5F
C1
FE
ENDCHAR
STARTCHAR J.v
ENCODING 65322
SWIDTH 1000 0
DWIDTH 10 0
BBX 8 9 1 -1
BITMAP
07
0B
0B
3B
4B
EB
F3
CD
7E
ENDCHAR
STARTCHAR K.v
ENCODING 65323
SWIDTH 1000 0
DWIDTH 10 0
BBX 8 9 1 -1
BITMAP
77
ED
EE
E5
FB
EB
EB
C9
FE
ENDCHAR
STARTCHAR L.v
ENCODING 65324
SWIDTH 1000 0
DWIDTH 10 0
BBX 8 9 1 -1
BITMAP
70
F0
F0
F2
F5
EB
FF
C1
FE
ENDCHAR
STARTCHAR M.v
ENCODING 65325
SWIDTH 1000 0
DWIDTH 10 0
BBX 8 9 1 -1
BITMAP
77
AF
B7
AB
B7
B7
BF
9D
EE
ENDCHAR
STARTCHAR N.v
ENCODING 65326
SWIDTH 1000 0
DWIDTH 10 0
BBX 8 9 1 -1
BITMAP
77
EB
F7
EB
EF
EB
EB
C9
FE
ENDCHAR
STARTCHAR O.v
ENCODING 65327
SWIDTH 1000 0
DWIDTH 10 0
BBX 8 9 1 -1
BITMAP
3E
5F
EB
EB
EB
EB
F3
CD
7E
ENDCHAR
STARTCHAR P.v
ENCODING 65328
SWIDTH 1000 0
DWIDTH 10 0
BBX 8 9 1 -1
BITMAP
7E
FF
EB
EF
FF
E2
EC
D0
E0
ENDCHAR
STARTCHAR Q.v
ENCODING 65329
SWIDTH 1000 0
DWIDTH 10 0
BBX 8 10 1 -2
BITMAP
3E
5F
EB
EB
EB
EB
F3
CF
74
38
ENDCHAR
STARTCHAR R.v
ENCODING 65330
SWIDTH 1000 0
DWIDTH 10 0
BBX 8 9 1 -1
BITMAP
7E
FD
EA
EA
DD
E3
EB
C9
FE
ENDCHAR
STARTCHAR S.v
ENCODING 65331
SWIDTH 1000 0
DWIDTH 10 0
BBX 8 9 1 -1
BITMAP
3F
5F
EE
E1
DF
FB
5F
C1
FE
ENDCHAR
STARTCHAR T.v
ENCODING 65332
SWIDTH 1000 0
DWIDTH 10 0
BBX 8 9 1 -1
BITMAP
7F
DF
EA
EA
2C
2C
2C
24
38
ENDCHAR
STARTCHAR U.v
ENCODING 65333
SWIDTH 1000 0
DWIDTH 10 0
BBX 8 9 1 -1
BITMAP
77
EB
EB
EB
EB
EB
F3
CD
7E
ENDCHAR
STARTCHAR V.v
ENCODING 65334
SWIDTH 1000 0
DWIDTH 10 0
BBX 8 9 1 -1
BITMAP
77
EB
EB
EB
EB
DA
5E
62
7C
ENDCHAR
STARTCHAR W.v
ENCODING 65335
SWIDTH 1000 0
DWIDTH 10 0
BBX 8 9 1 -1
BITMAP
77
B7
AF
B7
AB
F7
FF
C9
7E
ENDCHAR
STARTCHAR X.v
ENCODING 65336
SWIDTH 1100 0
DWIDTH 11 0
BBX 7 9 2 -1
BITMAP
7E
BA
AE
DE
D6
AE
BA
9A
FE
ENDCHAR
STARTCHAR Y.v
ENCODING 65337
SWIDTH 1000 0
DWIDTH 10 0
BBX 8 9 1 -1
BITMAP
77
EB
EB
DB
D5
6A
6C
24
38
ENDCHAR
STARTCHAR Z.v
ENCODING 65338
SWIDTH 1000 0
DWIDTH 10 0
BBX 8 9 1 -1
BITMAP
7F
DF
FB
F6
2C
54
7F
C1
FE
ENDCHAR
STARTCHAR uni2B24.salt_v
ENCODING 65339
SWIDTH 1280 0
DWIDTH 13 0
BBX 11 12 1 -2
BITMAP
3F80
7FC0
FFC0
FFE0
FFE0
FFE0
FFE0
FFE0
FFE0
FFC0
7FC0
3F80
ENDCHAR
STARTCHAR uni25DD.curve_v
ENCODING 65340
SWIDTH 1280 0
DWIDTH 13 0
BBX 11 12 1 -2
BITMAP
1FE0
7FE0
7FE0
FFE0
FFE0
FFE0
FFE0
FFE0
FFE0
FFE0
FFE0
FFE0
ENDCHAR
STARTCHAR uni2B1B.trapezoid_e_v
ENCODING 65341
SWIDTH 1280 0
DWIDTH 13 0
BBX 11 13 1 -2
BITMAP
8000
FC00
FFE0
FFE0
FFE0
FFE0
FFE0
FFE0
FFE0
FFE0
FFE0
FFE0
FFE0
ENDCHAR
STARTCHAR uni2B1B.trapezoid_w_v
ENCODING 65342
SWIDTH 1280 0
DWIDTH 13 0
BBX 11 13 1 -3
BITMAP
FFE0
FFE0
FFE0
FFE0
FFE0
FFE0
FFE0
FFE0
FFE0
FFE0
FFE0
FE00
E000
ENDCHAR
STARTCHAR .notdef
ENCODING -1
SWIDTH 1100 0
DWIDTH 11 0
BBX 9 10 1 -2
BITMAP
FF80
BF80
C180
C180
C180
C180
C180
C180
FF80
FF00
ENDCHAR
STARTCHAR one.sups
ENCODING -1
SWIDTH 557 0
DWIDTH 6 0
BBX 5 7 0 1
BITMAP
70
D0
F0
70
78
C8
F8
ENDCHAR
STARTCHAR two.sups
ENCODING -1
SWIDTH 585 0
DWIDTH 6 0
BBX 6 7 0 1
BITMAP
7C
F4
FC
48
F8
C4
F8
ENDCHAR
STARTCHAR three.sups
ENCODING -1
SWIDTH 584 0
DWIDTH 6 0
BBX 6 7 0 1
BITMAP
78
F4
54
7C
74
C4
F8
ENDCHAR
STARTCHAR four.sups
ENCODING -1
SWIDTH 620 0
DWIDTH 6 0
BBX 6 7 0 1
BITMAP
7C
DC
DC
FC
FC
1C
18
ENDCHAR
ENDFONT
